<svg version="1" xmlns="http://www.w3.org/2000/svg" width="1445.333" height="1445.333" viewBox="0 0 1084.000000 1084.000000"><path d="M174.3 334.3c-.2.4-1 .7-1.6.6-2.6-.3-3.8.2-3.1 1.2.4.8 0 .8-1.5 0-1.1-.7-2.1-.8-2.1-.3s-1.2.9-2.7 1c-5 0-5.4.2-4.7 1.4.5.9.2.8-.9-.1-1-.8-2-1.1-2.4-.7-.3.3-.1.6.5.6.7 0 1.2.4 1.2.9s-.8.8-1.7.6c-1-.1-2.4.2-3 .8-.9.6-1.3.6-1.3-.1 0-1.2-2.4-1-2.7.2-.3 1.5-2.4 2.3-5.4 2.1-2.4-.2-2.7 0-1.8 1.1.9 1.1.8 1.5-.5 2-.9.3-2.3.4-3.1 0-.9-.3-2.4.3-3.5 1.4-1.1 1.1-2.7 2-3.5 2-.8 0-1.5.7-1.5 1.6 0 .8-.4 1.2-1 .9-.5-.3-1-.2-1 .4 0 .5-.9.8-1.9.6-1.4-.3-1.8.1-1.4 1.1.3.9-.2 1.4-1.5 1.4-1.2 0-2.4.5-2.8 1.2-.4.7-.3.8.4.4.8-.4 1-.2.6.7-.3.8-1.3 1.3-2.4 1-1-.3-2.1.1-2.5.8-.5.8-.4 1 .3.5.7-.4 1.2-.2 1.2.3 0 1-1.7 1.5-4.7 1.4-.7-.1-1 .3-.7.8.3.5-.6 1.4-2 2-1.4.7-2.3 1.6-2 2.1.7 1.2-3.9 5.5-5.4 5-.6-.2-.9.8-.8 2.3.2 1.4-.1 2.8-.7 3.2-.6.3-.7.1-.3-.5.3-.6.2-1.3-.3-1.6-.5-.4-1.2.7-1.6 2.4-.4 1.6-1.2 2.8-1.8 2.7-.7-.1-1.1.6-1.1 1.5.1 1-.4 1.8-1 1.8-2 0-5.6 4.4-5.6 6.8 0 1.3-.6 2.2-1.4 2.2-.8 0-1.8.5-2.2 1.2-.4.7-.3.8.4.4 1.9-1.2 1.4.8-.8 3.2-1.1 1.2-2 2.9-2 3.9s-.5 2.5-1.1 3.3c-.9 1.3-1 1.2-.5-.3.3-.9.1-1.7-.4-1.7-.9 0-1.5 2.9-1.1 5.7.1.7-.3 1.3-.9 1.3-.6 0-.8.5-.4 1.2.5.7.2.9-.7.6-1.1-.4-1.3.3-1 3.5.2 2.7 0 3.8-.8 3.3-.7-.5-1.1.1-1.1 1.4 0 1.2-.4 1.9-.8 1.6-.5-.3-.8 1.5-.7 3.9.2 2.9-.2 4.5-1.1 4.9-1.1.4-1.3 5.7-1.3 26.5 0 20.9.2 25.9 1.3 25.5.7-.3 1.3.2 1.3 1s-.5 1.2-1.1.9c-.7-.5-.7-.2 0 .8.6.8 1 2.2.9 3.1-.2 1 .2 1.8.8 1.8.8 0 .7.4-.2.9-1.1.7-.9 1 .8 1.6 1.6.5 2.1 1.4 2.1 4.1 0 2-.5 3.4-1.2 3.5-.7 0-.2.6 1.2 1.2 1.7.8 2.5 1.9 2.4 3.5-.1 1.3.5 2.6 1.2 2.9.8.3 1.1.9.8 1.4-.3.5 0 .9.7.9s1 1.1.7 3c-.3 2-.1 2.7.6 2.1.7-.6 1.6-.3 2.4.5.9 1 .9 1.4.1 1.4s-.9.4 0 1.3c.6.8.8 1.7.4 2-.3.4.1.7 1 .7 1.5 0 2.3 2.4 1.8 5.3-.1.5.3.6.9.2.6-.3.7-1.1.4-1.7-.4-.7-.2-.8.5-.4.6.4.9 1.2.6 1.7-.4.5-.1.9.5.9.7 0 1 .7.6 1.5-.4 1 .1 1.5 1.5 1.5 1.1 0 1.8.4 1.4 1-.3.5.4 1.9 1.5 3 1.2 1.2 1.8 2.6 1.3 3.3-.4.7 0 .7 1-.2 1.5-1.2 1.7-1.1 1.7.3 0 2.4 2.7 5 3.3 3.3.3-.6.6-.2.6 1 .1 2.3 3.8 5.6 5.3 4.7.4-.3.8.4.8 1.5 0 1.5.4 1.9 1.7 1.4 1.2-.5 1.5-.2 1 1s-.1 1.7 1.2 1.7c1 0 2.1.9 2.4 2 .3 1.3 1.1 1.8 2.5 1.5 1.4-.2 1.9.1 1.6.9-.7 1.8 2.7 3 3.9 1.4.6-.9.7-.8.3.4-.3 1-.1 1.8.5 1.8s.7.5.3 1.2c-.4.6-.3.8.4.4 1.4-.9 6.3 1.4 5.5 2.7-.3.6-.1.7.5.3.6-.4 2.6.1 4.4 1.1 1.8.9 3.9 1.6 4.5 1.5.8-.2 1 .4.6 1.5-.5 1.4-.3 1.6.7.6 1-.9 1.7-.7 3.2 1 1.1 1.2 1.7 1.7 1.4 1-.4-.7.1-1.1 1.4-1 1.1.1 2 .7 2 1.4 0 .6.5 1.5 1.2 1.9.8.5.9.1.5-1.2-.6-1.6-.5-1.7.5-.4.7.9 2.7 1.7 4.3 1.9 1.7.1 3.9.4 5 .5 1.1.1 1.9.6 1.8 1.2-.1.5 1 .9 2.5.9 1.5-.1 3.7.2 5 .7 1.2.4 2.2.4 2.2 0 0-.6 6-.7 6.8-.2.1.2 1.1.3 2.2.4 1.2 0 2.5.8 3.1 1.6.9 1.3 1 1.2.5-.2-.3-1-.2-1.9.2-2.2 1-.6 3.2 2.1 2.4 3-.4.4-.1.4.6 0s.9-1.2.6-1.8c-.5-.7-.1-.9.9-.5.9.3 1.9.1 2.3-.5.5-.7 1.2-.5 2.1.7.7 1.1 1.3 1.3 1.3.6 0-.7.4-1 .9-.6.5.3 1.3 0 1.7-.6.5-.9 1.1-.7 2.1.6.7 1.1 1.3 1.3 1.3.6 0-.7.4-1 .9-.6.5.3 1.2.1 1.6-.5.9-1.5 2.5-.2 1.8 1.5-.3.8 0 1.5.7 1.5.6 0 .9-.4.5-.9-.3-.5 0-1.3.6-1.7.6-.3 1.5 0 2 .7.7 1.1.9 1 .9-.4 0-1.5.3-1.6 2-.7 1.1.6 1.8 1.5 1.5 2.1-.4.5-.1.9.5.9.7 0 1-.6.7-1.4-.3-.8.1-1.7.9-2 .9-.4 1.2-.2.8.5-.4.8.1.9 1.6.4s2-.3 1.6.3c-.3.6-.1 1.4.5 1.8.7.4.9.3.6-.3-.4-.6.1-1.7 1-2.4.9-.8 1.4-.9 1-.3-.4.7 0 1.5.9 1.8 1 .4 1.3.2.8-.6s-.2-.9.9-.5c.9.3 1.9.1 2.3-.5.5-.7 1.2-.5 2.1.7.7 1.1 1.3 1.3 1.3.6 0-.7.4-1 .9-.6.5.3 1.3 0 1.7-.6.5-.9 1.1-.7 2.1.6.7 1.1 1.3 1.3 1.3.6 0-.7.4-1 .9-.6.5.3 1.3 0 1.7-.6.5-.9 1.1-.7 2.1.6.7 1.1 1.3 1.3 1.3.6 0-.7.4-1 .9-.6.5.3 1.3 0 1.7-.6.5-.9 1.1-.7 2.1.6.7 1.1 1.3 1.4 1.3.8 0-.6 1.5-1 3.5-.9 1.9.1 3.5-.3 3.5-.8 0-.6.7-.1 1.6 1 .8 1 1.2 1.3.8.5-.5-1-.1-1.1 1.5-.6 1.2.3 2.1.2 2.1-.4 0-.7 1-.7 3 0 1.7.6 2.7 1.6 2.3 2.2-.3.6-.1.7.5.3.6-.4.8-1.4.5-2.4-.6-1.4-.4-1.5.8-.5 1.7 1.4 3 1.4 4.6.2.7-.7 1.3-.6 1.7 0 .4.7 1.5.7 3.1.1 1.5-.6 2.7-.6 3 0 .3.6 1.5.6 3 0 1.7-.7 2.8-.5 3.7.4 1.1 1.1 1.6 1 2.7-.1.8-.8 1.6-1.1 2-.6.3.5 2.5.9 4.7.8 2.6 0 4 .4 3.8 1-.4.9 2.2 1.5 8.4 1.8.6 0 1.2.6 1.2 1.4 0 1.1 2.8 1.9 5.4 1.4.5-.1.6.5.3 1.4-.5 1 0 1.5 1.4 1.5 1.1 0 2.2.7 2.6 1.6.3.8 1.2 1.3 1.9 1 1.9-.7 3 1.4 1.3 2.6-1.2.7-1.1.9.1.7 3.1-.3 4.1.1 3.4 1.3-.5.8-.2.8 1-.1.9-.8 1.6-1 1.5-.5-.3 1.9.3 4.9.8 3.6.8-2.1 2.3-.3 2.3 2.9 0 1.8.4 2.8 1 2.4.6-.3 1.5.6 2 2s1.4 2.3 2 2c.6-.4 1 .7 1 2.5s.4 2.9 1 2.5c.9-.6 1.4.8 1.1 2.7 0 .5.3.8.8.8.6 0 .6 1.2.1 3-.6 2-.5 3 .2 3 .5 0 .7.7.4 1.6-.3.9-.2 1.2.5.9.6-.4.8-1.4.4-2.4-.5-1.3-.4-1.4.7-.3 1 1 1 1.6 0 3.3-.8 1.2-1.1 2.4-.8 2.7.3.3.7-.1.7-.9.1-.8.4-.1.8 1.6.7 2.8-.6 6.8-1.9 6-.3-.2-.6.5-.6 1.5 0 1.1.5 1.6 1.5 1.2.9-.3 1.2-.1.8.5-.4.6-.2 1.3.5 1.5.7.3.5.7-.6 1.1-1.2.5-1.5.3-1-.6.4-.7.3-.9-.2-.4s-.9 1.2-.9 1.5c0 .4-.4 1.2-.8 1.9-.4.6-.3 1.4.3 1.8.7.4.7 1.2 0 2.5s-.6 2 .3 2.3c.6.3.2.6-1 .6-1.9.1-2.3.7-2.3 3.1 0 3-1.4 4.1-2.4 1.7-.3-.6-.3 0-.1 1.5.2 1.9-.2 3.2-1.6 4.2-1.1.7-2.1 2.3-2.2 3.4 0 1.1-.4 1.9-.8 1.6-.4-.2-1.4.5-2.2 1.6-.8 1.2-1.8 2-2.3 1.9-2.1-.4-2.5.2-1.3 1.8 1.3 1.5 1.2 1.6-.8 1.1-1.3-.4-2.3-.2-2.3.3s-.7.9-1.6.9c-.8 0-1.2.4-.9 1 .6.9-1 1.4-4.2 1.3-.6 0-1.4.5-1.7 1.3-.3.9.1 1.1 1.2.8 1.2-.4 1.3-.3.4.3-.7.5-2.8.9-4.7.8-1.9-.1-3.2.2-2.9.6.3.5-.4.9-1.6.9-1.2 0-1.9.4-1.6.8.3.5-2.6.8-6.3.7l-6.8-.2.2 2.9c.1 1.6-.2 3.1-.7 3.4-.5.3-.4 1.2.2 1.9.8.9.8 1.5 0 2-.6.3-.7 1.2-.3 1.8 1 1.6 1 3.7.1 6.4-.4 1.3-.3 2.3.4 2.5.8.3.7 1.1-.2 2.7-.6 1.3-.7 2.1-.2 1.7 1.2-.7 1 3.2-.1 5.1-.4.6-.3 1.5.3 1.8.8.5.8 1.1 0 2-.6.8-.7 1.6-.2 1.9.9.6.7 6-.3 7.6-.3.5 0 1 .6 1.2.9.3.9 1-.1 2.7-.6 1.3-.7 2.1-.2 1.7 1.2-.7 1 3.2-.1 5.1-.4.6-.3 1.4.3 1.8.5.3 1 1.1 1 1.6 0 .6-.5.7-1 .4-1.3-.8-.9 1.7.4 2.7.6.4.4 1.3-.3 2.2-1.1 1.3-1.1 1.6 0 1.6s1.1.2-.1 1c-.8.5-1 1-.4 1s1 1.1.8 2.5l-.2 2.6 9.4-.2c8.5-.1 11.5-.9 8.2-2.2-.7-.3.1-.5 1.7-.5 12.3.1 13.3-.1 12.9-2.5-.4-2-.4-2 .7.3 1 2.2 1.3 2.2 1.6.7.3-1.1 1.1-1.6 1.9-1.3.7.3 1.6.2 1.8-.3.3-.4 1.9-.7 3.5-.6 2.6.2 2.9 0 1.8-1.4-.9-1.2-.9-1.3.1-.7.6.4 1.2.3 1.2-.1 0-.5 1.2-.9 2.8-.9 1.8.1 2.6-.4 2.4-1.3-.3-1.2 0-1.2 1.2-.2 1.1.9 1.6.9 2.2 0 .5-.8.3-.9-.6-.4-.9.5-1.1.4-.6-.4.4-.6 1.3-1.1 1.9-1 2.7.3 3.8-.2 3.1-1.4-.5-.8-.2-.7.9.2 1.5 1.2 1.7 1.2 1.1-.2-.4-1.2-.1-1.5 1.6-1.2 1.7.3 2 0 1.6-1.2-.5-1.2-.1-1.4 1.4-1 1.3.3 1.8.1 1.3-.6-.4-.7 0-.8 1.1-.4 1.3.5 1.9.1 2.3-1.3.4-1.4 1.4-2 3.7-2.1 1.7-.1 2.3-.3 1.4-.6-2.2-.6-2.4-2.3-.3-2.3.9 0 1.8-.6 2.1-1.4.3-.8 1.4-1.3 2.5-1.1 1.1.2 1.7.1 1.5-.4-.3-.4-.1-1.3.5-2.1.6-1.1.9-1.1.9-.2 0 .7 1.4-.1 3-1.8 1.8-1.9 3.5-2.8 4.3-2.4.7.5.7.1-.2-1-1.3-1.5-1.2-1.8.7-2.3 1.2-.3 2.2-1.1 2.2-1.9 0-.7.5-1.6 1.2-2 .7-.5.8-.3.3.6-.5.9-.4 1.1.4.6.6-.4.9-1.1.6-1.6-.3-.5-.1-1.1.5-1.5.6-.4.8-1.1.5-1.6-.3-.5.1-.6.9-.3 1.5.6 2.2-1.1 1.7-3.9-.1-.5.3-.6.8-.3.5.4 1.2-.3 1.6-1.4.3-1.1.9-1.9 1.3-1.9 2.6.4 3.4-.2 2.2-1.6-.9-1.1-.9-1.5-.1-1.5.7 0 1-.4.6-.9-.3-.5 0-1.3.6-1.7.7-.4.9-.3.5.4-.3.6-.1 1.4.6 1.8.7.4 1 .4.6 0-1.1-1.2 1.3-6.7 2.5-5.9.7.3.9.3.5-.2-.4-.4.4-2.8 1.8-5.2 1.3-2.4 2.2-4.8 1.9-5.3-.8-1.4.7-4.2 2-3.6.7.2 1.2-.4 1.2-1.7.1-5.1.3-5.8 1.6-5.1.9.6.9.4-.1-.8-1-1.3-1-1.8-.1-2.4.8-.5 1-.3.4.7-.5.8-.4 1.1.1.6.5-.5 1-2.7 1-5 .3-6.7.3-6.9 1.8-6.4 1 .4 1.3-.6 1.2-4.1-.1-2.6.2-5.2.7-5.9.4-.6.4-1.4-.1-1.7-.9-.5-.7-6.3.3-10.3.3-1.2 0-2.5-.5-2.8-.7-.5-.8-1.1-.1-1.9.6-.7.6-1.7.1-2.6-.5-.8-.5-2.1 0-3 .5-.9.5-2.2 0-3-.5-.9-.5-1.9.1-2.6.7-.8.6-1.4-.1-1.9-.8-.5-.8-1.1.1-2.1.9-1.1.9-1.4 0-1.4-.7 0-.9-.5-.5-1.1.3-.6 0-1.5-.7-2-.8-.5-.9-.9-.3-.9 1.7 0 .9-4.5-.9-4.8-1.3-.3-1.5-1.3-1.2-5.3.2-2.9 0-4.9-.6-4.9s-.7.4-.4 1c.3.6.1 1-.4 1-1.5 0-1.4-1.3.2-2.9.8-1 .8-1.2 0-.7-.6.3-1.4.2-1.8-.4-.3-.5 0-1 .7-1 .9 0 .9-.3.2-.8-.6-.4-1-1.7-.9-3 .1-1.5-.3-2.1-1.2-1.8-.8.3-1.3-.2-1.3-1.5s-.4-1.8-1.2-1.3c-.7.5-.8.3-.2-.7 1.1-1.8 1.4-3.9.6-3.8-2.2.3-3.3-.3-3.1-1.9.3-3.1-.1-4.2-1.5-4.2-.8 0-1.3-.8-1.2-1.7.3-1.9-1-3.6-3.4-4.6-1.2-.4-1.2-.6-.1-.6.9-.1.4-1-1.2-2.5-1.9-1.7-2.5-3-2-4.3.6-1.6.5-1.7-1.2-.3-1 .8-1.6 1-1.2.3.4-.6.3-1.4-.3-1.8-.6-.4-.8-1.1-.5-1.6.4-.5-.1-.9-1-.9s-1.4-.4-1.1-.9c.7-1.1-1.8-3.3-2.7-2.4-.4.3-.7-.1-.7-1 0-1-.6-1.7-1.4-1.7-.7 0-1.6-.9-1.9-2-.3-1.1-1.3-2-2.4-2-1.5 0-1.6-.2-.3-1 .9-.6 1-1 .3-1-.6 0-2.7-1.4-4.5-3-1.8-1.7-3.8-2.8-4.3-2.6-.6.2-1.2-.5-1.2-1.6-.3-2.8-1-3.3-2.8-1.8-1.3 1.1-1.6 1.1-1.3-.1.2-.8-.3-1.3-1-1.1-.6.1-1.1-.4-1-1 .2-.7-.7-1.4-1.9-1.6-1.5-.2-2-.8-1.6-1.9.5-1.2.2-1.5-1-1-1.1.4-1.7.1-1.7-.8 0-.8-.5-1.5-1.1-1.5-.5 0-.7.5-.3 1.1.4.7.1 1-.7.7-.8-.3-1.3-1.2-1.1-2 .1-1.1-.7-1.4-3.2-1.3-2.5.2-3.3-.2-2.9-1.2.5-1.1-2.7-1.9-5.9-1.4-.5 0-.8-.8-.8-1.9 0-1.1-.5-2-1.1-2-.5 0-.7.6-.3 1.2.5.9.2.8-.9-.1-1-.8-2-1.1-2.3-.8-.4.3-1.5-.2-2.5-1.2-1.2-1.1-3.3-1.7-6.4-1.6-2.5.1-4.8-.2-5.1-.7-.3-.4-1-.8-1.5-.8-.6 0-.8.4-.5.8.3.5-.1.9-.8.9-.8 0-1.1-.8-.8-2.1l.5-2.1-2.4 2c-1.3 1.1-1.8 1.3-1.1.4 1.1-1.4-.5-1.6-16.8-1.5-9.9.1-18-.3-18-.7 0-.5-.5-.5-1.2-.1-1.6 1-14.8 1.1-14.8.1 0-.5-.5-.5-1.2-.1-1.6 1-14.8 1.1-14.8.1 0-.5-.5-.5-1.2-.1-1.6 1-14.8 1.1-14.8.1 0-.5-.5-.5-1-.2-1.8 1.1-8 1.4-7.4.3.4-.6 0-.7-1.2-.1-2.1 1-17.3.9-19.9-.1-.9-.3-1.4-.2-1.1.2.6 1-2.5.9-4.2-.2-.6-.4-1.2-.3-1.2.2 0 1.3-3.3 1-4.2-.3-.5-.6-.8-.5-.8.2 0 1.8-1.5 1.6-3.4-.3-1.5-1.4-1.6-1.4-1.6.3-.1 1.7-.1 1.7-1.4 0-.8-1-1.7-1.8-2-1.8-3 .4-4.6-.1-4-1.1.5-.7.3-.8-.7-.2-2 1.2-3.9 1.4-3.9.3 0-.5-.5-.9-1.1-.9-.5 0-.7.5-.3 1.2.5.7.3.8-.5.4-.7-.5-1-1.4-.7-2.1.3-.9-.3-1.2-2.1-1-1.8.2-2.7-.3-3-1.6-.3-1.1-.9-1.9-1.4-1.9-.5 0-.6.8-.3 1.7.5 1.7.5 1.7-.6 0-.6-.9-1.8-1.7-2.5-1.7-.8 0-1.5-.9-1.5-1.9 0-1.2-.7-1.8-1.7-1.7-1.1 0-1.7-.6-1.7-1.6.1-1.4-.2-1.6-1.8-.7-1.5.8-1.9.8-1.4 0 .8-1.3-1.8-5.4-2.7-4.4-.7.6-1.1-1.3-.7-3.2.1-.6-.1-.7-.5-.3-.4.4-1.4.1-2.1-.7-1.7-1.6-1.9-2.9-.3-2 .6.4.5-.2-.3-1.4-.7-1.2-1.6-2.1-2-2.1-.5 0-.8-.7-.8-1.6 0-.9-.5-1.2-1.2-.8-.9.5-.8.2.1-.9.8-1 1.1-2 .7-2.4-.3-.3-.6-.1-.6.6s-.5.9-1 .6c-.8-.5-.7-1.2.2-2.3 1.1-1.3 1.1-1.4-.1-.7-1.1.6-1.3.1-.9-2.2.3-2.1-.1-3.4-1.2-4.1-.9-.5-1.7-1.7-1.7-2.6 0-.8.4-1.3.9-1 .5.3.6.9.3 1.4-.3.5-.1 1.1.4 1.5.6.3.8-.6.5-2.1-.3-1.8-.1-2.3.7-1.8.8.4.9.3.5-.4-.4-.6-1.2-.9-1.9-.6-.8.3-1.3-.7-1.3-2.6-.1-2 .3-3 1-2.7.7.3 1.2-1 1.3-3.4.1-2.4-.3-3.7-1-3.5-.7.1-.9.1-.4-.1.4-.3.5-.9.1-1.4-.3-.5 0-.8.8-.7.8.2 1.2-.6 1-2.3-.2-1.4.4-3.1 1.2-3.9.9-.7 1.6-2.8 1.6-4.6 0-2.7.4-3.4 1.9-3.4 1.4 0 1.9-.6 1.6-1.8-.2-1 .1-2.5.7-3.3.8-1.1.9-1 .4.4-.3 1.1-.2 1.6.4 1.2.6-.3 1-1.1 1-1.6 0-.6 1-2 2.3-3.2 1.3-1.2 1.5-1.6.5-.8s-2 1.2-2.3.9c-.7-.6 4.7-4.3 5.8-4 .4.1.7-.3.7-.9 0-.5.4-.8.9-.4.5.3 1.3 0 1.7-.6.4-.7.3-.9-.4-.5-.6.3-1.3.3-1.6-.2-.3-.5.1-.9.9-1 .8-.1 2.2-.3 3-.4.9-.1 1.4-.7 1-1.6-.4-1 0-1.2 1-.8.9.3 1.8-.1 2.1-.8.3-.8 1.3-1.7 2.1-2 1.4-.6 1.4-.4.2 1.1-1.2 1.6-1.1 1.6.8-.1 1.2-1 2.9-1.6 3.8-1.2.9.3 2-.2 2.7-1.4 1.4-2.2 3.4-2.8 2.2-.8-.6 1-.4 1 .7 0 .7-.6 3.5-1.2 6.2-1.2 5.2 0 8.1-1.7 6.7-4-.5-.8-.4-2.2.1-3.1 1.1-2.1 1.2-3.2.2-2.6-.5.3-.8-.6-.8-1.9 0-1.3.4-2.4.8-2.4s.3-.9-.3-2-.7-2-.3-2c.7 0 .9-4.7.3-7.5-.6-2.8.1-5.6 1.3-5 .6.4.5.1-.3-.7-1.3-1.1-1.7-4.5-1-7.1.6-1.9.6-3.3-.1-4.7-.5-.9-.1-2.3.9-3.4.9-1.1 1.2-1.6.6-1.3-1.5.9-2.5-1.6-1.4-3.3.5-.7.4-2.4-.1-3.8-.8-2-.7-2.3.7-1.8 1.4.5 1.5.4.5-.8-.7-.8-1-2-.6-2.6.3-.5.1-1-.5-1s-.8-.5-.5-1c.4-.6 1.2-.7 1.8-.3.8.5.8.2-.1-.9-.7-.8-1-2.3-.6-3.2.4-.9.1-1.6-.6-1.6-1 0-1-.3 0-1.5 1.5-1.8 1.8-1.7-8.8-1.9-4.6 0-8.6.2-8.9.7zM111.5 365c-1 1.1-2.1 1.8-2.3 1.5-.3-.3.3-1.2 1.4-2 2.7-2 3-1.8.9.5zM93 385.4c0 .2-.8 1-1.7 1.7-1.6 1.3-1.7 1.2-.4-.4 1.3-1.6 2.1-2.1 2.1-1.3zm51 51c0 .3-.4.8-1 1.1-.5.3-1 .1-1-.4 0-.6.5-1.1 1-1.1.6 0 1 .2 1 .4zm-3.4 13.1c-.1.8-.5 1.7-.8 2.1-.5.4-.4-1.6.1-3.4.3-.9.9.1.7 1.3zm42.9 57.5c.3.6-.1.7-.9.4-1.8-.7-2.1-1.4-.7-1.4.6 0 1.3.4 1.6 1zm149.5 5.5c1.1 1.3 1 1.4-.4.9-.9-.3-1.6-1-1.6-1.5 0-1.3.6-1.1 2 .6zm-225.6 30.1c.3.8.2 1.2-.4.9-.6-.3-1-1-1-1.6 0-1.4.7-1.1 1.4.7zM415 602.4c0 .2-.7.7-1.6 1-.8.3-1.2.2-.9-.4.6-1 2.5-1.4 2.5-.6zM348 632c0 .5-.5 1-1.1 1-.5 0-.7-.5-.4-1 .3-.6.8-1 1.1-1 .2 0 .4.4.4 1zm31 84c0 .5-.5 1-1.1 1-.5 0-.7-.5-.4-1 .3-.6.8-1 1.1-1 .2 0 .4.4.4 1zM606.9 334.2c-1 .4-1.9 1-1.9 1.3 0 .4.5.3 1.2-.1s.8-.3.4.4-1.7 1.2-2.9 1.2c-2 0-2 0-.1 1.5 1.6 1.3 1.6 1.4.2.9-1-.3-1.8-.1-1.8.5s-.7 1.1-1.6 1.1c-.8 0-1.3.3-1.1.7.3.5-.1 1.3-.8 2-1.1 1-1.5 1-1.8 0-.3-.7-.6-.2-.6 1-.1 1.3-.7 2.2-1.3 2-.7-.1-1.2.4-1 1.2.2.9-.4 1.2-1.7.8-1.8-.4-1.9-.2-1 1.4.7 1.5.7 1.9-.3 1.7-.7-.2-1.2.3-1 1.1.3 1.2.1 1.2-1.4 0-1-.8-1.5-.9-1.1-.2.4.6.3 1.4-.3 1.8-.6.4-.7 1.2-.4 1.8.5.8.3.8-.7-.1-.7-.6-1.8-1.2-2.3-1.2-.6 0-.5.4.3.9 1.2.8 1.2 1.2.2 2.5-.8.9-2 1.6-2.8 1.6-.8 0-1.1.5-.7 1.2.5.8.2.9-1.1.4-1.5-.5-1.6-.4-.5.9s1.1 1.6-.1 1.3c-.8-.2-1.3.2-1.2.9.2.7-.4 1-1.2.7-.9-.4-1.8.1-2.1 1.1-.4.9-1.3 1.4-2 1.1-.8-.3-1.1 0-.7 1 .4 1-.2 1.7-1.6 2.1-1.8.5-1.9.8-.9 2.2.7.9.9 1.3.4.9-1.2-1-4.8 1.1-4.1 2.3.4.5-.1.9-1 .9-1.1 0-1.5.5-1.2 1.4.4 1 .1 1.3-.7 1-.7-.3-1.9.3-2.7 1.2-1.2 1.6-1.2 1.7.4 1.1 1.2-.4 1.6-.3 1.1.4-.3.6-1.5.9-2.5.6-1-.3-2.3.1-3 .9-.6.8-.8 1.4-.3 1.4s-.2.7-1.4 1.6c-1.2.8-1.9 2-1.6 2.6.5.8.1.9-1 .5-.9-.4-1.5-.3-1.2.2.3.5-.1 1.2-1 1.5-.9.4-1.4.9-1 1.3 1 1-2.5 4.3-6.1 5.8-2.5 1.1-3.1 1.8-2.6 3.1.5 1.4.3 1.6-1.1 1.1-1.4-.5-1.7-.3-1.2.8.5 1.3 0 1.6-2.4 1.8-.8 0-4.1 3.7-3.3 3.7.4 0-.8 1.3-2.5 2.8-1.8 1.6-2.9 3.3-2.4 3.8.4.4 0 .3-.9-.4-1.4-1.1-1.7-1-1.5.5 0 1.2-.5 1.7-1.6 1.5-1.2-.2-1.6.3-1.3 1.7.2 1.2-.1 2-.7 1.8-.6-.1-1.7.9-2.5 2.3-.7 1.4-1.3 1.9-1.3 1.2s-.4-1.1-.9-.7c-.6.3-.8 1.5-.6 2.6.4 1.7.2 1.9-1 .9-.8-.7-1.5-.9-1.6-.4-.3 4-1.9 7.2-1.9 4 0-.9-.5-1.4-1-1.1-.6.4-.8 1-.5 1.4.2.5-.3 1.7-1.1 2.7-.9 1-1.3 1.3-.9.6.3-.6.1-1.2-.4-1.2-.6 0-1.1.7-1.1 1.5s-.8 1.5-1.7 1.5c-1.4 0-1.5.2-.5.9 1 .6.6 1.1-1.7 1.9-1.7.6-3 1.7-2.9 2.4.2.7-.3 1.2-.9 1.1-.7-.2-1.3.4-1.3 1.2 0 .8-.7 1.5-1.5 1.5s-1.5.9-1.5 1.9c0 1.1-.4 2.3-1 2.6-.6.4-.7-.1-.3-1.2.4-1.4.3-1.5-.6-.7-.7.6-1.3 2.1-1.4 3.3-.1 2.3-1.3 2.8-2 .8-.3-.7-.6-.5-.6.5-.1 1-.6 1.8-1.2 1.8-.5 0-.7.6-.3 1.2.5.8 0 .7-1.1-.2-1.7-1.4-1.8-1.3-1.3.7.4 1.6.1 2.4-1.3 2.8-1 .4-1.9 1.1-1.9 1.6s-.7.9-1.6.9c-.8 0-1.3.4-1 .9.3.5-.1 1.4-.9 2.1-.8.7-1.5.9-1.6.4 0-.5-.7.4-1.4 2.1-.8 1.6-1.4 2.4-1.5 1.7 0-.7-.4-1.1-1-.7-.5.3-.7 1.2-.4 2 .4 1 0 1.3-1.6 1-1.8-.4-2-.2-.9 1.1.7.8.8 1.4.3 1.3-2.2-.4-3.3.2-3.9 2.1-.4 1.2-1.1 1.7-1.8 1.3-.7-.4-.6.1.2 1.1.8.9 1 1.6.5 1.5-1.7-.5-5.4 1.2-4.8 2.2.3.6-.4 1.3-1.5 1.6-1.8.5-1.9.8-.9 2.1 1 1.2 1 1.4.1.8-.7-.4-1.3-.3-1.3.3 0 .5-.9.8-2.1.6-1.7-.4-1.9-.2-.9 1 1 1.2.9 1.5-.4 1.5-.9 0-1.6.4-1.6 1 0 .5-1.2 1.6-2.7 2.4-1.6.8-2.4 1.5-1.8 1.6.5 0-.1.7-1.3 1.6-1.2.8-1.9 2-1.6 2.6.4.6.2.8-.3.5-.6-.4-1.3 0-1.7.8-.3.8-1.3 1.5-2.2 1.5-1 0-1.4.5-1 1.6.3.8.2 1.2-.4.9-.6-.3-1-.1-1 .5s-.4.8-1 .5c-.9-.6-1.4.8-1.1 2.8.1.4-.6.7-1.5.5-.9-.2-1.9.3-2.2 1.1-.3.9 0 1.1.9.6.8-.5 1.1-.4.6.1-.5.5-1.3 1-1.8 1-.5.1-1.4.2-2 .3-.5 0-.8.5-.5 1 .3.5-.2 1.5-1.1 2.2-1.4 1.2-1.6 1.2-.8 0 .5-1 .4-1.2-.3-.7-.7.4-1.2 1.4-1.2 2.2 0 .8-.7 1.4-1.5 1.4-1.8 0-2 1.7-.3 2.2.7.3.2.7-1 1-1.4.4-2 .2-1.5-.4.3-.7.1-.8-.5-.4-.7.4-1.2 1.4-1.2 2.2 0 .8-.7 1.4-1.5 1.4s-1.5.7-1.5 1.5-.7 1.5-1.5 1.5-1.5.7-1.5 1.5c0 .9-.9 1.5-2.2 1.5-1.8 0-2 .2-.9.9 1.2.8 1 1.2-1.2 2.2-2.1 1-2.4 1.5-1.6 2.6.9 1.1.8 1.2-.5.7-.9-.3-1.6-.1-1.6.6 0 .6-.4.8-1 .5-.5-.3-1 .1-1 1s-.4 1.3-1 1c-.5-.3-1-.3-1.1.2 0 .4-.3 2-.5 3.5-.3 2.1-.1 2.8 1.1 2.8.8 0 1.5.6 1.5 1.4 0 .8.9 1.8 2 2.1 1.1.4 1.8 1 1.5 1.5-.3.4.5 1 1.6 1.3 1.2.3 1.8 1 1.4 1.6-.6 1 .8 1.6 2.9 1.2.5-.1.3.6-.4 1.6-.8 1-1.1 1.5-.6 1.1 1.3-1.1 4.6 1 4.6 2.8 0 1 .6 1.4 1.5 1 1-.4 1.5.1 1.5 1.5 0 1.2.4 1.7 1.1 1.4.6-.4 1.3.2 1.6 1.4.3 1.1 1 1.8 1.5 1.5.5-.3 1.2.3 1.5 1.5.3 1.1 1 1.8 1.5 1.5.5-.3 1.2.3 1.5 1.5.3 1.2.9 2.1 1.4 2.1 1.2 0 8.9 8 8.9 9.1 0 .5.3.8.8.7 1.1-.4 5.2 3.5 4.6 4.4-.5.7 1 1.2 2.9.9.4 0 .7.9.7 2.1 0 1.2.3 1.8.7 1.5.3-.4 1.3.2 2 1.3.8 1.1 1.9 1.8 2.4 1.5.5-.4.9.1.9 1 0 .8.7 1.8 1.5 2.1.8.4 1.5 1.3 1.5 2.1 0 .9.6 1.3 1.5.9 1-.4 1.5.1 1.5 1.5 0 1.1.5 1.7 1 1.4.6-.3 1-.1 1 .5s.5.8 1 .5c.6-.4 1-.3.9.2-.4 2.3.2 3.2 1.8 2.6.9-.4 1.4-.2 1 .3-.3.6.3 1.7 1.4 2.4 1 .8 1.9 2 1.9 2.6 0 .7.8 1 1.9.7 1.4-.3 1.9 0 1.8 1.4-.1 1 .4 1.7 1.1 1.5.6-.1 1.2.5 1.2 1.3s.7 1.5 1.5 1.5 1.4.3 1.4.7c-.3 1.7.1 3.3.9 3.2 2-.3 3.1.2 2.6 1.5-.3.9.1 1.3 1.3 1.3 1.2-.2 1.7.4 1.5 1.5-.2 1.2.4 1.8 1.7 1.8 1.5 0 1.9.5 1.4 1.7s-.2 1.5 1 1c1.5-.6 2.2.3 1.8 2.5 0 .5.9.8 2.1.8 1.2 0 1.9.3 1.5.6-.7.7 3.8 5.4 5.2 5.4.6 0 .7.7.4 1.7-.4 1.1-.3 1.4.5.9.7-.4 1.2-.2 1.2.4 0 .6.4.9.9.6.5-.3 1.1.4 1.4 1.5.4 1.4 1 1.8 1.8 1.3.9-.5 1.1-.2.6.8-.4 1.1.2 1.8 1.9 2.2 1.4.4 2.2 1.1 1.9 1.6-.3.5.4 1.2 1.6 1.5 1.4.5 1.8 1 1 1.4-.7.5-.2 1.2 1.4 1.9 1.4.7 2.3 1.7 2 2.2-.3.5 0 .7.9.4.9-.3 1.7.2 2.1 1.5.3 1.2 1.3 2.1 2 2.1.9 0 1.2.6.8 1.7-.5 1.2-.2 1.5.8 1.1 1.8-.7 4.4 1.8 2.6 2.5-.7.3-.4.6.6.6.9.1 1.7.5 1.7 1s.9 1.3 2 1.6c1.1.3 2 1.2 2 1.9 0 1.5 4.6 5.7 5.4 4.9.3-.4.6.3.6 1.5 0 1.5.5 2 2 1.7 1.1-.2 1.9-.1 1.9.3-.3 2 .3 3.2 1.6 3.2.8 0 1.2.6.9 1.5-.4 1 0 1.3 1.4 1 1.2-.2 2.7.4 3.4 1.3.8 1 .9 1.3.1.9-.6-.4-1.4-.3-1.8.3-.3.5.3 1 1.5 1s1.9.3 1.7.7c-.7 1.1 1.9 3.3 2.9 2.5.4-.4.4.2 0 1.2-.6 1.7-.5 1.7 1.1.5.9-.8 1.4-.9 1-.3-.4.7.2 2.3 1.4 3.5 1.1 1.3 1.7 1.7 1.3.9-.7-1.3-.6-1.3 1-.1 1.3 1.1 1.4 1.6.4 2.3-.9.7-.6.8.9.5 1.3-.3 2.8.2 3.5 1.1 1 1.2 1 1.4.1.8-.8-.4-1.3-.1-1.3.8 0 1 .6 1.3 1.5 1 .9-.4 1.5 0 1.5 1 0 .9.6 1.6 1.4 1.6.8 0 1.8 1 2.1 2.1.6 1.7.9 1.9 1.6.8.7-1.1.9-1 .9.4 0 1.2.4 1.6 1.3 1.1.8-.6.8-.3-.1.9-1.2 1.4-1.1 1.6.6 1.2 1.6-.3 2 .1 1.7 1.7-.4 1.7-.2 1.8 1.3.7.9-.7 1.4-1 1-.5-.8 1 2.3 4.7 3.4 4 .4-.3.8.4.8 1.5 0 1.2.7 2.1 1.6 2.1.9 0 1.2.5.8 1.2-.5.7 0 .9 1.4.6 1.2-.3 2.1-.3 2 .1-.3 2.4.5 3.9 2.2 4.4 1.3.3 1.8 1.1 1.4 2-.4 1.1.2 1.4 2.2 1.1 1.9-.2 2.3.1 1.6.8-.8.8-.7 1.5.3 2.4 1.7 1.7 2.9 1.8 1.9.2-.4-.7-.3-.8.5-.4.6.4.9 1.2.6 1.7-.4.5-.1.9.4.9.6 0 1.1.6 1.1 1.4 0 .8.5 1.8 1.2 2.2.6.4.8.3.4-.4-.3-.6-.1-1.4.5-1.8.7-.4.9-.3.5.4-.3.6-.2 1.3.3 1.7.6.3.7 1.3.4 2.1-.5 1.4-.3 1.5 1.4.6 1.8-1 2-.8 1.9 1.1l-.1 2.2 50.6.2c43.3.2 50.6 0 50.6-1.2 0-.8-.4-1.2-.9-.9-.8.5-1.2-1.1-.8-3.1.1-.6-.2-.7-.6-.3-1.1 1.1-3.5-1.2-2.7-2.6.4-.6-.2-.4-1.2.4-1.1.9-1.6 1-1.1.3.4-.7 0-2.3-.8-3.5-.9-1.2-1.6-1.7-1.6-1 0 .6-.4 1.2-1 1.2-.5 0-.9-.3-.9-.8.4-2.3-.3-4.2-1.3-3.9-.7.1-1.2-.4-1-1.1.1-.8-.2-1.1-.8-.7-.5.3-1 .1-1-.5s-.4-.8-1-.5c-.5.3-1-.3-1-1.5s-.4-1.9-.9-1.6c-.5.3-1.4 0-2-.8-.9-1.1-.9-1.5.1-2 .7-.3.3-.3-.9 0-1.7.4-2.2 0-2.5-1.8-.2-1.6-.9-2.2-2.2-2-1.3.3-1.7-.1-1.3-1.2.4-.9.3-1.5-.1-1.3-.4.1-.8-.2-.9-.7-.2-1.3-3.1-2.8-4.2-2.2-.4.3-.8-.4-.7-1.7.1-1.3-.4-2.1-1.1-2-1.2.3-1.8-1-1.4-3.1.1-.5-.4-.4-1.3.3-1.1.9-1.6.9-2.2 0-.5-.8-.3-1 .7-.4.8.4.2-.4-1.3-1.9-1.5-1.4-3.2-2.6-3.8-2.6-.6 0-.8-.5-.5-1 .3-.5.1-1-.5-1-.7 0-.9-.7-.6-1.7.4-1 .4-1.4 0-1.1-1 1-4.6-1.1-3.9-2.3.4-.5.3-.9-.2-.8-2.3.4-3.2-.2-2.6-1.9.3-.9.2-1.4-.2-1-.5.5-1.4-.1-2.2-1.2-.8-1.1-2-2-2.8-2-.9 0-1.2-.6-.9-1.5.5-1.1.2-1.3-1-.9s-1.6 0-1.6-1.5c0-1.2-.6-2.1-1.4-2.1-.8 0-1.8-.9-2.1-2.1-.6-1.7-.9-1.8-2.3-.7-1 .8-1.3.9-.9.1.4-.6.3-1.4-.3-1.8-.6-.4-.8-1.1-.4-1.6.3-.5 0-.8-.8-.7-.7.2-1.2-.2-1.1-.9.2-.6-.6-1.5-1.7-1.8-1.1-.4-1.8-1-1.5-1.5.3-.4-.2-1.1-1.1-1.4-1-.4-1.3-.2-.8.6.4.7.3.8-.4.4s-1.2-1.6-1.2-2.7c0-1.2-.7-1.9-2-1.9s-1.8-.5-1.3-1.5c.3-1 0-1.5-.8-1.3-.8.2-1.3-.2-1.2-.9.2-.8-.4-1-1.4-.6-1.1.4-1.4.3-.9-.5.4-.7.2-1.2-.3-1.2-.6 0-1.1-.7-1.1-1.6 0-1-.6-1.4-1.4-1.1-.9.4-1.7-.2-2.1-1.4-.6-1.8-1.8-2.4-3.9-2-.5.1-.3-.6.5-1.5.8-1 1-1.5.4-1.2-.5.3-1.6 0-2.3-.8-.7-.8-.9-1.4-.5-1.5.4 0-.2-.4-1.4-.9-1.3-.5-2.1-1.5-1.9-2.2.1-.7.1-1-.1-.6-.3.5-.9.8-1.4.8-.6 0-.7-.5-.4-1 .3-.6.1-1-.5-1-.7 0-.9-.7-.6-1.7.4-1 .4-1.4 0-1.1-1 1-4.6-1.1-3.9-2.3.4-.5.3-.9-.2-.8-1.7.3-3.3-.1-3.2-.9.4-2.5-.2-3.4-1.4-2.3-1.9 1.5-3 .1-1.4-1.7 1-1.3.9-1.5-.5-.9-1.2.4-1.8.2-1.8-.7 0-.8-.7-1.6-1.5-2-.8-.3-1.5-1.2-1.5-2.1 0-.8-.6-1.5-1.3-1.5-.7 0-1.8-.9-2.5-2-.7-1.2-1.7-1.8-2.3-1.5-.5.4-.9.3-.8-.2.3-2-.2-3.3-1.3-3.1-.7.2-1.2-.3-1-1 .1-.8-.2-1.1-.8-.7-.5.3-1 .1-1-.5s-.4-.8-1-.5c-.5.3-1-.3-1-1.4 0-1.5-.4-1.9-1.7-1.4-1.1.4-1.4.3-.9-.5.4-.7.2-1.2-.4-1.2-.6 0-.8-.5-.4-1.2.5-.8.2-.9-.9-.5-1.3.5-1.7.1-1.7-1.4s-.5-1.9-1.5-1.5c-1.4.5-1.7 0-1.4-2.1 0-.4-.9-1.1-2.1-1.5-1.2-.4-1.9-1.2-1.5-1.8.3-.6-.1-.7-1-.4-1 .4-1.5.2-1.3-.6.2-.8-.6-1.8-1.8-2.4-1.1-.6-2-1.8-1.9-2.7.2-.9-.3-1.6-1.1-1.6-.7 0-1 .5-.7 1 .3.6.1.7-.5.3-.7-.4-1.2-1.2-1.2-1.7 0-1.4-2.6-3.9-3.9-3.9-.6 0-1.3-1.1-1.7-2.5-.3-1.4-.9-2.3-1.3-2.1-1 .6-3.1-2.1-2.3-3 .4-.5-.2-.2-1.3.6s-1.7 1.1-1.3.6c1-1.2-1.1-4.8-2.3-4.1-.5.4-.9-.3-.9-1.3 0-1.3-.9-2.2-2.7-2.7-2.1-.5-2.4-.8-1.2-1.6 1.1-.7.9-.9-.8-.9-1.7 0-2.1-.4-1.6-1.8.6-1.4.4-1.5-.8-.5-1.2 1-1.5.8-1.6-.9-.2-2.3-2.2-4-3.6-3.1-.5.3-.6-.5-.2-1.8.7-2.4.7-2.4-.9-.4-.9 1.1-1.6 1.5-1.5 1 .3-2.4-.2-3.5-1.7-3.5-.8 0-1.2-.5-.9-1 .3-.6-.1-1-1-1s-1.3-.5-1-1c.3-.6-.1-1-1-1s-1.3-.5-.9-1.1c.4-.8-.1-.9-1.7-.5l-2.4.7 2.5-1.6c1.4-.8 1.8-1.5 1-1.4-2.8.3-4.1-.1-3.6-1 .8-1.2-1.8-3.2-3.5-2.9-.8.2-1.3-.3-1.1-1 .1-.6-.3-1.2-.9-1.2-.8 0-.8-.4 0-1.4 1-1.2.8-1.3-.8-.9-1.4.3-2.1.1-2.1-.9 0-1.4-2.1-3.5-5.6-5.7-1.8-1.2-1.7-1.2.4-.8 1.2.3 2.2.1 2.2-.4s-.6-.9-1.2-.9c-.7-.1 0-.6 1.5-1.3 1.6-.7 2.8-1.5 2.8-2-.2-2.1 0-2.7 1-2.7.5 0 .7.5.3 1.2-.4.7-.3.8.4.4.6-.4.8-1.4.5-2.3-.4-.9-.2-1.4.3-1 .6.3 1.7-.3 2.4-1.4.8-1 2.1-1.9 3-2 1 0 1.1-.2.3-.6-1.6-.6 3.8-5.3 6.2-5.3.9 0 1.3-.5 1-1-.4-.6-1.1-.7-1.7-.4-.7.4-.8.2-.4-.4.4-.7 1.6-1.2 2.7-1.2 1 0 1.9-.4 1.9-1 0-.5-.8-.7-1.7-.4-1.5.5-1.6.4-.3-.5.8-.6 2.4-1.1 3.5-1.1 1.7 0 1.7-.2.5-1-1.3-.8-1.2-1 .4-1 1.2 0 1.6-.5 1.3-1.5-.4-.8-.1-1.7.5-2.1.6-.4.8-.3.5.3-.4.6 0 1.3.8 1.7.8.3 1.4.2 1.4-.2-.1-.4-.1-1.6 0-2.7.1-1.7.3-1.8 1.1-.5.8 1.2 1 1 1-.9 0-1.6.4-2.1 1.4-1.8 1.4.6 3.3-2.7 2.8-4.6-.1-.5.2-.6.8-.2.6.3.7 1.2.3 1.8-.4.7.1.6 1.1-.2 1.2-1 1.3-1.6.6-2.1-.7-.5-.3-.9 1-1.3 1.2-.3 1.9-1 1.5-1.6-.3-.7.2-1.1 1.4-1.1s2.1-.7 2.1-1.5.7-1.5 1.7-1.5c.9 0 1.4-.3 1-.6-.9-.9 2.1-3.6 3.3-2.9.6.3.7-.1.4-.9-.4-1.1 0-1.6 1.2-1.6 1.4 0 1.6-.2.6-.9-1-.6-.8-1 .8-1.4 1.2-.3 1.9-1 1.5-1.6-.4-.7 0-.8 1.1-.4s1.5.3 1-.5c-.3-.6.3-1.3 1.4-1.7 1.1-.3 1.9-1.2 1.7-1.8-.1-.7.5-1.1 1.5-1.1 1.2.1 1.5-.5 1.3-2.5-.2-1.4-.2-2 .1-1.4.8 1.9 2.2 1.6 2.9-.7.3-1.1 1.4-2 2.3-2 1.3 0 1.4-.2.4-.9-1.1-.6-1-1 .5-1.6 1-.5 2.5-.7 3.3-.6 1.2.1 1.3 0 .1-.8-1.1-.7-1-1.1.6-1.9 1-.6 2.5-2.1 3.2-3.5.7-1.3 2.2-2.8 3.4-3.3 1.2-.6 1.5-.8.7-.6-1.3.3-1.3.2 0-1 .8-.7 2.1-2 2.9-2.8 1.2-1.3 1.3-1.3.8.2-.4 1-.2 1.8.3 1.8.6 0 1-.9 1-2.1 0-1.1.4-1.8.9-1.5.5.4 1.5-.7 2.2-2.3.9-2 1.6-2.6 2.1-1.8s.8.6.8-.6c0-.9.7-1.7 1.5-1.7.9 0 1.2-.6.9-1.5-.4-1.1.1-1.5 1.7-1.5 1.9 0 2.1-.2.9-1-1.3-.8-1.2-1 .4-1 1.3 0 1.6-.5 1.2-1.6-.5-1.4-.4-1.5.9-.4 1.3 1 1.5.9 1.5-.8 0-1.5.5-2 1.9-1.7 1.4.3 1.8-.1 1.4-1.1-.3-.8 0-1.4.6-1.4s2-.9 3.1-2 1.6-2 1.1-2-1.4.7-2.1 1.5c-.7.8-1.7 1.5-2.3 1.5-1.2 0 2.8-3.1 6.5-4.9 1.5-.8 2.5-1.8 2.2-2.3-.3-.4 0-.8.6-.8.7 0 .9-.7.6-1.6-.3-.8-.2-1.2.3-.9.5.3 1.3 0 1.6-.6.4-.5 1.3-.8 2.1-.5.8.3 1.1 0 .7-1-.3-.8.1-1.4 1-1.4.8 0 1.8-.7 2.1-1.6.3-.8.2-1.2-.3-.9-.5.3-1.3 0-1.7-.6-.4-.7-.3-1 .2-.7 1.4.9 5.6-1.1 4.9-2.2-.3-.5.3-1 1.4-1 1.9 0 2.6-1 2.2-3.3 0-.4.5-.6 1.1-.5.7.2 1.2-.2 1.1-.9-.1-.6.8-1 2.3-.8 2.4.2 2.4.2.7-1.8-1-1.1-1.2-1.7-.5-1.3.6.4 1.2.3 1.2-.3s.6-.8 1.4-.5c.8.3 1.7 0 2.2-.7.4-.8.3-1-.4-.5-.7.4-1.2.2-1.2-.3 0-.6 1.1-1.1 2.5-1.1 2.3 0 2.5-.2 1.4-2.1-.6-1.2-.7-1.9-.1-1.5 1.3.8 4.3-.4 3.7-1.4-.6-1 3.3-6 4.8-6 .6 0 .1.7-1.1 1.6-2.3 1.6-2.9 3.4-1.1 3.4.5 0 .8-.4.4-.9-.3-.6.4-1.5 1.5-2.1 1.1-.6 1.8-1.5 1.6-1.9-.3-.4.2-1.7 1-2.7.9-1 1.3-1.4 1-.7-.4.6-.1 1.5.5 1.9.8.4.9.3.5-.4s-.3-1.2.3-1.2.8-.7.4-1.6c-.5-1.3-.1-1.5 1.8-1 1.3.3 1.8.3 1.2 0-2-.9.3-4.5 2.4-3.7 1.1.4 1.4.3.9-.5-.6-1.1.5-1.6 2.6-1.3.4 0 .5-.6.2-1.4-.4-.8-.1-1.5.6-1.5.6 0 .8-.5.4-1.3-.5-.7 0-.6 1.1.3 1.2 1 1.6 1.1 1.1.2-.5-.8.1-2.2 1.7-3.6 1.4-1.3 2.3-2.7 1.9-3.2-.4-.4.1-.4 1.1-.1 1.3.5 1.7.1 1.8-2.1 0-2.4.1-2.5.9-.7.5 1.1.9 1.4.9.7.1-.7.5-1.1 1-.8.5.3.8-.2.7-1.2 0-.9.5-1.6 1.2-1.4.6.1 1.2-.5 1.2-1.3s.7-1.5 1.6-1.5c.8 0 1.2-.5.9-1-.3-.6-.1-1 .5-1s.9-.4.5-.9c-.3-.5 0-1.3.6-1.7.8-.5.9-.3.4.6-.5.8-.3 1.1.6.8.8-.3 1.3-1.2 1.1-2.1-.2-1.2.2-1.5 1.4-1 1.3.5 1.5.2.9-1.8-.3-1.3-.3-1.9.2-1.2.6.8 1.2.8 2.5-.1 1-.7 1.5-1.6 1.1-1.9-.6-.7 1.2-1.1 3-.8.5.1.6-.3.2-.9-.7-1.1 6.3-9 8-9 1.5 0 3.4-4.6 2.1-4.9-3.3-.6-97-.5-98.7.1zm-49.2 50.3c0 .8-.4 1.2-.9.9-.5-.3-.6-1-.3-1.5.9-1.3 1.2-1.1 1.2.6z"/><path d="M766.8 334.3c1.3 1.5 1.3 1.5-5.8 2-2.5.2-5.1-.1-5.8-.6-.9-.7-1.1-.5-.5.9.6 1.7.5 1.8-1.2.4s-1.8-1.3-1.3.2c.5 1.2.1 1.6-1.7 1.3-1.5-.1-2.2.2-1.8.8.4.6 0 .8-1 .4s-1.7-.1-1.7.6-.3.8-.8.2c-1.3-1.8-3.3-1.6-3 .2.2 1.4-.4 1.8-2.9 1.7-1.8 0-3.3.4-3.3.9s-.7.4-1.6-.3c-.8-.8-1.4-.9-1.3-.4.4 2.4-.2 3.6-1.7 3-.8-.3-1.3-.2-1 .3.7 1.1-4.2 3.3-5.5 2.5-.6-.3-1.3.3-1.6 1.4-.2 1.1-1.3 2.2-2.4 2.5-1.3.3-1.7.1-1.2-.6.4-.7-.1-.6-1.1.2-1.3 1.1-1.4 1.6-.4 2.3.9.7.4.8-1.4.5-1.5-.2-2.5 0-2.2.4.3.5 0 .9-.6.9s-.8.4-.5 1c.3.5-.1 1-.9 1-.9 0-1.6.7-1.6 1.6 0 .8-.4 1.2-1 .9-.5-.3-1-.1-1 .5s-.5.8-1.2.4c-.7-.5-.9-.2-.5.9s.2 1.4-.9 1c-.7-.3-1.4 0-1.4.7s-.7 1-1.5.6c-1.1-.4-1.5 0-1.3 1.1.2 1-.3 1.8-1 1.8-.8 0-2 .8-2.7 1.9-.8 1-1.8 1.5-2.3 1.2-.5-.3-.8.5-.7 1.9.3 1.9-.1 2.3-1.7 2-1.5-.3-1.7-.1-1 .8 1.4 1.7-1 5.1-2.6 3.5-.7-.7-1-.3-.8 1.6.2 1.7-.1 2.6-.8 2.3-1.5-.6-3.3 1.5-3 3.5.1 1.1-.3 1.5-1.2 1.1-.8-.3-1.4-.2-1.3.3.4 2.4-.2 5.4-1.2 5.4-.5 0-.7-.6-.3-1.3.6-.9.3-.8-.8.1-.9.8-1.4 2-1.1 2.8.3.9-.1 1.4-1.3 1.4-1.6 0-1.7.2-.4 1 1.1.7 1.1 1 .2 1-.7 0-1.1.4-.7.9.3.5.1 1.2-.5 1.6-.6.4-.8 1-.6 1.4.3.4 0 1.3-.6 2.1-.8 1.2-.9 1.2-.4-.3.3-.9.1-1.7-.4-1.7-.9 0-1.4 3.1-1.2 7.5 0 1.1-.2 1.4-.4.7-.9-2-2.4-.3-2.4 2.9 0 1.8-.5 2.8-1.2 2.6-.7-.1-1.4.5-1.4 1.3-.1.8-.3 1.7-.4 2-.8 2.2-.7 3.9.3 3.3.9-.5.9-.3.1.8-.6.8-1.1 2.6-1 4.1.2 2.6-.5 3.2-2.9 2.9-.5-.1-.1.6.9 1.4 1.5 1.1 1.6 1.5.5 1.5-1 0-1.4 1.1-1.3 4.2.1 2.4-.4 4.6-1 5-.8.5-.8.8 0 .8 1.1 0 1.3 6.8.2 8.6-.4.6-.4 1.4-.1 1.8.4.4.7 5 .8 10.4 0 5.3.4 10.3.9 11.1.6.9.5 1.2 0 .8-.6-.3-.8 1-.5 3.1.3 3 .5 3.3 1.2 1.7.7-1.8.8-1.8.9.5.2 1.4.2 2.9.1 3.4-.1.4.4 1.5 1.1 2.4.9 1.1.9 1.4.1.9-.9-.6-1.1.1-.8 2.4.4 3.5 1.5 5.2 1.5 2.4 0-1 .3-1.5.7-1.1.7.7 1.2 3.4 1.4 8.4.1 3 .2 3.1 1.4 1.5s1.3-1.6 1.2.2c0 4.7.4 6.6 1.2 6 .5-.3 1.2-.1 1.6.5.3.5 0 1-.7 1-1.1 0-1.1.2 0 .9.7.4 1.4 1.7 1.5 2.9 0 1.1.5 1.8.9 1.6.4-.3.8 0 .8.6s.4.9.8.6c.5-.3.9.1.9.9s-.5 1.2-1.1.9c-.6-.3-.1.4 1.2 1.5s2.1 2.5 1.7 3.1c-.3.5.1 1 .9 1 .9 0 1.6.5 1.6 1.1 0 .5-.6.7-1.2.3-.8-.4-1-.3-.5.2s1.4.9 2 .9c.7 0 1.1.8.9 1.8-.2 1.2.4 1.7 2 1.8 1.3 0 1.7.3 1.1.6-1 .3-1 .8.1 1.9.8.8 2 1.4 2.6 1.4.7 0 .9.7.6 1.6-.4 1-.2 1.3.6.8s.9-.2.5.9c-.4 1-.2 1.6.6 1.4.7-.1 1.1.3 1 .9-.1.7.6 1 1.7.7 1.2-.3 2 0 2 .6 0 .7-.5.9-1.2.5s-.8-.3-.4.4 1.4 1.2 2.2 1.2c.8 0 1.4.6 1.4 1.4 0 .7.9 1.6 2.1 1.9 1.4.4 1.8 1 1.3 1.8-.5.9-.2 1 .9.6 1.5-.6 2.2.3 1.8 2.5 0 .5.8.8 1.9.8 1.1 0 2 .7 2 1.5s.6 1.5 1.4 1.5c.8 0 1.6.7 2 1.5.3.8 1.3 1.5 2.1 1.5 1 0 1.3.5.9 1.2-.5.9-.2.9.9-.1 1.7-1.3 2.2-.7 1.8 2.1 0 .4.9.5 2 .3 1.4-.3 1.9 0 1.6.8-.4 1.2.7 1.6 5.1 1.9.8.1 1.1.9.8 2.1-.4 1.8-.4 1.8 1.5.1 1.6-1.4 2-1.5 1.7-.4-.2 1 .5 1.5 2 1.5 1.3 0 3 .9 3.8 2 .8 1 1.4 1.5 1.4 1.1 0-.5.7-.3 1.5.4 1.2 1 1.5 1 1.5 0s.4-1 1.6.1c1.3 1 1.7 1 2.5-.2.8-1 .9-.8.4.8-.6 2.2-.3 2.3 4 2.3 3.4 0 4.4.3 3.9 1.2-.5.8 0 .7 1.1-.2 1-.8 1.6-1 1.2-.4-.3.6.5 1.6 1.8 2.2 1.4.7 2.5.8 2.5.4 0-1.3 11.9-.5 13.7.9.9.8 1.4.9 1 .3-.4-.7 0-1.4.8-1.8.8-.3 1.9.3 2.4 1.2.7 1.1 1.1 1.2 1.1.4 0-.7.4-1.1.9-.7.5.3 1.2.1 1.6-.5.4-.6 1.2-.7 1.8-.3 1.8 1.1 3.6 1.2 4.3.2.9-1.5 2.4 0 1.7 1.9-.4 1.3-.2 1.3 1-.3 1.4-1.7 1.8-1.8 2.7-.5.8 1.3 1 1.2 1-.3s.3-1.6 2.1-.7c1.5.8 2.4.8 3.4 0s1.6-.7 2.4.7c.6 1.1 1.1 1.3 1.1.5 0-.7.4-1.1.9-.7.5.3 1.3 0 1.7-.6.5-.9 1.1-.7 2.1.6.7 1.1 1.3 1.3 1.3.6 0-.7.4-1 .9-.6.5.3 1.2.1 1.6-.5.9-1.5 2.5-.2 1.8 1.5-.3.8 0 1.5.7 1.5.6 0 .9-.4.5-.9-.3-.5 0-1.3.6-1.7.6-.3 1.5 0 2 .7.7 1.1.9 1 .9-.4 0-1.5.3-1.6 2-.7 1.1.6 1.8 1.5 1.5 2.1-.4.5-.1.9.5.9.7 0 1-.6.7-1.4-.3-.8.1-1.7.9-2 .9-.4 1.2-.2.8.5-.4.8.1.9 1.6.4s2-.3 1.6.3c-.3.6-.1 1.4.6 1.8.7.4 1 .4.6-.1-.4-.4-.3-1.4.4-2.2.9-1.1 1.4-1.1 3.1.4 1.1 1 1.7 1.3 1.4.6-1-1.5 2.1-2.2 5.3-1.1 1.5.6 2.6.6 2.8-.1.2-.6 1.3-.6 3.3.1 1.6.5 2.6 1.5 2.2 2.1-.3.6-.1.7.5.3.6-.4.8-1.4.5-2.4-.6-1.4-.4-1.5.8-.5 1.7 1.4 3 1.4 4.6.2.7-.7 1.3-.6 1.7 0 .4.7 1.5.7 3.1.1 1.4-.5 2.7-.5 3-.1.6 1 2.4.9 4.2-.2.6-.4 1.4-.3 1.8.2.3.7 1.5.7 3 .1s2.7-.6 3 0c.3.6 1.5.6 3 0 1.7-.7 2.8-.5 3.7.4 1.1 1.1 1.6 1 2.7-.1.9-1 1.6-1.1 2-.5.4.6 1.5 1 2.6.8 1.1-.2 2.3.2 2.7.8.5.8.8.7.8-.2 0-.6.5-1.2 1-1.2.6 0 1 .8 1 1.7 0 1.5.1 1.5 1.3-.2 1.1-1.4 1.6-1.5 2.2-.5.5.9.4 1.1-.3.6-.7-.4-1.2-.2-1.2.3 0 .6 1.1 1.1 2.5 1.1h5c1.5 0 2.5.6 2.5 1.5 0 1.5.8 1.8 4.3 1.8 1.1 0 1.6.5 1.3 1.3-.5 1.2 1.2 1.9 3.7 1.5.7-.1 1.1 1.5.8 3.3-.1.5.5.3 1.4-.4 1.3-1.1 1.6-1.1 1.3 0-.2.8 1 2 2.5 2.8 1.7.8 2.6 1.9 2.3 2.7-.3.9 0 1.2 1 .8.7-.3 1.4 0 1.4.7 0 .6.5.8 1.3.4.7-.5.7-.2-.2 1-1.2 1.4-1.2 1.7-.1 1.4.8-.2 1.4.3 1.5 1 0 .7.5 1.6 1.1 2 .6.4 1.4 1.7 1.8 2.9.4 1.3 1.2 2.3 1.7 2.3s.9.9.9 1.9c0 1.1.9 2.3 2 2.6 2.2.7 2.6 2 1 3-.7.4-.7 1.2-.2 1.8.4.7.8 2.5.7 4-.1 2.4.1 2.6 1.1 1.3 1-1.4 1.2-1.3 1.2.9 0 1.3-.4 2.2-.9 1.9-.5-.3-.9 0-.9.5 0 .6.5 1.1 1 1.1 1.8 0 1.1 4.8-.7 5.3-1.7.4-1.7.5 0 .6.9 0 1.7.6 1.7 1.2 0 .5-.5.7-1.1.4-.6-.4-.5.2.2 1.4 1.2 1.7 1 2.3-.9 4.4-1.6 1.6-1.9 2.6-1.1 3.4.7.7.8 1.3 0 1.7-.5.4-.8 1.3-.4 2.1.3 1 .1 1.3-.9 1-1.4-.6-1.8.3-1.9 4.7 0 1.1-.8 1.8-2.1 1.8-1.6 0-1.8.3-.9 1.4.8 1 .9 1.6.1 2.1-.6.3-.8 1.1-.5 1.6.4.5 0 .9-.7.9-1.7 0-6.5 5.4-6 6.8.2.6-.8.9-2.3.8-1.9-.3-2.3 0-1.5 1 .9.9.6 1.3-1.2 1.6-1.3.2-2.2.9-2 1.7.3 1.2 0 1.2-1.4 0-1.2-.9-1.5-.9-1-.2.4.8.2 1.3-.5 1.3-.6 0-1.8.8-2.6 1.7-.8 1-1.2 1.3-.9.6.4-.6.2-1.5-.4-1.8-.6-.4-1-.3-.9.2.4 2.4-.3 3.1-2.6 2.7-1.4-.2-2.5 0-2.5.6s-.5.8-1.2.4c-.7-.5-.9-.2-.6.7.4 1.1-.9 1.4-7.2 1.4-4.3 0-7.6.3-7.4.7.3.5-.1.8-.8.8-.8 0-.9.3-.3.8 1.2.8 1.3 2.2.2 3.9-.4.6-.2 1.5.4 1.9.8.4.7.9-.2 1.5-1.2.7-1.2.9 0 .9 1 0 1.1.3.2 1.3-.6.8-.8 1.7-.4 2.1 1.3 1.2 1.4 4.8.1 4-.8-.5-.8-.3-.2.7 1.2 1.9 1.1 9.2-.1 10.1-.6.5-.5.8.4.8 1.1 0 1.1.3 0 1.7-.8.9-.9 1.4-.4 1.1.6-.4 1.1.2 1.1 1.2s-.5 1.6-1.1 1.2c-.5-.3-.4.1.3 1 .9 1.2 1 1.8.2 2.3-.7.4-.7 1.1-.2 1.8 1 1.4.9 11.7-.1 13.4-.4.7-.2 1.5.4 1.9.8.4.7.9-.2 1.5-1.2.8-1.2 1-.1 1.8.8.4 1.4 1.2 1.4 1.6 0 .4-.6 1.2-1.4 1.6-.7.5-.8.9-.3.9.6 0 1.1.9 1.2 2 .1 1.3-.2 1.8-1 1.3-.8-.4-.8-.1.1.9.9 1.1 1 1.8.2 2.3-2.7 1.7.9 2.6 9.6 2.4 6.7-.2 9.3-.6 9-1.4-.4-1.1 2.7-1.6 12.6-1.7 2.6-.1 3.9-.6 4.3-1.7.4-1.2 1.5-1.6 4.5-1.4 2.2.1 3.8-.2 3.5-.7-.3-.5.4-1.4 1.5-2 1.5-.8 2-.8 2 .2 0 .7 1.2 0 2.7-1.7 2.3-2.6 2.5-2.7 1.8-.6-.5 1.6-.4 2.1.4 1.7.6-.4 1.1-1.3 1.1-2.1s.8-1.2 2-1c1.3.2 2-.2 2-1.1 0-.8.5-1.4 1.1-1.4.5 0 .7.6.4 1.2-.4.7 0 .5.9-.6.8-1 2.2-1.6 3-1.3 1.1.4 1.3.1.9-1-.5-1.3-.2-1.5 1.2-1 1.6.7 1.6.5.4-.9-1.3-1.6-1.2-1.6.6-.7 1.5.8 2.3.8 3.2-.2.6-.7.9-1.6.6-1.9-.4-.3.1-.6 1-.6 1 0 1.7-.6 1.7-1.4 0-.7 1.3-1.6 2.8-1.9 1.6-.3 3.2-1.5 3.8-2.9.5-1.3.9-1.7.7-1.1-.1.7.2 1.3.7 1.3.6 0 1-.8 1-1.7 0-.9.3-1.4.6-1 1 .9 3.2-1.6 2.7-3.1-.4-.8 0-1 1.1-.6 1 .4 1.6.1 1.6-.9 0-.9.9-1.9 2-2.2 1.1-.3 2-1.3 2-2.2 0-.8.6-1.3 1.3-1 .9.3 1.2-.4 1.1-2.2-.1-1.8.3-2.8 1.2-2.8 1.1 0 1.1.3.1 1.6-1.1 1.4-1 1.4.6.2.9-.7 1.7-2.4 1.7-3.8 0-1.5.4-2.2 1.1-1.8.6.4 1.3-.2 1.6-1.4.3-1.3 1.4-2.1 2.7-2.2 1.1 0 1.5-.3.8-.6-1-.4-1-.8-.1-1.9.6-.8.9-1.4.5-1.4-.3 0 .3-.9 1.4-2 1.2-1.2 1.8-2.5 1.5-3-.4-.6.2-.7 1.2-.3 1.6.6 1.7.5.3-1.2-.9-1.1-1-1.6-.2-1.1s1.2 0 1.2-1.4c0-1.2.4-1.9.9-1.6.5.3 1.2-.1 1.5-1 .4-1 .2-1.3-.7-.9-.6.4-.4 0 .7-.9 1-.8 1.5-1.9 1.1-2.5-.3-.6-.2-1.1.4-1.1.5 0 .8-.9.6-1.9-.3-1.4.1-1.8 1.2-1.4 1.2.5 1.4-.1 1-2.6-.3-1.8-.1-3.1.5-3.1s.4-.7-.3-1.7c-1.3-1.5-1.2-1.5.6-.6 1.9 1.1 2 .8 2-4.3 0-3.9.4-5.4 1.4-5.4 1.1 0 1.1-.3.1-1.5-1.1-1.3-1-1.4.1-1 1.1.4 1.4-1.2 1.4-8.7 0-5.1.3-10.1.8-11.1s.4-1.7-.3-1.7c-.5 0-1-.5-1-1.1 0-.5.6-.7 1.3-.3.7.5.6 0-.3-1.1-.9-1.1-1-1.6-.2-1.1.6.4 1.2.2 1.2-.3 0-.6-.4-1.1-1-1.1s-.6-.9 0-2.5.6-2.5 0-2.5-1-.7-1-1.6c0-.9.5-1.2 1.2-.8.7.4.8.3.4-.5-1.3-2.1-1.6-7.2-.4-6.5.7.5.8.2.2-.7-.5-.8-1-2.9-1.1-4.8-.1-1.9-.7-3.7-1.2-4.1-.6-.3-1.1-2-1.3-3.8-.1-1.8-.7-3.2-1.2-3.2-.6 0-.4-.6.2-1.2 1-1 .8-1.6-1-3.1-1.3-1-1.7-1.5-.9-1.1 1 .5 1.2.3.5-.7-.5-.8-.9-2.5-1-3.9 0-1.4-.6-2.4-1.2-2.3-.7.2-1.2-.8-1.2-2.3 0-1.7-.4-2.3-1.2-1.8-1 .6-1 .5-.2-.7.9-1.1.9-1.7-.1-2.6-.7-.6-1.5-1-1.8-.7-.2.3-.4-.7-.4-2.1 0-3.3-1.1-4.4-2.4-2.5-.7 1.1-.8.8-.3-1.1.3-1.6.1-3-.6-3.4-.9-.6-.9-1 .1-1.7s.8-.8-.7-.3c-1.7.4-2.3 0-2.8-2-.4-1.4-1-2.3-1.5-2-.5.2-1.2-.2-1.5-1.1-.3-.9-.2-1.2.5-.8.6.3.5-.3-.2-1.4-.7-1.2-1.7-1.8-2.1-1.6-.4.3-.8-.4-.8-1.5 0-1.2-.7-2.1-1.5-2.1-1.6 0-3.8-3.4-2.7-4.4.3-.4-.2-.4-1.2 0-1.4.5-1.7.4-1.2-.4.4-.7.2-1.2-.4-1.2-.6 0-.8-.4-.5-1 .4-.6-.1-.7-1.1-.3-1.3.5-1.6.3-1.1-1 .3-.9.3-1.6-.1-1.6-.4.1-1.4.1-2.2 0-1.3-.1-1.3-.2 0-1.1 1.3-.8 1.2-1-.2-1-1 0-1.8-.5-1.8-1.1 0-.5-.4-.7-1-.4-.5.3-1-.1-1-1 0-1.1-.5-1.5-1.6-1.1-.8.3-1.3.2-1-.3.6-1-1.8-3.4-2.6-2.6-.3.3-1.3-.4-2.3-1.5-1-1.1-2.4-2-3.2-2-.7 0-1.3-.7-1.3-1.5 0-.9-.9-1.5-2.1-1.5-1.5 0-1.9-.4-1.5-1.6.4-1.2.2-1.5-.9-1-.8.3-1.5 0-1.5-.6 0-.7-.4-.7-1.3.1-1.9 1.5-3 .1-1.4-1.7.9-1.3.9-1.4 0-.8-.7.4-1.3.3-1.3-.2s-.8-.9-1.7-.9c-3.5 0-4.3-.3-4.3-1.7 0-.8-.5-1.8-1-2.1-.6-.4-1-.3-.9.2.4 2-.3 2-2.5 0-1.8-1.7-3.6-2.3-6.9-2.2-3.2 0-4.3-.3-4-1.2.5-1.3-.9-1.6-7.4-1.6-2.2.1-3.3-.4-3.3-1.4 0-.8.5-1.1 1.2-.7.7.5.8.3.4-.5-.6-.9-1.3-.8-2.6.4-1.1 1-2.5 1.5-3.2 1.2-.8-.4-.7-.6.5-.6.9-.1 1.7-.5 1.7-1 0-1.2-4.3-.8-5.2.4-.5.6-.8.6-.8-.1s-3.9-1.1-12-1c-6.6.1-12-.3-12-.7 0-.5.5-.5 1.2-.1.7.5.8.3.3-.6-.6-1-1-1-2 .3-.9 1.3-1.4 1.4-2.5.4-.7-.7-1-.7-.7-.1.5.8-.5.9-3.3.4-2.5-.5-3.7-.4-3.3.3.3.5 0 .7-.8.5-.8-.3-1.3-1.2-1.1-1.9.2-1.1-.1-1-1 .1-1.4 1.6-3.2 2-4.3.8-.4-.4-1.6-.3-2.6.3-1.3.7-1.9.6-1.9-.1s-.6-.8-1.7-.1c-1.1.6-2.4.6-3.6-.1-1.1-.5-1.7-.6-1.4-.1.3.5-.3.9-1.4.9-1 0-1.9-.5-1.9-1.1 0-.6-.3-.7-.8 0-.9 1.2-6.4 1.6-5.6.4.3-.5 0-.9-.5-.9-.6 0-1.1.5-1.1 1.1 0 .8-.4.9-1.3 0-.8-.6-1.7-.8-2-.4-.9.8-13.4.6-14.8-.3-.8-.5-.9-.3-.4.6.5.8.3 1.1-.6.8-.8-.3-1.3-1.2-1.1-1.9.2-1.1-.1-1-1 .1-1.4 1.6-3.2 2-4.3.8-.4-.4-1.6-.3-2.6.3-1.3.7-1.9.6-1.9-.1s-.6-.8-1.8-.1c-1.1.6-2.4.6-3.6-.1-1-.6-1.6-.6-1.3-.1.3.5-.3.9-1.4.9-1 0-1.9-.5-1.9-1.1 0-.6-.3-.7-.8 0-.9 1.2-6.4 1.6-5.6.4.3-.5 0-.9-.5-.9-.6 0-1.1.5-1.1 1.1 0 .8-.4.9-1.3 0-.8-.6-1.7-.8-2-.5-.3.4-2.9.7-5.7.8-3.5.1-5-.3-5-1.2 0-.9-.5-1-1.9-.2-2.6 1.3-3.1 1.3-2.6-.3.4-.9-.9-1.2-4.7-1.2-3.7 0-5.2-.4-5.1-1.2.3-1.3-3.8-2.8-6.9-2.5-1 0-1.8-.4-1.8-.9 0-.6.4-.8.9-.4.5.3 1.2.1 1.5-.4.3-.5-.8-.8-2.4-.7-1.7.1-3-.1-3-.5 0-1.5-4.9-6.1-5.8-5.5-.5.3-.8-.6-.6-1.9.1-1.4-.2-2.3-.7-2-.9.6-4.9-3-4.9-4.5 0-.6-.5-1-1.1-1-.5 0-.8-.4-.4-.9.3-.5-.2-1.6-1-2.4-.8-.9-1.5-2.3-1.5-3.2 0-.9-.5-1.3-1.1-.9-.8.4-.8 0 0-1.5.9-1.7.9-2-.3-1.5-1.1.4-1.4 0-1.1-1.5.2-1.2-.1-2.1-.6-2.1-.6 0-.5-.8.2-2.1.9-1.7.8-2-.2-1.4-.9.6-1.1.3-.6-.8.4-1 .1-1.7-.6-1.7-1.7 0-1.9-4-.4-5.9.9-1.2.9-1.3 0-.7-.8.4-1.3.1-1.3-.9 0-.9.5-1.3 1-1 .6.3 1 .1 1-.4 0-.6-.4-1.1-.8-1.1-.5 0-.9-.7-.9-1.5 0-1 .4-1.2 1.2-.5 1.4 1.1 1.4-2.5 0-3.7-.4-.5-.5-.2-.1.4.4.7.2 1.3-.3 1.3-2 0-1.1-2 1.2-3 1.2-.5 1.6-.9.9-.9-.9-.1-1-.6-.3-1.9.6-1.1.6-2.4-.1-3.5-.8-1.5-.6-1.9 1.1-2.4 1.1-.3 1.9-.9 1.6-1.3-.3-.5-.1-1.1.4-1.4.5-.3.7-1.6.3-2.8-.3-1.4-.2-1.9.6-1.4.8.4 1.6-.3 2.2-1.8.5-1.4 1.5-2.6 2.2-2.6.9 0 .8-.3-.2-1-1.3-.8-1.2-1 .3-1 1 0 1.5-.4 1.2-1-.3-.5.3-1.5 1.5-2.2 1.1-.7 2-1.9 2-2.6 0-.7.5-1 1-.7.6.3 1 .1 1-.5s.5-.8 1.2-.4c.8.5.9.2.4-1.1-.6-1.6-.4-1.6 1.1-.4 1.1.9 1.4 1 .9.1-.4-.7-.2-1.2.8-1.2.8 0 1.9-.7 2.4-1.5.4-.9 1.8-1.7 3-1.8 1.6-.1 2.1-.6 1.7-1.6-.3-.9-.3-1.2.1-.8.4.4 1.3.2 2.1-.4 1-.9 1.3-.8 1.3.1s.4.9 1.7-.1c1.4-1.2 1.6-1.2.9.1-.4.8.1.5 1.1-.7 1.5-1.9 2.9-2.3 9-2.4l7.1-.2.1-8.1c.1-4.4.1-8.9.1-9.9 0-.9 0-4.1-.1-7.1s.2-5.9.5-6.5c.4-.6.2-1.1-.4-1.1-.6 0-.8-.5-.5-1.1.8-1.3 1-11.7.3-12.5-.3-.3-.2-2.1.2-4s.4-3.7-.1-4c-.5-.3-.5-1.2 0-2.2.5-1 .6-2.4.1-3.3-.5-.8-.5-2-.2-2.6.4-.7.6-2.9.4-5l-.4-3.8-6.9.1c-3.8.1-7.2.4-7.5.7-.3.3-1.8.1-3.2-.4-2.1-.8-2.3-.7-1.4.4zm-96.6 85.3c-.8 1.4-.9 1.3-.9-1 0-1.8.3-2.4.9-1.8.7.7.7 1.6 0 2.8zm264.6 96.9c-.3.3-.9-.2-1.2-1.2-.6-1.4-.5-1.5.5-.6.7.7 1 1.5.7 1.8zM923 744.4c0 .2-.7.7-1.6 1-.8.3-1.2.2-.9-.4.6-1 2.5-1.4 2.5-.6zM582 358c-.9.6-1 1-.3 1 .6 0 1.5-.5 1.8-1 .8-1.2.4-1.2-1.5 0zM544.8 395.2c-1 1-1.4 1.8-.9 1.8 1 0 3.6-2.9 3-3.4-.2-.1-1.2.6-2.1 1.6z"/><path d="M734.4 459.4c.1.8.5 1.8.8 2.2.4.3.5-.1.4-1-.1-.8-.5-1.8-.8-2.2-.4-.3-.5.1-.4 1zM578.9 463.7c-1.3 1.6-1.2 1.7.4.4 1.6-1.3 2.1-2.1 1.3-2.1-.2 0-1 .8-1.7 1.7zM73.6 494.2c.3.5 1 .6 1.5.3 1.3-.9 1.1-1.2-.6-1.2-.8 0-1.2.4-.9.9zM755.5 496c-.3.5-.1 1 .4 1 .6 0 1.1-.5 1.1-1 0-.6-.2-1-.4-1-.3 0-.8.4-1.1 1zM961.5 530c.3.5.8 1 1.1 1 .2 0 .4-.5.4-1 0-.6-.5-1-1.1-1-.5 0-.7.4-.4 1zM136 566c.8.5 2 1 2.5 1 .6 0 .3-.5-.5-1s-1.9-1-2.5-1c-.5 0-.3.5.5 1zM735.6 567.8c-.3.5.1.9.9.9s1.2-.4.9-.9c-.3-.4-.7-.8-.9-.8-.2 0-.6.4-.9.8zM287.7 576.7c-1 .9-.9 2.3.1 2.3.5 0 .9-.7.9-1.5 0-1.7-.1-1.8-1-.8zM879.7 576.7c-1 .9-.9 2.3.1 2.3.5 0 .9-.7.9-1.5 0-1.7-.1-1.8-1-.8zM265.5 578c.3.5.8 1 1.1 1 .2 0 .4-.5.4-1 0-.6-.5-1-1.1-1-.5 0-.7.4-.4 1zM839.5 577.9c-.3.5-.2 1.2.3 1.5.5.3.9-.1.9-.9 0-1.7-.3-1.9-1.2-.6zM845.5 578c.3.5.8 1 1.1 1 .2 0 .4-.5.4-1 0-.6-.5-1-1.1-1-.5 0-.7.4-.4 1zM938.6 635.6c-.4.9-.4 1.9-.1 2.2.2.3.7-.3 1.1-1.2.4-.9.4-1.9.1-2.2-.2-.3-.7.3-1.1 1.2zM413.5 656c.3.5.8 1 1.1 1 .2 0 .4-.5.4-1 0-.6-.5-1-1.1-1-.5 0-.7.4-.4 1z"/></svg>