<?xml version="1.0" encoding="UTF-8"?>
<!DOCTYPE svg PUBLIC "-//W3C//DTD SVG 1.1//EN" "http://www.w3.org/Graphics/SVG/1.1/DTD/svg11.dtd">
<svg version="1.1" xmlns="http://www.w3.org/2000/svg" xmlns:xlink="http://www.w3.org/1999/xlink" x="0" y="0" width="1024" height="720" viewBox="0, 0, 1024, 720">
  <g id="Background">
    <rect x="0" y="0" width="1024" height="720" fill="#FFFFFF" fill-opacity="0"/>
  </g>
  <defs>
    <clipPath id="Clip_1">
      <path d="M318.25,18 L318.25,22.02 C317.83,22.02 317.44,22.08 317.08,22.23 C316.69,22.38 316.39,22.59 316.09,22.89 C315.82,23.16 315.61,23.49 315.46,23.85 C315.31,24.21 315.25,24.6 315.25,24.99 C315.25,25.83 315.52,26.52 316.09,27.12 C316.69,27.72 317.38,28.02 318.25,28.02 L324.22,28.02 C326.17,28.02 327.82,28.71 329.17,30.06 C330.55,31.44 331.24,33.09 331.24,35.01 C331.24,36.93 330.55,38.58 329.17,39.96 C327.82,41.31 326.17,42 324.22,42 L324.22,37.98 C324.64,37.98 325.03,37.92 325.39,37.77 C325.78,37.62 326.11,37.41 326.38,37.14 C326.65,36.87 326.86,36.57 327.01,36.18 C327.16,35.82 327.25,35.43 327.25,35.01 C327.25,34.2 326.92,33.51 326.35,32.91 C325.75,32.31 325.06,32.01 324.22,32.01 L318.25,32.01 C316.3,32.01 314.65,31.32 313.3,29.97 C311.95,28.59 311.26,26.94 311.26,24.99 C311.26,23.07 311.95,21.45 313.3,20.07 C314.65,18.69 316.3,18 318.25,18 z M298.48,18 C301.81,18 304.6,19.2 306.94,21.54 C309.31,23.88 310.51,26.7 310.51,30 C310.51,33.33 309.31,36.15 306.94,38.46 C304.6,40.8 301.81,42 298.48,42 C295.15,42 292.36,40.8 290.02,38.46 C287.68,36.12 286.48,33.33 286.48,30 C286.48,26.7 287.68,23.88 290.02,21.54 C292.33,19.2 295.15,18 298.48,18 z M298.48,22.02 C296.29,22.02 294.4,22.77 292.81,24.36 C291.25,25.92 290.5,27.81 290.5,30 C290.5,32.19 291.25,34.11 292.81,35.67 C294.37,37.23 296.29,37.98 298.48,37.98 C300.67,37.98 302.56,37.23 304.12,35.67 C305.71,34.08 306.46,32.19 306.46,30 C306.46,27.81 305.68,25.92 304.12,24.36 C302.56,22.8 300.67,22.02 298.48,22.02 z M282.28,18 L286.27,21.96 L286.27,37.98 L282.28,42 L282.28,18 z M265.36,18 C267.01,18 268.54,18.33 270.01,18.96 C271.45,19.59 272.74,20.46 273.82,21.54 C274.93,22.65 275.77,23.91 276.43,25.38 C277.06,26.82 277.36,28.35 277.36,30 C277.36,31.65 277.06,33.18 276.43,34.62 C275.77,36.09 274.93,37.35 273.85,38.46 C272.77,39.54 271.48,40.41 270.01,41.04 C268.57,41.67 267.01,42 265.36,42 L257.38,42 L261.37,37.98 L265.36,37.98 C266.47,37.98 267.52,37.77 268.48,37.38 C269.44,36.96 270.31,36.39 271.03,35.64 C271.75,34.89 272.32,34.05 272.74,33.09 C273.16,32.1 273.37,31.08 273.37,30 C273.37,28.92 273.16,27.9 272.74,26.91 C272.32,25.95 271.75,25.11 271,24.36 C270.28,23.64 269.41,23.04 268.45,22.62 C267.49,22.23 266.44,22.02 265.36,22.02 L261.37,22.02 L257.38,18 L265.36,18 z M246.61,18 L246.61,32.01 C246.61,33.66 247.18,35.07 248.32,36.21 C249.49,37.41 250.93,37.98 252.58,37.98 C254.23,37.98 255.64,37.38 256.81,36.21 C257.98,35.04 258.61,33.63 258.61,32.01 L262.6,32.01 C262.6,34.77 261.64,37.14 259.66,39.09 C257.71,41.04 255.31,42 252.58,42 C249.85,42 247.48,41.04 245.53,39.09 C243.58,37.14 242.62,34.74 242.62,32.01 L242.62,18 L246.61,18 z M239.32,18 L239.32,22.02 L231.34,22.02 L231.34,42 L227.32,42 L227.32,18 L239.32,18 z M210.22,18 L210.22,22.02 C209.8,22.02 209.41,22.08 209.05,22.23 C208.66,22.38 208.36,22.59 208.06,22.89 C207.79,23.16 207.58,23.49 207.43,23.85 C207.28,24.21 207.22,24.6 207.22,24.99 C207.22,25.83 207.49,26.52 208.06,27.12 C208.66,27.72 209.35,28.02 210.22,28.02 L216.19,28.02 C218.14,28.02 219.79,28.71 221.14,30.06 C222.52,31.44 223.21,33.09 223.21,35.01 C223.21,36.93 222.52,38.58 221.14,39.96 C219.79,41.31 218.14,42 216.19,42 L216.19,37.98 C216.61,37.98 217,37.92 217.36,37.77 C217.75,37.62 218.08,37.41 218.35,37.14 C218.62,36.87 218.83,36.57 218.98,36.18 C219.13,35.82 219.22,35.43 219.22,35.01 C219.22,34.2 218.89,33.51 218.32,32.91 C217.72,32.31 217.03,32.01 216.19,32.01 L210.22,32.01 C208.27,32.01 206.62,31.32 205.27,29.97 C203.92,28.59 203.23,26.94 203.23,24.99 C203.23,23.07 203.92,21.45 205.27,20.07 C206.62,18.69 208.27,18 210.22,18 z M192.28,18 L180.28,30 L192.28,42 L186.64,42 L176.26,31.68 L174.58,30.03 L176.26,28.35 L186.64,18 L192.28,18 z M172.66,18 C174.31,18 175.87,18.3 177.31,18.93 C178.75,19.56 180.04,20.43 181.15,21.54 L178.3,24.33 C176.71,22.77 174.82,22.02 172.66,22.02 C171.55,22.02 170.5,22.23 169.54,22.62 C168.55,23.04 167.71,23.61 166.99,24.36 C166.27,25.08 165.7,25.92 165.28,26.88 C164.86,27.87 164.65,28.89 164.65,30 C164.65,31.11 164.86,32.13 165.28,33.12 C165.7,34.08 166.27,34.92 167.02,35.64 C167.74,36.39 168.58,36.96 169.54,37.38 C170.53,37.77 171.55,37.98 172.66,37.98 L177.31,41.07 C175.87,41.7 174.31,42 172.66,42 C171.01,42 169.45,41.67 168.01,41.04 C166.54,40.41 165.28,39.54 164.17,38.46 C163.09,37.35 162.22,36.09 161.59,34.62 C160.96,33.15 160.63,31.62 160.63,30 C160.63,28.35 160.96,26.79 161.59,25.32 C162.22,23.88 163.09,22.62 164.17,21.54 C165.28,20.43 166.54,19.59 168.01,18.96 C169.45,18.33 171.01,18 172.66,18 z M156.43,18 L160.42,21.96 L160.42,37.98 L156.43,42 L156.43,18 z M152.98,18 L140.98,30 L152.98,42 L147.34,42 L136.96,31.68 L135.28,30.03 L136.96,28.35 L147.34,18 L152.98,18 z M123.19,18 L123.19,42 L119.2,42 L119.2,32.01 L107.2,32.01 L107.2,42 L103.21,42 L103.21,32.01 L107.2,27.99 L119.2,27.99 L119.2,18 L123.19,18 z M98.14,18 C99.79,18 101.35,18.3 102.79,18.93 C104.23,19.56 105.52,20.43 106.63,21.54 L103.78,24.33 C102.19,22.77 100.3,22.02 98.14,22.02 C97.03,22.02 95.98,22.23 95.02,22.62 C94.03,23.04 93.19,23.61 92.47,24.36 C91.75,25.08 91.18,25.92 90.76,26.88 C90.34,27.87 90.13,28.89 90.13,30 C90.13,31.11 90.34,32.13 90.76,33.12 C91.18,34.08 91.75,34.92 92.5,35.64 C93.22,36.39 94.06,36.96 95.02,37.38 C96.01,37.77 97.03,37.98 98.14,37.98 L102.79,41.07 C101.35,41.7 99.79,42 98.14,42 C96.49,42 94.93,41.67 93.49,41.04 C92.02,40.41 90.76,39.54 89.65,38.46 C88.57,37.35 87.7,36.09 87.07,34.62 C86.44,33.15 86.11,31.62 86.11,30 C86.11,28.35 86.44,26.79 87.07,25.32 C87.7,23.88 88.57,22.62 89.65,21.54 C90.76,20.43 92.02,19.59 93.49,18.96 C94.93,18.33 96.49,18 98.14,18 z M87.16,18 L87.16,22.02 L79.18,22.02 L79.18,42 L75.16,42 L75.16,18 L87.16,18 z M70.96,18 L74.95,21.96 L74.95,37.98 L70.96,42 L70.96,18 z M67.54,18 L55.54,42 L47.98,26.97 L50.23,22.47 L55.54,33.03 L63.07,18 L67.54,18 z M21.49,18 L21.49,22.02 C21.07,22.02 20.68,22.08 20.32,22.23 C19.93,22.38 19.63,22.59 19.33,22.89 C19.06,23.16 18.85,23.49 18.7,23.85 C18.55,24.21 18.49,24.6 18.49,24.99 C18.49,25.83 18.76,26.52 19.33,27.12 C19.93,27.72 20.62,28.02 21.49,28.02 L27.46,28.02 C29.41,28.02 31.06,28.71 32.41,30.06 C33.79,31.44 34.48,33.09 34.48,35.01 C34.48,36.93 33.79,38.58 32.41,39.96 C31.06,41.31 29.41,42 27.46,42 L27.46,37.98 C27.88,37.98 28.27,37.92 28.63,37.77 C29.02,37.62 29.35,37.41 29.62,37.14 C29.89,36.87 30.1,36.57 30.25,36.18 C30.4,35.82 30.49,35.43 30.49,35.01 C30.49,34.2 30.16,33.51 29.59,32.91 C28.99,32.31 28.3,32.01 27.46,32.01 L21.49,32.01 C19.54,32.01 17.89,31.32 16.54,29.97 C15.19,28.59 14.5,26.94 14.5,24.99 C14.5,23.07 15.19,21.45 16.54,20.07 C17.89,18.69 19.54,18 21.49,18 z M32.92,18 L40.48,33.03 L38.23,37.53 L28.45,18 L32.92,18 z"/>
    </clipPath>
    <filter id="InnerShadow_2">
      <feGaussianBlur in="SourceAlpha" stdDeviation="2"/>
      <feOffset dx="0" dy="2" result="offsetblur"/>
      <feFlood flood-color="#000000"/>
      <feComposite in2="offsetblur" operator="in"/>
    </filter>
    <clipPath id="Clip_3">
      <path d="M447.34,21 L447.34,25.02 C446.92,25.02 446.53,25.08 446.17,25.23 C445.78,25.38 445.48,25.59 445.18,25.89 C444.91,26.16 444.7,26.49 444.55,26.85 C444.4,27.21 444.34,27.6 444.34,27.99 C444.34,28.83 444.61,29.52 445.18,30.12 C445.78,30.72 446.47,31.02 447.34,31.02 L453.31,31.02 C455.26,31.02 456.91,31.71 458.26,33.06 C459.64,34.44 460.33,36.09 460.33,38.01 C460.33,39.93 459.64,41.58 458.26,42.96 C456.91,44.31 455.26,45 453.31,45 L453.31,40.98 C453.73,40.98 454.12,40.92 454.48,40.77 C454.87,40.62 455.2,40.41 455.47,40.14 C455.74,39.87 455.95,39.57 456.1,39.18 C456.25,38.82 456.34,38.43 456.34,38.01 C456.34,37.2 456.01,36.51 455.44,35.91 C454.84,35.31 454.15,35.01 453.31,35.01 L447.34,35.01 C445.39,35.01 443.74,34.32 442.39,32.97 C441.04,31.59 440.35,29.94 440.35,27.99 C440.35,26.07 441.04,24.45 442.39,23.07 C443.74,21.69 445.39,21 447.34,21 z M442.75,21 L430.75,33 L442.75,45 L437.11,45 L426.73,34.68 L425.05,33.03 L426.73,31.35 L437.11,21 L442.75,21 z M412.99,21 L412.99,25.02 C412.57,25.02 412.18,25.08 411.82,25.23 C411.43,25.38 411.13,25.59 410.83,25.89 C410.56,26.16 410.35,26.49 410.2,26.85 C410.05,27.21 409.99,27.6 409.99,27.99 C409.99,28.83 410.26,29.52 410.83,30.12 C411.43,30.72 412.12,31.02 412.99,31.02 L418.96,31.02 C420.91,31.02 422.56,31.71 423.91,33.06 C425.29,34.44 425.98,36.09 425.98,38.01 C425.98,39.93 425.29,41.58 423.91,42.96 C422.56,44.31 420.91,45 418.96,45 L418.96,40.98 C419.38,40.98 419.77,40.92 420.13,40.77 C420.52,40.62 420.85,40.41 421.12,40.14 C421.39,39.87 421.6,39.57 421.75,39.18 C421.9,38.82 421.99,38.43 421.99,38.01 C421.99,37.2 421.66,36.51 421.09,35.91 C420.49,35.31 419.8,35.01 418.96,35.01 L412.99,35.01 C411.04,35.01 409.39,34.32 408.04,32.97 C406.69,31.59 406,29.94 406,27.99 C406,26.07 406.69,24.45 408.04,23.07 C409.39,21.69 411.04,21 412.99,21 z"/>
    </clipPath>
    <filter id="InnerShadow_4">
      <feGaussianBlur in="SourceAlpha" stdDeviation="2"/>
      <feOffset dx="0" dy="2" result="offsetblur"/>
      <feFlood flood-color="#000000"/>
      <feComposite in2="offsetblur" operator="in"/>
    </filter>
    <clipPath id="Clip_5">
      <path d="M8.5,81.5 L335.38,81.5 L335.38,117.5 L8.5,117.5 z M85.96,87.5 L72.19,87.5 C72.01,87.5 71.86,87.65 71.86,87.77 L71.86,91.34 C71.86,91.49 72.01,91.61 72.19,91.61 L85.96,91.61 C86.17,91.61 86.29,91.49 86.29,91.34 L86.29,87.77 C86.29,87.65 86.17,87.5 85.96,87.5 z M240.43,87.5 L226.66,87.5 C226.48,87.5 226.33,87.65 226.33,87.77 L226.33,91.34 C226.33,91.49 226.48,91.61 226.66,91.61 L240.43,91.61 C240.64,91.61 240.76,91.49 240.76,91.34 L240.76,87.77 C240.76,87.65 240.64,87.5 240.43,87.5 z M110.5,87.5 L106.57,87.5 C106.39,87.5 106.24,87.65 106.24,87.77 L106.24,97.91 L110.83,97.91 L110.83,87.77 C110.83,87.65 110.71,87.5 110.5,87.5 z M46.99,87.5 L42.91,87.5 C42.79,87.5 42.67,87.56 42.64,87.68 L37.87,100.16 L34.84,91.91 L30.16,91.91 L37.6,111.32 C37.69,111.56 38.08,111.56 38.17,111.32 L44.95,93.53 L51.73,111.32 C51.82,111.56 52.21,111.56 52.3,111.32 L59.77,91.91 L55.09,91.91 L52.03,100.16 L47.29,87.68 C47.23,87.56 47.11,87.5 46.99,87.5 z M21.97,87.5 C18.13,87.5 14.5,90.23 14.5,94.73 C14.5,97.52 15.91,99.65 18.4,100.79 C20.14,101.6 21.76,101.6 21.97,101.6 C23.32,101.66 24.97,102.74 24.97,104.51 C24.97,106.1 23.56,107.18 21.97,107.18 C21.97,107.18 21.97,107.18 21.94,107.18 L21.94,111.5 L21.97,111.5 C25.81,111.5 29.41,109.01 29.41,104.51 C29.41,101.69 28.03,99.35 25.51,98.18 C23.8,97.37 22.12,97.37 21.97,97.37 C20.44,97.37 18.97,96.47 18.97,94.73 C18.97,92.81 20.32,91.82 21.97,91.82 C23.53,91.82 24.85,92.63 24.91,94.34 C24.91,94.43 25.06,94.58 25.24,94.58 L28.99,94.58 C29.2,94.58 29.35,94.43 29.32,94.34 C29.26,90.26 26.08,87.5 21.97,87.5 z M68.62,87.5 L64.03,87.5 L64.03,107.39 L61.57,107.39 C61.39,107.39 61.24,107.51 61.24,107.66 L61.24,111.23 C61.24,111.35 61.39,111.5 61.57,111.5 L71.02,111.5 C71.23,111.5 71.35,111.35 71.35,111.23 L71.35,107.66 C71.35,107.51 71.23,107.39 71.02,107.39 L68.62,107.39 L68.62,87.5 z M81.37,96.2 L76.81,96.2 L76.81,111.23 C76.81,111.35 76.93,111.5 77.14,111.5 L81.01,111.5 C81.22,111.5 81.37,111.35 81.37,111.23 L81.37,96.2 z M104.98,87.5 L101.08,87.5 C95.2,87.5 87.01,88.85 87.01,99.5 C87.01,109.76 95.11,111.5 101.08,111.5 L104.98,111.5 C105.19,111.5 105.31,111.35 105.31,111.23 L105.31,107.09 L100.72,107.09 C97.81,107.21 91.63,106.91 91.63,99.5 C91.63,93.8 95.5,91.61 100.72,91.88 L100.72,97.19 L105.31,97.19 L105.31,87.77 C105.31,87.65 105.19,87.5 104.98,87.5 z M124.18,87.5 L120.25,87.5 C120.07,87.5 119.92,87.65 119.92,87.77 L119.92,102.53 L110.83,102.53 L110.83,102.5 L106.24,102.5 L106.24,111.23 C106.24,111.35 106.39,111.5 106.57,111.5 L110.5,111.5 C110.71,111.5 110.83,111.35 110.83,111.23 L110.83,107 L119.92,107 L119.92,111.23 C119.92,111.35 120.07,111.5 120.25,111.5 L124.18,111.5 C124.39,111.5 124.51,111.35 124.51,111.23 L124.51,87.77 C124.51,87.65 124.39,87.5 124.18,87.5 z M137.23,87.5 L133.27,87.5 C133.09,87.5 132.94,87.65 132.94,87.77 L132.94,110.03 C132.94,110.03 138.79,103.4 139.39,102.77 L146.38,111.41 C146.41,111.44 146.59,111.5 146.65,111.5 L151.81,111.5 C152.11,111.5 152.26,111.29 152.08,111.05 L142.45,99.71 L151.99,87.95 C152.2,87.74 152.05,87.5 151.72,87.5 L146.83,87.5 C146.77,87.5 146.59,87.56 146.56,87.59 L137.53,98.69 L137.53,87.77 C137.53,87.65 137.41,87.5 137.23,87.5 z M160.51,87.5 L155.92,87.5 L155.92,107.39 L153.46,107.39 C153.28,107.39 153.13,107.51 153.13,107.66 L153.13,111.23 C153.13,111.35 153.28,111.5 153.46,111.5 L162.91,111.5 C163.12,111.5 163.24,111.35 163.24,111.23 L163.24,107.66 C163.24,107.51 163.12,107.39 162.91,107.39 L160.51,107.39 L160.51,87.5 z M181.72,87.5 L177.82,87.5 C171.94,87.5 163.75,88.85 163.75,99.5 C163.75,109.76 171.85,111.5 177.82,111.5 L181.72,111.5 C181.93,111.5 182.05,111.35 182.05,111.23 L182.05,107.09 L177.46,107.09 C174.55,107.21 168.37,106.91 168.37,99.5 C168.37,93.8 172.24,91.61 177.46,91.88 L177.46,97.19 L182.05,97.19 L182.05,87.77 C182.05,87.65 181.93,87.5 181.72,87.5 z M187.27,87.5 L183.31,87.5 C183.13,87.5 182.98,87.65 182.98,87.77 L182.98,110.03 C182.98,110.03 188.83,103.4 189.43,102.77 L196.42,111.41 C196.45,111.44 196.63,111.5 196.69,111.5 L201.85,111.5 C202.15,111.5 202.3,111.29 202.12,111.05 L192.49,99.71 L202.03,87.95 C202.24,87.74 202.09,87.5 201.76,87.5 L196.87,87.5 C196.81,87.5 196.63,87.56 196.6,87.59 L187.57,98.69 L187.57,87.77 C187.57,87.65 187.45,87.5 187.27,87.5 z M218.14,87.5 C214.3,87.5 210.67,90.23 210.67,94.73 C210.67,97.52 212.08,99.65 214.57,100.79 C216.31,101.6 217.93,101.6 218.14,101.6 C219.49,101.66 221.14,102.74 221.14,104.51 C221.14,106.1 219.73,107.18 218.14,107.18 C218.14,107.18 218.14,107.18 218.11,107.18 L218.11,111.5 L218.14,111.5 C221.98,111.5 225.58,109.01 225.58,104.51 C225.58,101.69 224.2,99.35 221.68,98.18 C219.97,97.37 218.29,97.37 218.14,97.37 C216.61,97.37 215.14,96.47 215.14,94.73 C215.14,92.81 216.49,91.82 218.14,91.82 C219.7,91.82 221.02,92.63 221.08,94.34 C221.08,94.43 221.23,94.58 221.41,94.58 L225.16,94.58 C225.37,94.58 225.52,94.43 225.49,94.34 C225.43,90.26 222.25,87.5 218.14,87.5 z M235.84,96.2 L231.28,96.2 L231.28,111.23 C231.28,111.35 231.4,111.5 231.61,111.5 L235.48,111.5 C235.69,111.5 235.84,111.35 235.84,111.23 L235.84,96.2 z M259.18,87.5 L255.28,87.5 C255.07,87.5 254.95,87.65 254.95,87.77 L254.95,103.49 C254.95,105.92 252.73,107.09 250.48,107.09 C248.26,107.09 246.28,105.83 246.01,103.46 L246.01,91.85 L241.48,91.85 L241.48,103.49 C241.48,108.44 245.53,111.5 250.48,111.5 C255.58,111.5 259.48,108.56 259.48,103.49 L259.48,87.77 C259.48,87.65 259.33,87.5 259.18,87.5 z M264.64,87.5 L260.71,87.5 C260.53,87.5 260.38,87.65 260.38,87.77 L260.38,97.19 L264.97,97.19 L264.97,91.88 C270.19,91.61 274.06,93.8 274.06,99.5 C274.06,106.91 267.88,107.21 264.97,107.09 L264.97,101.81 L260.38,101.81 L260.38,111.23 C260.38,111.35 260.53,111.5 260.71,111.5 L264.64,111.5 C270.61,111.5 278.68,109.76 278.68,99.5 C278.68,88.85 270.49,87.5 264.64,87.5 z M286.99,87.5 L282.4,87.5 L282.4,107.39 L279.94,107.39 C279.76,107.39 279.61,107.51 279.61,107.66 L279.61,111.23 C279.61,111.35 279.76,111.5 279.94,111.5 L289.39,111.5 C289.6,111.5 289.72,111.35 289.72,111.23 L289.72,107.66 C289.72,107.51 289.6,107.39 289.39,107.39 L286.99,107.39 L286.99,87.5 z M301.78,97.28 C300.52,97.28 299.53,98.3 299.53,99.56 C299.53,100.79 300.52,101.81 301.78,101.81 C303.04,101.81 304.03,100.79 304.03,99.56 C304.03,98.3 303.04,97.28 301.78,97.28 z M301.81,91.73 C306.46,91.73 308.83,95.63 308.83,99.56 C308.83,103.43 306.46,107.3 301.81,107.3 C297.1,107.3 294.76,103.43 294.76,99.56 C294.76,95.63 297.1,91.73 301.81,91.73 z M301.81,87.5 C294.04,87.5 290.23,93.5 290.23,99.47 C290.23,105.47 294.04,111.5 301.81,111.5 C309.46,111.5 313.33,105.47 313.33,99.47 C313.33,93.5 309.46,87.5 301.81,87.5 z M321.94,87.5 C318.1,87.5 314.47,90.23 314.47,94.73 C314.47,97.52 315.88,99.65 318.37,100.79 C320.11,101.6 321.73,101.6 321.94,101.6 C323.29,101.66 324.94,102.74 324.94,104.51 C324.94,106.1 323.53,107.18 321.94,107.18 C321.94,107.18 321.94,107.18 321.91,107.18 L321.91,111.5 L321.94,111.5 C325.78,111.5 329.38,109.01 329.38,104.51 C329.38,101.69 328,99.35 325.48,98.18 C323.77,97.37 322.09,97.37 321.94,97.37 C320.41,97.37 318.94,96.47 318.94,94.73 C318.94,92.81 320.29,91.82 321.94,91.82 C323.5,91.82 324.82,92.63 324.88,94.34 C324.88,94.43 325.03,94.58 325.21,94.58 L328.96,94.58 C329.17,94.58 329.32,94.43 329.29,94.34 C329.23,90.26 326.05,87.5 321.94,87.5 z"/>
    </clipPath>
    <filter id="Shadow_6">
      <feGaussianBlur in="SourceAlpha" stdDeviation="2.5"/>
      <feOffset dx="0" dy="0" result="offsetblur"/>
      <feFlood flood-color="#0080FF"/>
      <feComposite in2="offsetblur" operator="in"/>
    </filter>
    <linearGradient id="Gradient_1" gradientUnits="userSpaceOnUse" x1="256" y1="48.231" x2="768" y2="671.769">
      <stop offset="0" stop-color="#0D73FF"/>
      <stop offset="1" stop-color="#273F60"/>
    </linearGradient>
    <clipPath id="Clip_7">
      <path d="M320.56,151 Q321.88,151 323.185,151.135 Q324.49,151.27 325.21,151.51 Q326.08,151.84 326.59,152.29 Q327.25,152.86 327.565,153.82 Q327.88,154.78 327.94,156.37 L327.94,156.76 L326.11,156.76 L326.11,156.19 Q325.96,154.48 325.57,153.97 Q325.57,153.91 325.105,153.64 Q324.64,153.37 323.53,153.13 Q322.42,152.89 320.56,152.89 Q318.22,152.89 316.96,153.265 Q315.7,153.64 315.49,154 Q315.1,154.69 315.01,156.28 L315.01,157.24 Q315.1,158.68 315.49,159.49 Q315.7,159.82 316.975,160.195 Q318.25,160.57 320.56,160.57 Q321.82,160.57 323.14,160.705 Q324.46,160.84 325.21,161.05 Q325.96,161.29 326.44,161.74 L326.68,161.98 Q327.28,162.55 327.58,163.48 Q327.88,164.41 327.94,165.97 L327.94,166.6 Q327.88,168.16 327.58,169.09 Q327.28,170.02 326.68,170.62 L326.62,170.71 L326.5,170.8 Q326.41,170.92 325.99,171.19 L325.21,171.52 Q324.55,171.67 324.25,171.73 Q323.35,171.88 322.84,171.91 Q322.18,171.97 321.82,171.97 L321.73,171.97 Q321.31,172 320.56,172 Q319.21,172 317.905,171.865 Q316.6,171.73 315.91,171.49 Q315.07,171.25 314.47,170.68 Q313.87,170.11 313.555,169.18 Q313.24,168.25 313.15,166.75 L313.12,166.57 L313.12,165.97 L315.01,165.97 L315.01,166.78 Q315.1,168.28 315.49,169.03 Q315.61,169.21 316.165,169.465 Q316.72,169.72 317.83,169.93 Q318.94,170.14 320.56,170.14 L321.22,170.14 Q321.82,170.14 322.525,170.05 Q323.23,169.96 323.5,169.9 Q324.46,169.72 324.955,169.48 Q325.45,169.24 325.57,169.06 Q325.96,168.49 326.11,166.81 L326.11,165.7 Q325.99,164.14 325.57,163.48 Q325.57,163.42 325.105,163.165 Q324.64,162.91 323.53,162.67 Q322.42,162.43 320.56,162.43 Q319.24,162.43 318.31,162.31 Q316.54,162.16 315.91,161.95 Q315.13,161.71 314.47,161.11 Q313.84,160.54 313.525,159.565 Q313.21,158.59 313.12,157 L313.12,156.43 Q313.21,154.84 313.525,153.865 Q313.84,152.89 314.47,152.32 Q315.1,151.81 315.91,151.51 Q316.6,151.27 317.905,151.135 Q319.21,151 320.56,151 z M302.53,151 Q303.85,151 305.17,151.12 Q306.49,151.24 307.21,151.48 Q308.08,151.81 308.59,152.29 Q309.25,152.86 309.565,153.805 Q309.88,154.75 309.94,156.37 L309.94,166.6 Q309.88,168.22 309.565,169.18 Q309.25,170.14 308.59,170.71 Q308.08,171.19 307.21,171.52 Q306.49,171.76 305.17,171.88 Q303.85,172 302.53,172 Q301.21,172 299.875,171.865 Q298.54,171.73 297.88,171.49 Q297.01,171.22 296.44,170.68 Q295.81,170.11 295.495,169.135 Q295.18,168.16 295.09,166.57 L295.09,156.43 Q295.18,154.84 295.495,153.865 Q295.81,152.89 296.44,152.32 Q297.01,151.81 297.88,151.48 Q298.54,151.24 299.875,151.12 Q301.21,151 302.53,151 z M302.53,152.86 Q300.88,152.86 299.785,153.055 Q298.69,153.25 298.135,153.505 Q297.58,153.76 297.49,153.97 Q297.1,154.6 296.98,156.25 L296.98,166.78 Q297.13,168.46 297.49,169.03 Q297.58,169.21 298.135,169.465 Q298.69,169.72 299.785,169.93 Q300.88,170.14 302.53,170.14 Q304.42,170.14 305.53,169.9 Q306.64,169.66 307.165,169.36 Q307.69,169.06 307.6,169.06 Q307.93,168.46 308.08,166.84 L308.08,156.16 Q307.93,154.51 307.57,153.94 Q307.57,153.88 307.105,153.61 Q306.64,153.34 305.53,153.1 Q304.42,152.86 302.53,152.86 z M289.93,151 L289.93,172 L288.07,172 L288.07,151 L289.93,151 z M274.75,151 Q278.05,151.03 279.58,151.375 Q281.11,151.72 281.83,152.995 Q282.55,154.27 282.55,157.12 L282.55,165.85 Q282.55,168.61 281.86,169.855 Q281.17,171.1 279.82,171.52 L279.19,171.73 L278.62,171.88 L277.24,172 L268.45,172 L268.45,151 L274.75,151 z M270.37,152.89 L270.37,170.05 L277.24,170.05 Q278.95,169.96 279.64,169.57 Q280.03,169.33 280.345,168.61 Q280.66,167.89 280.66,165.85 L280.66,157.12 Q280.66,153.85 279.67,153.4 Q279.1,153.04 277.54,152.92 L270.37,152.89 z M251.92,151 L251.92,166.75 Q252.04,168.37 252.43,169 Q252.64,169.36 253.9,169.735 Q255.16,170.11 257.5,170.11 Q259.39,170.11 260.53,169.87 Q261.67,169.63 262.135,169.36 Q262.6,169.09 262.6,169.03 Q262.96,168.43 263.08,166.78 L263.08,151 L264.97,151 L264.97,166.57 Q264.91,168.19 264.58,169.165 Q264.25,170.14 263.59,170.71 Q263.05,171.19 262.18,171.52 Q261.49,171.76 260.155,171.88 Q258.82,172 257.5,172 Q256.18,172 254.86,171.865 Q253.54,171.73 252.82,171.49 Q251.95,171.22 251.41,170.68 Q250.75,170.11 250.435,169.135 Q250.12,168.16 250.03,166.54 L250.03,151 L251.92,151 z M246.97,151 L246.97,153.04 L240.46,153.04 L240.46,172 L238.45,172 L238.45,153.04 L232.03,153.04 L232.03,151 L246.97,151 z M221.56,151 Q222.88,151 224.185,151.135 Q225.49,151.27 226.21,151.51 Q227.08,151.84 227.59,152.29 Q228.25,152.86 228.565,153.82 Q228.88,154.78 228.94,156.37 L228.94,156.76 L227.11,156.76 L227.11,156.19 Q226.96,154.48 226.57,153.97 Q226.57,153.91 226.105,153.64 Q225.64,153.37 224.53,153.13 Q223.42,152.89 221.56,152.89 Q219.22,152.89 217.96,153.265 Q216.7,153.64 216.49,154 Q216.1,154.69 216.01,156.28 L216.01,157.24 Q216.1,158.68 216.49,159.49 Q216.7,159.82 217.975,160.195 Q219.25,160.57 221.56,160.57 Q222.82,160.57 224.14,160.705 Q225.46,160.84 226.21,161.05 Q226.96,161.29 227.44,161.74 L227.68,161.98 Q228.28,162.55 228.58,163.48 Q228.88,164.41 228.94,165.97 L228.94,166.6 Q228.88,168.16 228.58,169.09 Q228.28,170.02 227.68,170.62 L227.62,170.71 L227.5,170.8 Q227.41,170.92 226.99,171.19 L226.21,171.52 Q225.55,171.67 225.25,171.73 Q224.35,171.88 223.84,171.91 Q223.18,171.97 222.82,171.97 L222.73,171.97 Q222.31,172 221.56,172 Q220.21,172 218.905,171.865 Q217.6,171.73 216.91,171.49 Q216.07,171.25 215.47,170.68 Q214.87,170.11 214.555,169.18 Q214.24,168.25 214.15,166.75 L214.12,166.57 L214.12,165.97 L216.01,165.97 L216.01,166.78 Q216.1,168.28 216.49,169.03 Q216.61,169.21 217.165,169.465 Q217.72,169.72 218.83,169.93 Q219.94,170.14 221.56,170.14 L222.22,170.14 Q222.82,170.14 223.525,170.05 Q224.23,169.96 224.5,169.9 Q225.46,169.72 225.955,169.48 Q226.45,169.24 226.57,169.06 Q226.96,168.49 227.11,166.81 L227.11,165.7 Q226.99,164.14 226.57,163.48 Q226.57,163.42 226.105,163.165 Q225.64,162.91 224.53,162.67 Q223.42,162.43 221.56,162.43 Q220.24,162.43 219.31,162.31 Q217.54,162.16 216.91,161.95 Q216.13,161.71 215.47,161.11 Q214.84,160.54 214.525,159.565 Q214.21,158.59 214.12,157 L214.12,156.43 Q214.21,154.84 214.525,153.865 Q214.84,152.89 215.47,152.32 Q216.1,151.81 216.91,151.51 Q217.6,151.27 218.905,151.135 Q220.21,151 221.56,151 z M179.92,151 L179.92,160.93 L186.16,160.93 Q187.78,160.9 188.77,160.66 Q189.76,160.42 190.18,160.165 Q190.6,159.91 190.6,159.85 Q190.93,159.31 191.08,157.63 L191.08,151 L192.97,151 L192.97,157.42 Q192.88,158.98 192.58,159.925 Q192.28,160.87 191.71,161.44 L191.44,161.68 L191.11,161.89 L191.44,162.1 L191.71,162.31 Q192.28,162.88 192.58,163.84 Q192.88,164.8 192.97,166.39 L192.97,172 L191.08,172 L191.08,166.15 Q190.93,164.5 190.6,163.9 Q190.6,163.9 190.345,163.66 Q190.09,163.42 188.95,163.15 Q187.81,162.88 186.16,162.85 L179.92,162.85 L179.92,172 L178,172 L178,151 L179.92,151 z M173.89,151 L173.89,152.95 L166.51,152.95 L166.09,152.98 Q164.65,153.07 163.96,153.43 Q163,153.91 163,157.15 L163,165.88 Q163,167.92 163.3,168.655 Q163.6,169.39 163.99,169.6 Q164.68,169.99 166.42,170.08 L173.89,170.08 L173.89,172 L166.42,172 L165.04,171.88 L164.47,171.76 L163.81,171.52 Q162.46,171.07 161.77,169.855 Q161.08,168.64 161.08,165.88 L161.08,157.15 Q161.08,154.39 161.71,153.145 Q162.34,151.9 163.975,151.465 Q165.61,151.03 169.18,151 L173.89,151 z M154.93,151 L154.93,172 L153.07,172 L153.07,151 L154.93,151 z M134.92,151 L134.92,160.93 L141.16,160.93 Q142.78,160.9 143.77,160.66 Q144.76,160.42 145.18,160.165 Q145.6,159.91 145.6,159.85 Q145.93,159.31 146.08,157.63 L146.08,151 L147.97,151 L147.97,157.42 Q147.88,158.98 147.58,159.925 Q147.28,160.87 146.71,161.44 L146.44,161.68 L146.11,161.89 L146.44,162.1 L146.71,162.31 Q147.28,162.88 147.58,163.84 Q147.88,164.8 147.97,166.39 L147.97,172 L146.08,172 L146.08,166.15 Q145.93,164.5 145.6,163.9 Q145.6,163.9 145.345,163.66 Q145.09,163.42 143.95,163.15 Q142.81,162.88 141.16,162.85 L134.92,162.85 L134.92,172 L133,172 L133,151 L134.92,151 z M99.82,151 L99.82,160.99 L109.15,160.99 L109.15,151 L111.01,151 L111.01,172 L109.18,172 L109.15,163 L99.82,163 L99.82,172 L97.99,172 L97.99,151 L99.82,151 z M92.89,151 L92.89,152.95 L85.51,152.95 L85.09,152.98 Q83.65,153.07 82.96,153.43 Q82,153.91 82,157.15 L82,165.88 Q82,167.92 82.3,168.655 Q82.6,169.39 82.99,169.6 Q83.68,169.99 85.42,170.08 L92.89,170.08 L92.89,172 L85.42,172 L84.04,171.88 L83.47,171.76 L82.81,171.52 Q81.46,171.07 80.77,169.855 Q80.08,168.64 80.08,165.88 L80.08,157.15 Q80.08,154.39 80.71,153.145 Q81.34,151.9 82.975,151.465 Q84.61,151.03 88.18,151 L92.89,151 z M75.97,151 L75.97,153.04 L69.46,153.04 L69.46,172 L67.45,172 L67.45,153.04 L61.03,153.04 L61.03,151 L75.97,151 z M55.93,151 L55.93,172 L54.07,172 L54.07,151 L55.93,151 z M36.13,151 L36.13,168.28 L40.6,160.48 L42.4,160.48 L46.9,168.28 L46.9,151 L48.7,151 L48.7,172 L47.02,172 L46.36,171.01 L41.5,162.64 L36.67,170.98 L35.98,172 L34.3,172 L34.3,151 L36.13,151 z M23.56,151 Q24.88,151 26.185,151.135 Q27.49,151.27 28.21,151.51 Q29.08,151.84 29.59,152.29 Q30.25,152.86 30.565,153.82 Q30.88,154.78 30.94,156.37 L30.94,156.76 L29.11,156.76 L29.11,156.19 Q28.96,154.48 28.57,153.97 Q28.57,153.91 28.105,153.64 Q27.64,153.37 26.53,153.13 Q25.42,152.89 23.56,152.89 Q21.22,152.89 19.96,153.265 Q18.7,153.64 18.49,154 Q18.1,154.69 18.01,156.28 L18.01,157.24 Q18.1,158.68 18.49,159.49 Q18.7,159.82 19.975,160.195 Q21.25,160.57 23.56,160.57 Q24.82,160.57 26.14,160.705 Q27.46,160.84 28.21,161.05 Q28.96,161.29 29.44,161.74 L29.68,161.98 Q30.28,162.55 30.58,163.48 Q30.88,164.41 30.94,165.97 L30.94,166.6 Q30.88,168.16 30.58,169.09 Q30.28,170.02 29.68,170.62 L29.62,170.71 L29.5,170.8 Q29.41,170.92 28.99,171.19 L28.21,171.52 Q27.55,171.67 27.25,171.73 Q26.35,171.88 25.84,171.91 Q25.18,171.97 24.82,171.97 L24.73,171.97 Q24.31,172 23.56,172 Q22.21,172 20.905,171.865 Q19.6,171.73 18.91,171.49 Q18.07,171.25 17.47,170.68 Q16.87,170.11 16.555,169.18 Q16.24,168.25 16.15,166.75 L16.12,166.57 L16.12,165.97 L18.01,165.97 L18.01,166.78 Q18.1,168.28 18.49,169.03 Q18.61,169.21 19.165,169.465 Q19.72,169.72 20.83,169.93 Q21.94,170.14 23.56,170.14 L24.22,170.14 Q24.82,170.14 25.525,170.05 Q26.23,169.96 26.5,169.9 Q27.46,169.72 27.955,169.48 Q28.45,169.24 28.57,169.06 Q28.96,168.49 29.11,166.81 L29.11,165.7 Q28.99,164.14 28.57,163.48 Q28.57,163.42 28.105,163.165 Q27.64,162.91 26.53,162.67 Q25.42,162.43 23.56,162.43 Q22.24,162.43 21.31,162.31 Q19.54,162.16 18.91,161.95 Q18.13,161.71 17.47,161.11 Q16.84,160.54 16.525,159.565 Q16.21,158.59 16.12,157 L16.12,156.43 Q16.21,154.84 16.525,153.865 Q16.84,152.89 17.47,152.32 Q18.1,151.81 18.91,151.51 Q19.6,151.27 20.905,151.135 Q22.21,151 23.56,151 z"/>
    </clipPath>
    <filter id="InnerShadow_8">
      <feGaussianBlur in="SourceAlpha" stdDeviation="1.5"/>
      <feOffset dx="0" dy="2" result="offsetblur"/>
      <feFlood flood-color="#000000"/>
      <feComposite in2="offsetblur" operator="in"/>
    </filter>
    <clipPath id="Clip_9">
      <path d="M458.31,161.5 Q459.63,161.5 460.935,161.635 Q462.24,161.77 462.96,162.01 Q463.83,162.34 464.34,162.79 Q465,163.36 465.315,164.32 Q465.63,165.28 465.69,166.87 L465.69,167.26 L463.86,167.26 L463.86,166.69 Q463.71,164.98 463.32,164.47 Q463.32,164.41 462.855,164.14 Q462.39,163.87 461.28,163.63 Q460.17,163.39 458.31,163.39 Q455.97,163.39 454.71,163.765 Q453.45,164.14 453.24,164.5 Q452.85,165.19 452.76,166.78 L452.76,167.74 Q452.85,169.18 453.24,169.99 Q453.45,170.32 454.725,170.695 Q456,171.07 458.31,171.07 Q459.57,171.07 460.89,171.205 Q462.21,171.34 462.96,171.55 Q463.71,171.79 464.19,172.24 L464.43,172.48 Q465.03,173.05 465.33,173.98 Q465.63,174.91 465.69,176.47 L465.69,177.1 Q465.63,178.66 465.33,179.59 Q465.03,180.52 464.43,181.12 L464.37,181.21 L464.25,181.3 Q464.16,181.42 463.74,181.69 L462.96,182.02 Q462.3,182.17 462,182.23 Q461.1,182.38 460.59,182.41 Q459.93,182.47 459.57,182.47 L459.48,182.47 Q459.06,182.5 458.31,182.5 Q456.96,182.5 455.655,182.365 Q454.35,182.23 453.66,181.99 Q452.82,181.75 452.22,181.18 Q451.62,180.61 451.305,179.68 Q450.99,178.75 450.9,177.25 L450.87,177.07 L450.87,176.47 L452.76,176.47 L452.76,177.28 Q452.85,178.78 453.24,179.53 Q453.36,179.71 453.915,179.965 Q454.47,180.22 455.58,180.43 Q456.69,180.64 458.31,180.64 L458.97,180.64 Q459.57,180.64 460.275,180.55 Q460.98,180.46 461.25,180.4 Q462.21,180.22 462.705,179.98 Q463.2,179.74 463.32,179.56 Q463.71,178.99 463.86,177.31 L463.86,176.2 Q463.74,174.64 463.32,173.98 Q463.32,173.92 462.855,173.665 Q462.39,173.41 461.28,173.17 Q460.17,172.93 458.31,172.93 Q456.99,172.93 456.06,172.81 Q454.29,172.66 453.66,172.45 Q452.88,172.21 452.22,171.61 Q451.59,171.04 451.275,170.065 Q450.96,169.09 450.87,167.5 L450.87,166.93 Q450.96,165.34 451.275,164.365 Q451.59,163.39 452.22,162.82 Q452.85,162.31 453.66,162.01 Q454.35,161.77 455.655,161.635 Q456.96,161.5 458.31,161.5 z M434.67,161.5 L434.67,171.43 L440.91,171.43 Q442.53,171.4 443.52,171.16 Q444.51,170.92 444.93,170.665 Q445.35,170.41 445.35,170.35 Q445.68,169.81 445.83,168.13 L445.83,161.5 L447.72,161.5 L447.72,167.92 Q447.63,169.48 447.33,170.425 Q447.03,171.37 446.46,171.94 L446.19,172.18 L445.86,172.39 L446.19,172.6 L446.46,172.81 Q447.03,173.38 447.33,174.34 Q447.63,175.3 447.72,176.89 L447.72,182.5 L445.83,182.5 L445.83,176.65 Q445.68,175 445.35,174.4 Q445.35,174.4 445.095,174.16 Q444.84,173.92 443.7,173.65 Q442.56,173.38 440.91,173.35 L434.67,173.35 L434.67,182.5 L432.75,182.5 L432.75,161.5 L434.67,161.5 z M422.31,161.5 Q423.63,161.5 424.935,161.635 Q426.24,161.77 426.96,162.01 Q427.83,162.34 428.34,162.79 Q429,163.36 429.315,164.32 Q429.63,165.28 429.69,166.87 L429.69,167.26 L427.86,167.26 L427.86,166.69 Q427.71,164.98 427.32,164.47 Q427.32,164.41 426.855,164.14 Q426.39,163.87 425.28,163.63 Q424.17,163.39 422.31,163.39 Q419.97,163.39 418.71,163.765 Q417.45,164.14 417.24,164.5 Q416.85,165.19 416.76,166.78 L416.76,167.74 Q416.85,169.18 417.24,169.99 Q417.45,170.32 418.725,170.695 Q420,171.07 422.31,171.07 Q423.57,171.07 424.89,171.205 Q426.21,171.34 426.96,171.55 Q427.71,171.79 428.19,172.24 L428.43,172.48 Q429.03,173.05 429.33,173.98 Q429.63,174.91 429.69,176.47 L429.69,177.1 Q429.63,178.66 429.33,179.59 Q429.03,180.52 428.43,181.12 L428.37,181.21 L428.25,181.3 Q428.16,181.42 427.74,181.69 L426.96,182.02 Q426.3,182.17 426,182.23 Q425.1,182.38 424.59,182.41 Q423.93,182.47 423.57,182.47 L423.48,182.47 Q423.06,182.5 422.31,182.5 Q420.96,182.5 419.655,182.365 Q418.35,182.23 417.66,181.99 Q416.82,181.75 416.22,181.18 Q415.62,180.61 415.305,179.68 Q414.99,178.75 414.9,177.25 L414.87,177.07 L414.87,176.47 L416.76,176.47 L416.76,177.28 Q416.85,178.78 417.24,179.53 Q417.36,179.71 417.915,179.965 Q418.47,180.22 419.58,180.43 Q420.69,180.64 422.31,180.64 L422.97,180.64 Q423.57,180.64 424.275,180.55 Q424.98,180.46 425.25,180.4 Q426.21,180.22 426.705,179.98 Q427.2,179.74 427.32,179.56 Q427.71,178.99 427.86,177.31 L427.86,176.2 Q427.74,174.64 427.32,173.98 Q427.32,173.92 426.855,173.665 Q426.39,173.41 425.28,173.17 Q424.17,172.93 422.31,172.93 Q420.99,172.93 420.06,172.81 Q418.29,172.66 417.66,172.45 Q416.88,172.21 416.22,171.61 Q415.59,171.04 415.275,170.065 Q414.96,169.09 414.87,167.5 L414.87,166.93 Q414.96,165.34 415.275,164.365 Q415.59,163.39 416.22,162.82 Q416.85,162.31 417.66,162.01 Q418.35,161.77 419.655,161.635 Q420.96,161.5 422.31,161.5 z"/>
    </clipPath>
    <filter id="InnerShadow_10">
      <feGaussianBlur in="SourceAlpha" stdDeviation="1.5"/>
      <feOffset dx="0" dy="2" result="offsetblur"/>
      <feFlood flood-color="#000000"/>
      <feComposite in2="offsetblur" operator="in"/>
    </filter>
  </defs>
  <g id="Layer_1" display="none">
    <path d="M0,4.5 L369.5,4.5 L369.5,68 L0,68 L0,4.5 z" fill="#FFFFFF"/>
    <g>
      <text transform="matrix(1, 0, 0, 1, 260, 56.5)">
        <tspan x="-245.5" y="-14.5" font-family="Anurati-Regular" font-size="30" fill="#A3B6C4">SWITCH KICK STUDIOS</tspan>
      </text>
      <path d="M9.5,11 L336.24,11 L336.24,49 L9.5,49 z M32.92,18 L28.45,18 L38.23,37.53 L40.48,33.03 L32.92,18 z M21.49,18 C19.54,18 17.89,18.69 16.54,20.07 C15.19,21.45 14.5,23.07 14.5,24.99 C14.5,26.94 15.19,28.59 16.54,29.97 C17.89,31.32 19.54,32.01 21.49,32.01 L27.46,32.01 C28.3,32.01 28.99,32.31 29.59,32.91 C30.16,33.51 30.49,34.2 30.49,35.01 C30.49,35.43 30.4,35.82 30.25,36.18 C30.1,36.57 29.89,36.87 29.62,37.14 C29.35,37.41 29.02,37.62 28.63,37.77 C28.27,37.92 27.88,37.98 27.46,37.98 L27.46,42 C29.41,42 31.06,41.31 32.41,39.96 C33.79,38.58 34.48,36.93 34.48,35.01 C34.48,33.09 33.79,31.44 32.41,30.06 C31.06,28.71 29.41,28.02 27.46,28.02 L21.49,28.02 C20.62,28.02 19.93,27.72 19.33,27.12 C18.76,26.52 18.49,25.83 18.49,24.99 C18.49,24.6 18.55,24.21 18.7,23.85 C18.85,23.49 19.06,23.16 19.33,22.89 C19.63,22.59 19.93,22.38 20.32,22.23 C20.68,22.08 21.07,22.02 21.49,22.02 L21.49,18 z M67.54,18 L63.07,18 L55.54,33.03 L50.23,22.47 L47.98,26.97 L55.54,42 L67.54,18 z M70.96,18 L70.96,42 L74.95,37.98 L74.95,21.96 L70.96,18 z M87.16,18 L75.16,18 L75.16,42 L79.18,42 L79.18,22.02 L87.16,22.02 L87.16,18 z M98.14,18 C96.49,18 94.93,18.33 93.49,18.96 C92.02,19.59 90.76,20.43 89.65,21.54 C88.57,22.62 87.7,23.88 87.07,25.32 C86.44,26.79 86.11,28.35 86.11,30 C86.11,31.62 86.44,33.15 87.07,34.62 C87.7,36.09 88.57,37.35 89.65,38.46 C90.76,39.54 92.02,40.41 93.49,41.04 C94.93,41.67 96.49,42 98.14,42 C99.79,42 101.35,41.7 102.79,41.07 L98.14,37.98 C97.03,37.98 96.01,37.77 95.02,37.38 C94.06,36.96 93.22,36.39 92.5,35.64 C91.75,34.92 91.18,34.08 90.76,33.12 C90.34,32.13 90.13,31.11 90.13,30 C90.13,28.89 90.34,27.87 90.76,26.88 C91.18,25.92 91.75,25.08 92.47,24.36 C93.19,23.61 94.03,23.04 95.02,22.62 C95.98,22.23 97.03,22.02 98.14,22.02 C100.3,22.02 102.19,22.77 103.78,24.33 L106.63,21.54 C105.52,20.43 104.23,19.56 102.79,18.93 C101.35,18.3 99.79,18 98.14,18 z M123.19,18 L119.2,18 L119.2,27.99 L107.2,27.99 L103.21,32.01 L103.21,42 L107.2,42 L107.2,32.01 L119.2,32.01 L119.2,42 L123.19,42 L123.19,18 z M152.98,18 L147.34,18 L136.96,28.35 L135.28,30.03 L136.96,31.68 L147.34,42 L152.98,42 L140.98,30 L152.98,18 z M156.43,18 L156.43,42 L160.42,37.98 L160.42,21.96 L156.43,18 z M172.66,18 C171.01,18 169.45,18.33 168.01,18.96 C166.54,19.59 165.28,20.43 164.17,21.54 C163.09,22.62 162.22,23.88 161.59,25.32 C160.96,26.79 160.63,28.35 160.63,30 C160.63,31.62 160.96,33.15 161.59,34.62 C162.22,36.09 163.09,37.35 164.17,38.46 C165.28,39.54 166.54,40.41 168.01,41.04 C169.45,41.67 171.01,42 172.66,42 C174.31,42 175.87,41.7 177.31,41.07 L172.66,37.98 C171.55,37.98 170.53,37.77 169.54,37.38 C168.58,36.96 167.74,36.39 167.02,35.64 C166.27,34.92 165.7,34.08 165.28,33.12 C164.86,32.13 164.65,31.11 164.65,30 C164.65,28.89 164.86,27.87 165.28,26.88 C165.7,25.92 166.27,25.08 166.99,24.36 C167.71,23.61 168.55,23.04 169.54,22.62 C170.5,22.23 171.55,22.02 172.66,22.02 C174.82,22.02 176.71,22.77 178.3,24.33 L181.15,21.54 C180.04,20.43 178.75,19.56 177.31,18.93 C175.87,18.3 174.31,18 172.66,18 z M192.28,18 L186.64,18 L176.26,28.35 L174.58,30.03 L176.26,31.68 L186.64,42 L192.28,42 L180.28,30 L192.28,18 z M210.22,18 C208.27,18 206.62,18.69 205.27,20.07 C203.92,21.45 203.23,23.07 203.23,24.99 C203.23,26.94 203.92,28.59 205.27,29.97 C206.62,31.32 208.27,32.01 210.22,32.01 L216.19,32.01 C217.03,32.01 217.72,32.31 218.32,32.91 C218.89,33.51 219.22,34.2 219.22,35.01 C219.22,35.43 219.13,35.82 218.98,36.18 C218.83,36.57 218.62,36.87 218.35,37.14 C218.08,37.41 217.75,37.62 217.36,37.77 C217,37.92 216.61,37.98 216.19,37.98 L216.19,42 C218.14,42 219.79,41.31 221.14,39.96 C222.52,38.58 223.21,36.93 223.21,35.01 C223.21,33.09 222.52,31.44 221.14,30.06 C219.79,28.71 218.14,28.02 216.19,28.02 L210.22,28.02 C209.35,28.02 208.66,27.72 208.06,27.12 C207.49,26.52 207.22,25.83 207.22,24.99 C207.22,24.6 207.28,24.21 207.43,23.85 C207.58,23.49 207.79,23.16 208.06,22.89 C208.36,22.59 208.66,22.38 209.05,22.23 C209.41,22.08 209.8,22.02 210.22,22.02 L210.22,18 z M239.32,18 L227.32,18 L227.32,42 L231.34,42 L231.34,22.02 L239.32,22.02 L239.32,18 z M246.61,18 L242.62,18 L242.62,32.01 C242.62,34.74 243.58,37.14 245.53,39.09 C247.48,41.04 249.85,42 252.58,42 C255.31,42 257.71,41.04 259.66,39.09 C261.64,37.14 262.6,34.77 262.6,32.01 L258.61,32.01 C258.61,33.63 257.98,35.04 256.81,36.21 C255.64,37.38 254.23,37.98 252.58,37.98 C250.93,37.98 249.49,37.41 248.32,36.21 C247.18,35.07 246.61,33.66 246.61,32.01 L246.61,18 z M265.36,18 L257.38,18 L261.37,22.02 L265.36,22.02 C266.44,22.02 267.49,22.23 268.45,22.62 C269.41,23.04 270.28,23.64 271,24.36 C271.75,25.11 272.32,25.95 272.74,26.91 C273.16,27.9 273.37,28.92 273.37,30 C273.37,31.08 273.16,32.1 272.74,33.09 C272.32,34.05 271.75,34.89 271.03,35.64 C270.31,36.39 269.44,36.96 268.48,37.38 C267.52,37.77 266.47,37.98 265.36,37.98 L261.37,37.98 L257.38,42 L265.36,42 C267.01,42 268.57,41.67 270.01,41.04 C271.48,40.41 272.77,39.54 273.85,38.46 C274.93,37.35 275.77,36.09 276.43,34.62 C277.06,33.18 277.36,31.65 277.36,30 C277.36,28.35 277.06,26.82 276.43,25.38 C275.77,23.91 274.93,22.65 273.82,21.54 C272.74,20.46 271.45,19.59 270.01,18.96 C268.54,18.33 267.01,18 265.36,18 z M282.28,18 L282.28,42 L286.27,37.98 L286.27,21.96 L282.28,18 z M298.48,22.02 C300.67,22.02 302.56,22.8 304.12,24.36 C305.68,25.92 306.46,27.81 306.46,30 C306.46,32.19 305.71,34.08 304.12,35.67 C302.56,37.23 300.67,37.98 298.48,37.98 C296.29,37.98 294.37,37.23 292.81,35.67 C291.25,34.11 290.5,32.19 290.5,30 C290.5,27.81 291.25,25.92 292.81,24.36 C294.4,22.77 296.29,22.02 298.48,22.02 z M298.48,18 C295.15,18 292.33,19.2 290.02,21.54 C287.68,23.88 286.48,26.7 286.48,30 C286.48,33.33 287.68,36.12 290.02,38.46 C292.36,40.8 295.15,42 298.48,42 C301.81,42 304.6,40.8 306.94,38.46 C309.31,36.15 310.51,33.33 310.51,30 C310.51,26.7 309.31,23.88 306.94,21.54 C304.6,19.2 301.81,18 298.48,18 z M318.25,18 C316.3,18 314.65,18.69 313.3,20.07 C311.95,21.45 311.26,23.07 311.26,24.99 C311.26,26.94 311.95,28.59 313.3,29.97 C314.65,31.32 316.3,32.01 318.25,32.01 L324.22,32.01 C325.06,32.01 325.75,32.31 326.35,32.91 C326.92,33.51 327.25,34.2 327.25,35.01 C327.25,35.43 327.16,35.82 327.01,36.18 C326.86,36.57 326.65,36.87 326.38,37.14 C326.11,37.41 325.78,37.62 325.39,37.77 C325.03,37.92 324.64,37.98 324.22,37.98 L324.22,42 C326.17,42 327.82,41.31 329.17,39.96 C330.55,38.58 331.24,36.93 331.24,35.01 C331.24,33.09 330.55,31.44 329.17,30.06 C327.82,28.71 326.17,28.02 324.22,28.02 L318.25,28.02 C317.38,28.02 316.69,27.72 316.09,27.12 C315.52,26.52 315.25,25.83 315.25,24.99 C315.25,24.6 315.31,24.21 315.46,23.85 C315.61,23.49 315.82,23.16 316.09,22.89 C316.39,22.59 316.69,22.38 317.08,22.23 C317.44,22.08 317.83,22.02 318.25,22.02 L318.25,18 z" clip-path="url(#Clip_1)" filter="url(#InnerShadow_2)" fill="rgba(0,0,0,0.75)"/>
    </g>
    <path d="M391.5,7.5 L761,7.5 L761,71 L391.5,71 L391.5,7.5 z" fill="#FFFFFF"/>
    <g>
      <text transform="matrix(1, 0, 0, 1, 651.5, 59.5)">
        <tspan x="-245.5" y="-14.5" font-family="Anurati-Regular" font-size="30" fill="#A3B6C4">SKS</tspan>
      </text>
      <path d="M401,14 L465.33,14 L465.33,52 L401,52 z M412.99,21 C411.04,21 409.39,21.69 408.04,23.07 C406.69,24.45 406,26.07 406,27.99 C406,29.94 406.69,31.59 408.04,32.97 C409.39,34.32 411.04,35.01 412.99,35.01 L418.96,35.01 C419.8,35.01 420.49,35.31 421.09,35.91 C421.66,36.51 421.99,37.2 421.99,38.01 C421.99,38.43 421.9,38.82 421.75,39.18 C421.6,39.57 421.39,39.87 421.12,40.14 C420.85,40.41 420.52,40.62 420.13,40.77 C419.77,40.92 419.38,40.98 418.96,40.98 L418.96,45 C420.91,45 422.56,44.31 423.91,42.96 C425.29,41.58 425.98,39.93 425.98,38.01 C425.98,36.09 425.29,34.44 423.91,33.06 C422.56,31.71 420.91,31.02 418.96,31.02 L412.99,31.02 C412.12,31.02 411.43,30.72 410.83,30.12 C410.26,29.52 409.99,28.83 409.99,27.99 C409.99,27.6 410.05,27.21 410.2,26.85 C410.35,26.49 410.56,26.16 410.83,25.89 C411.13,25.59 411.43,25.38 411.82,25.23 C412.18,25.08 412.57,25.02 412.99,25.02 L412.99,21 z M442.75,21 L437.11,21 L426.73,31.35 L425.05,33.03 L426.73,34.68 L437.11,45 L442.75,45 L430.75,33 L442.75,21 z M447.34,21 C445.39,21 443.74,21.69 442.39,23.07 C441.04,24.45 440.35,26.07 440.35,27.99 C440.35,29.94 441.04,31.59 442.39,32.97 C443.74,34.32 445.39,35.01 447.34,35.01 L453.31,35.01 C454.15,35.01 454.84,35.31 455.44,35.91 C456.01,36.51 456.34,37.2 456.34,38.01 C456.34,38.43 456.25,38.82 456.1,39.18 C455.95,39.57 455.74,39.87 455.47,40.14 C455.2,40.41 454.87,40.62 454.48,40.77 C454.12,40.92 453.73,40.98 453.31,40.98 L453.31,45 C455.26,45 456.91,44.31 458.26,42.96 C459.64,41.58 460.33,39.93 460.33,38.01 C460.33,36.09 459.64,34.44 458.26,33.06 C456.91,31.71 455.26,31.02 453.31,31.02 L447.34,31.02 C446.47,31.02 445.78,30.72 445.18,30.12 C444.61,29.52 444.34,28.83 444.34,27.99 C444.34,27.6 444.4,27.21 444.55,26.85 C444.7,26.49 444.91,26.16 445.18,25.89 C445.48,25.59 445.78,25.38 446.17,25.23 C446.53,25.08 446.92,25.02 447.34,25.02 L447.34,21 z" clip-path="url(#Clip_3)" filter="url(#InnerShadow_4)" fill="rgba(0,0,0,0.75)"/>
    </g>
  </g>
  <g id="Layer_1_Copy">
    <path d="M0,68 L369.5,68 L369.5,131.5 L0,131.5 L0,68 z" fill="#000000" display="none"/>
    <g display="none">
      <text transform="matrix(1, 0, 0, 1, 260, 120)">
        <tspan x="-245.5" y="-8.5" font-family="Blanka-Regular" font-size="30" fill="#52A1FF">SWITCH KICK STUDIOS</tspan>
      </text>
      <g>
        <path d="M321.94,87.5 C326.05,87.5 329.23,90.26 329.29,94.34 C329.32,94.43 329.17,94.58 328.96,94.58 L325.21,94.58 C325.03,94.58 324.88,94.43 324.88,94.34 C324.82,92.63 323.5,91.82 321.94,91.82 C320.29,91.82 318.94,92.81 318.94,94.73 C318.94,96.47 320.41,97.37 321.94,97.37 C322.09,97.37 323.77,97.37 325.48,98.18 C328,99.35 329.38,101.69 329.38,104.51 C329.38,109.01 325.78,111.5 321.94,111.5 L321.91,111.5 L321.91,107.18 C321.94,107.18 321.94,107.18 321.94,107.18 C323.53,107.18 324.94,106.1 324.94,104.51 C324.94,102.74 323.29,101.66 321.94,101.6 C321.73,101.6 320.11,101.6 318.37,100.79 C315.88,99.65 314.47,97.52 314.47,94.73 C314.47,90.23 318.1,87.5 321.94,87.5 z M301.81,87.5 C309.46,87.5 313.33,93.5 313.33,99.47 C313.33,105.47 309.46,111.5 301.81,111.5 C294.04,111.5 290.23,105.47 290.23,99.47 C290.23,93.5 294.04,87.5 301.81,87.5 z M301.81,91.73 C297.1,91.73 294.76,95.63 294.76,99.56 C294.76,103.43 297.1,107.3 301.81,107.3 C306.46,107.3 308.83,103.43 308.83,99.56 C308.83,95.63 306.46,91.73 301.81,91.73 z M301.78,97.28 C303.04,97.28 304.03,98.3 304.03,99.56 C304.03,100.79 303.04,101.81 301.78,101.81 C300.52,101.81 299.53,100.79 299.53,99.56 C299.53,98.3 300.52,97.28 301.78,97.28 z M286.99,87.5 L286.99,107.39 L289.39,107.39 C289.6,107.39 289.72,107.51 289.72,107.66 L289.72,111.23 C289.72,111.35 289.6,111.5 289.39,111.5 L279.94,111.5 C279.76,111.5 279.61,111.35 279.61,111.23 L279.61,107.66 C279.61,107.51 279.76,107.39 279.94,107.39 L282.4,107.39 L282.4,87.5 L286.99,87.5 z M264.64,87.5 C270.49,87.5 278.68,88.85 278.68,99.5 C278.68,109.76 270.61,111.5 264.64,111.5 L260.71,111.5 C260.53,111.5 260.38,111.35 260.38,111.23 L260.38,101.81 L264.97,101.81 L264.97,107.09 C267.88,107.21 274.06,106.91 274.06,99.5 C274.06,93.8 270.19,91.61 264.97,91.88 L264.97,97.19 L260.38,97.19 L260.38,87.77 C260.38,87.65 260.53,87.5 260.71,87.5 L264.64,87.5 z M259.18,87.5 C259.33,87.5 259.48,87.65 259.48,87.77 L259.48,103.49 C259.48,108.56 255.58,111.5 250.48,111.5 C245.53,111.5 241.48,108.44 241.48,103.49 L241.48,91.85 L246.01,91.85 L246.01,103.46 C246.28,105.83 248.26,107.09 250.48,107.09 C252.73,107.09 254.95,105.92 254.95,103.49 L254.95,87.77 C254.95,87.65 255.07,87.5 255.28,87.5 L259.18,87.5 z M235.84,96.2 L235.84,111.23 C235.84,111.35 235.69,111.5 235.48,111.5 L231.61,111.5 C231.4,111.5 231.28,111.35 231.28,111.23 L231.28,96.2 L235.84,96.2 z M218.14,87.5 C222.25,87.5 225.43,90.26 225.49,94.34 C225.52,94.43 225.37,94.58 225.16,94.58 L221.41,94.58 C221.23,94.58 221.08,94.43 221.08,94.34 C221.02,92.63 219.7,91.82 218.14,91.82 C216.49,91.82 215.14,92.81 215.14,94.73 C215.14,96.47 216.61,97.37 218.14,97.37 C218.29,97.37 219.97,97.37 221.68,98.18 C224.2,99.35 225.58,101.69 225.58,104.51 C225.58,109.01 221.98,111.5 218.14,111.5 L218.11,111.5 L218.11,107.18 C218.14,107.18 218.14,107.18 218.14,107.18 C219.73,107.18 221.14,106.1 221.14,104.51 C221.14,102.74 219.49,101.66 218.14,101.6 C217.93,101.6 216.31,101.6 214.57,100.79 C212.08,99.65 210.67,97.52 210.67,94.73 C210.67,90.23 214.3,87.5 218.14,87.5 z M187.27,87.5 C187.45,87.5 187.57,87.65 187.57,87.77 L187.57,98.69 L196.6,87.59 C196.63,87.56 196.81,87.5 196.87,87.5 L201.76,87.5 C202.09,87.5 202.24,87.74 202.03,87.95 L192.49,99.71 L202.12,111.05 C202.3,111.29 202.15,111.5 201.85,111.5 L196.69,111.5 C196.63,111.5 196.45,111.44 196.42,111.41 L189.43,102.77 C188.83,103.4 182.98,110.03 182.98,110.03 L182.98,87.77 C182.98,87.65 183.13,87.5 183.31,87.5 L187.27,87.5 z M181.72,87.5 C181.93,87.5 182.05,87.65 182.05,87.77 L182.05,97.19 L177.46,97.19 L177.46,91.88 C172.24,91.61 168.37,93.8 168.37,99.5 C168.37,106.91 174.55,107.21 177.46,107.09 L182.05,107.09 L182.05,111.23 C182.05,111.35 181.93,111.5 181.72,111.5 L177.82,111.5 C171.85,111.5 163.75,109.76 163.75,99.5 C163.75,88.85 171.94,87.5 177.82,87.5 L181.72,87.5 z M160.51,87.5 L160.51,107.39 L162.91,107.39 C163.12,107.39 163.24,107.51 163.24,107.66 L163.24,111.23 C163.24,111.35 163.12,111.5 162.91,111.5 L153.46,111.5 C153.28,111.5 153.13,111.35 153.13,111.23 L153.13,107.66 C153.13,107.51 153.28,107.39 153.46,107.39 L155.92,107.39 L155.92,87.5 L160.51,87.5 z M137.23,87.5 C137.41,87.5 137.53,87.65 137.53,87.77 L137.53,98.69 L146.56,87.59 C146.59,87.56 146.77,87.5 146.83,87.5 L151.72,87.5 C152.05,87.5 152.2,87.74 151.99,87.95 L142.45,99.71 L152.08,111.05 C152.26,111.29 152.11,111.5 151.81,111.5 L146.65,111.5 C146.59,111.5 146.41,111.44 146.38,111.41 L139.39,102.77 C138.79,103.4 132.94,110.03 132.94,110.03 L132.94,87.77 C132.94,87.65 133.09,87.5 133.27,87.5 L137.23,87.5 z M124.18,87.5 C124.39,87.5 124.51,87.65 124.51,87.77 L124.51,111.23 C124.51,111.35 124.39,111.5 124.18,111.5 L120.25,111.5 C120.07,111.5 119.92,111.35 119.92,111.23 L119.92,107 L110.83,107 L110.83,111.23 C110.83,111.35 110.71,111.5 110.5,111.5 L106.57,111.5 C106.39,111.5 106.24,111.35 106.24,111.23 L106.24,102.5 L110.83,102.5 L110.83,102.53 L119.92,102.53 L119.92,87.77 C119.92,87.65 120.07,87.5 120.25,87.5 L124.18,87.5 z M104.98,87.5 C105.19,87.5 105.31,87.65 105.31,87.77 L105.31,97.19 L100.72,97.19 L100.72,91.88 C95.5,91.61 91.63,93.8 91.63,99.5 C91.63,106.91 97.81,107.21 100.72,107.09 L105.31,107.09 L105.31,111.23 C105.31,111.35 105.19,111.5 104.98,111.5 L101.08,111.5 C95.11,111.5 87.01,109.76 87.01,99.5 C87.01,88.85 95.2,87.5 101.08,87.5 L104.98,87.5 z M81.37,96.2 L81.37,111.23 C81.37,111.35 81.22,111.5 81.01,111.5 L77.14,111.5 C76.93,111.5 76.81,111.35 76.81,111.23 L76.81,96.2 L81.37,96.2 z M68.62,87.5 L68.62,107.39 L71.02,107.39 C71.23,107.39 71.35,107.51 71.35,107.66 L71.35,111.23 C71.35,111.35 71.23,111.5 71.02,111.5 L61.57,111.5 C61.39,111.5 61.24,111.35 61.24,111.23 L61.24,107.66 C61.24,107.51 61.39,107.39 61.57,107.39 L64.03,107.39 L64.03,87.5 L68.62,87.5 z M21.97,87.5 C26.08,87.5 29.26,90.26 29.32,94.34 C29.35,94.43 29.2,94.58 28.99,94.58 L25.24,94.58 C25.06,94.58 24.91,94.43 24.91,94.34 C24.85,92.63 23.53,91.82 21.97,91.82 C20.32,91.82 18.97,92.81 18.97,94.73 C18.97,96.47 20.44,97.37 21.97,97.37 C22.12,97.37 23.8,97.37 25.51,98.18 C28.03,99.35 29.41,101.69 29.41,104.51 C29.41,109.01 25.81,111.5 21.97,111.5 L21.94,111.5 L21.94,107.18 C21.97,107.18 21.97,107.18 21.97,107.18 C23.56,107.18 24.97,106.1 24.97,104.51 C24.97,102.74 23.32,101.66 21.97,101.6 C21.76,101.6 20.14,101.6 18.4,100.79 C15.91,99.65 14.5,97.52 14.5,94.73 C14.5,90.23 18.13,87.5 21.97,87.5 z M46.99,87.5 C47.11,87.5 47.23,87.56 47.29,87.68 L52.03,100.16 L55.09,91.91 L59.77,91.91 L52.3,111.32 C52.21,111.56 51.82,111.56 51.73,111.32 L44.95,93.53 L38.17,111.32 C38.08,111.56 37.69,111.56 37.6,111.32 L30.16,91.91 L34.84,91.91 L37.87,100.16 L42.64,87.68 C42.67,87.56 42.79,87.5 42.91,87.5 L46.99,87.5 z M110.5,87.5 C110.71,87.5 110.83,87.65 110.83,87.77 L110.83,97.91 L106.24,97.91 L106.24,87.77 C106.24,87.65 106.39,87.5 106.57,87.5 L110.5,87.5 z M240.43,87.5 C240.64,87.5 240.76,87.65 240.76,87.77 L240.76,91.34 C240.76,91.49 240.64,91.61 240.43,91.61 L226.66,91.61 C226.48,91.61 226.33,91.49 226.33,91.34 L226.33,87.77 C226.33,87.65 226.48,87.5 226.66,87.5 L240.43,87.5 z M85.96,87.5 C86.17,87.5 86.29,87.65 86.29,87.77 L86.29,91.34 C86.29,91.49 86.17,91.61 85.96,91.61 L72.19,91.61 C72.01,91.61 71.86,91.49 71.86,91.34 L71.86,87.77 C71.86,87.65 72.01,87.5 72.19,87.5 L85.96,87.5 z" fill="rgba(0,0,0,0.75)" clip-path="url(#Clip_5)" filter="url(#Shadow_6)"/>
        <path d="M321.94,88.75 C325.464,88.75 327.992,91.055 328.04,94.358 C328.042,94.487 328.064,94.614 328.104,94.735 C327.803,93.832 328.421,93.33 328.96,93.33 L325.21,93.33 C325.687,93.33 326.13,93.69 326.13,94.34 C326.047,91.963 324.265,90.57 321.94,90.57 C319.505,90.57 317.69,92.198 317.69,94.73 C317.69,97.101 319.608,98.62 321.94,98.62 C322.761,98.62 323.843,98.788 324.945,99.31 C326.991,100.26 328.13,102.13 328.13,104.51 C328.13,107.973 325.478,110.25 321.94,110.25 L321.91,110.25 L321.91,111.5 L323.16,111.5 L323.16,107.18 L321.91,107.18 L321.91,108.43 C321.94,108.43 321.94,108.43 321.94,108.43 C324.249,108.43 326.19,106.78 326.19,104.51 C326.19,102.179 324.172,100.448 321.996,100.351 C321.086,100.35 320.034,100.186 318.898,99.657 C316.822,98.707 315.72,97.006 315.72,94.73 C315.72,91.216 318.468,88.75 321.94,88.75 z M321.94,86.25 C317.144,86.25 313.22,89.771 313.22,94.73 C313.22,97.989 314.896,100.575 317.85,101.926 C318.724,102.334 319.635,102.593 320.536,102.734 C321.111,102.824 321.547,102.85 321.94,102.85 C322.82,102.89 323.69,103.637 323.69,104.51 C323.69,105.301 322.95,105.93 321.94,105.93 C321.94,105.93 321.94,105.93 321.91,105.93 C321.22,105.93 320.66,106.49 320.66,107.18 L320.66,111.5 C320.66,112.19 321.22,112.75 321.91,112.75 L321.94,112.75 C326.782,112.75 330.63,109.446 330.63,104.51 C330.63,101.176 328.946,98.411 326.006,97.046 C325.145,96.638 324.23,96.378 323.317,96.236 C322.744,96.147 322.303,96.12 321.94,96.12 C320.878,96.12 320.19,95.575 320.19,94.73 C320.19,93.643 320.829,93.07 321.94,93.07 C323.019,93.07 323.601,93.525 323.631,94.384 C323.63,95.198 324.408,95.83 325.21,95.83 L328.96,95.83 C329.884,95.83 330.844,95.05 330.476,93.945 L329.29,94.34 L330.54,94.322 C330.471,89.607 326.789,86.25 321.94,86.25 z M301.81,88.75 C308.089,88.75 312.08,93.41 312.08,99.47 C312.08,105.564 308.087,110.25 301.81,110.25 C295.443,110.25 291.48,105.6 291.48,99.47 C291.48,93.375 295.441,88.75 301.81,88.75 z M301.81,86.25 C293.967,86.25 288.98,92.073 288.98,99.47 C288.98,106.899 293.966,112.75 301.81,112.75 C309.564,112.75 314.58,106.864 314.58,99.47 C314.58,92.108 309.563,86.25 301.81,86.25 z M301.81,90.48 C296.732,90.48 293.51,94.505 293.51,99.56 C293.51,104.557 296.739,108.55 301.81,108.55 C306.836,108.55 310.08,104.539 310.08,99.56 C310.08,94.523 306.843,90.48 301.81,90.48 z M301.81,92.98 C305.325,92.98 307.58,95.797 307.58,99.56 C307.58,103.261 305.324,106.05 301.81,106.05 C298.251,106.05 296.01,103.28 296.01,99.56 C296.01,95.778 298.25,92.98 301.81,92.98 z M301.78,98.53 C302.339,98.53 302.78,98.979 302.78,99.56 C302.78,100.113 302.337,100.56 301.78,100.56 C301.223,100.56 300.78,100.113 300.78,99.56 C300.78,98.979 301.221,98.53 301.78,98.53 z M301.78,96.03 C299.83,96.03 298.28,97.609 298.28,99.56 C298.28,101.488 299.837,103.06 301.78,103.06 C303.723,103.06 305.28,101.488 305.28,99.56 C305.28,97.609 303.73,96.03 301.78,96.03 z M285.74,87.5 L285.74,107.39 C285.74,108.08 286.3,108.64 286.99,108.64 L289.39,108.64 C288.937,108.64 288.47,108.235 288.47,107.66 L288.47,111.23 C288.47,110.659 288.908,110.25 289.39,110.25 L279.94,110.25 C280.427,110.25 280.86,110.629 280.86,111.23 L280.86,107.66 C280.86,108.265 280.399,108.64 279.94,108.64 L282.4,108.64 C283.09,108.64 283.65,108.08 283.65,107.39 L283.65,87.5 L282.4,88.75 L286.99,88.75 L285.74,87.5 z M288.24,87.5 C288.24,86.81 287.68,86.25 286.99,86.25 L282.4,86.25 C281.71,86.25 281.15,86.81 281.15,87.5 L281.15,107.39 L282.4,106.14 L279.94,106.14 C279.119,106.14 278.36,106.757 278.36,107.66 L278.36,111.23 C278.36,112.09 279.115,112.75 279.94,112.75 L289.39,112.75 C290.251,112.75 290.97,112.079 290.97,111.23 L290.97,107.66 C290.97,106.769 290.245,106.14 289.39,106.14 L286.99,106.14 L288.24,107.39 L288.24,87.5 z M264.64,88.75 C272.86,88.75 277.43,91.494 277.43,99.5 C277.43,107.275 272.642,110.25 264.64,110.25 L260.71,110.25 C261.197,110.25 261.63,110.629 261.63,111.23 L261.63,101.81 L260.38,103.06 L264.97,103.06 L263.72,101.81 L263.72,107.09 C263.72,107.76 264.249,108.311 264.918,108.339 C267.299,108.437 269.353,108.173 271.18,107.229 C273.811,105.87 275.31,103.307 275.31,99.5 C275.31,93.383 271.242,90.304 264.905,90.632 C264.241,90.666 263.72,91.215 263.72,91.88 L263.72,97.19 L264.97,95.94 L260.38,95.94 L261.63,97.19 L261.63,87.77 C261.63,88.371 261.197,88.75 260.71,88.75 L264.64,88.75 z M264.64,86.25 L260.71,86.25 C259.885,86.25 259.13,86.91 259.13,87.77 L259.13,97.19 C259.13,97.88 259.69,98.44 260.38,98.44 L264.97,98.44 C265.66,98.44 266.22,97.88 266.22,97.19 L266.22,91.88 L265.035,93.128 C270.052,92.869 272.81,94.956 272.81,99.5 C272.81,104.545 269.911,106.043 265.022,105.841 L266.22,107.09 L266.22,101.81 C266.22,101.12 265.66,100.56 264.97,100.56 L260.38,100.56 C259.69,100.56 259.13,101.12 259.13,101.81 L259.13,111.23 C259.13,112.09 259.885,112.75 260.71,112.75 L264.64,112.75 C273.848,112.75 279.93,108.97 279.93,99.5 C279.93,94.184 278.002,90.539 274.497,88.435 C271.855,86.848 268.61,86.25 264.64,86.25 z M259.18,88.75 C258.653,88.75 258.23,88.355 258.23,87.77 L258.23,103.49 C258.23,107.635 255.149,110.25 250.48,110.25 C245.958,110.25 242.73,107.512 242.73,103.49 L242.73,91.85 L241.48,93.1 L246.01,93.1 L244.76,91.85 L244.76,103.46 L244.768,103.601 C245.1,106.518 247.504,108.34 250.48,108.34 C253.637,108.34 256.2,106.512 256.2,103.49 L256.2,87.77 C256.2,88.341 255.762,88.75 255.28,88.75 L259.18,88.75 z M259.18,86.25 L255.28,86.25 C254.419,86.25 253.7,86.921 253.7,87.77 L253.7,103.49 C253.7,104.915 252.402,105.84 250.48,105.84 C248.698,105.84 247.43,104.878 247.252,103.319 L247.26,103.46 L247.26,91.85 C247.26,91.16 246.7,90.6 246.01,90.6 L241.48,90.6 C240.79,90.6 240.23,91.16 240.23,91.85 L240.23,103.49 C240.23,108.992 244.66,112.75 250.48,112.75 C256.447,112.75 260.73,109.115 260.73,103.49 L260.73,87.77 C260.73,86.935 259.996,86.25 259.18,86.25 z M234.59,96.2 L234.59,111.23 C234.59,110.613 235.031,110.25 235.48,110.25 L231.61,110.25 C232.092,110.25 232.53,110.659 232.53,111.23 L232.53,96.2 L231.28,97.45 L235.84,97.45 L234.59,96.2 z M237.09,96.2 C237.09,95.51 236.53,94.95 235.84,94.95 L231.28,94.95 C230.59,94.95 230.03,95.51 230.03,96.2 L230.03,111.23 C230.03,112.079 230.749,112.75 231.61,112.75 L235.48,112.75 C236.317,112.75 237.09,112.113 237.09,111.23 L237.09,96.2 z M218.14,88.75 C221.664,88.75 224.192,91.055 224.24,94.358 C224.242,94.487 224.264,94.614 224.304,94.735 C224.003,93.832 224.621,93.33 225.16,93.33 L221.41,93.33 C221.887,93.33 222.33,93.69 222.33,94.34 C222.247,91.963 220.465,90.57 218.14,90.57 C215.705,90.57 213.89,92.198 213.89,94.73 C213.89,97.101 215.808,98.62 218.14,98.62 C218.961,98.62 220.043,98.788 221.145,99.31 C223.191,100.26 224.33,102.13 224.33,104.51 C224.33,107.973 221.678,110.25 218.14,110.25 L218.11,110.25 L218.11,111.5 L219.36,111.5 L219.36,107.18 L218.11,107.18 L218.11,108.43 C218.14,108.43 218.14,108.43 218.14,108.43 C220.449,108.43 222.39,106.78 222.39,104.51 C222.39,102.179 220.372,100.448 218.195,100.351 C217.286,100.35 216.234,100.186 215.098,99.657 C213.022,98.707 211.92,97.006 211.92,94.73 C211.92,91.216 214.668,88.75 218.14,88.75 z M218.14,86.25 C213.344,86.25 209.42,89.771 209.42,94.73 C209.42,97.989 211.096,100.575 214.05,101.926 C214.924,102.334 215.835,102.593 216.736,102.734 C217.311,102.824 217.747,102.85 218.14,102.85 C219.02,102.89 219.89,103.637 219.89,104.51 C219.89,105.301 219.15,105.93 218.14,105.93 C218.14,105.93 218.14,105.93 218.11,105.93 C217.42,105.93 216.86,106.49 216.86,107.18 L216.86,111.5 C216.86,112.19 217.42,112.75 218.11,112.75 L218.14,112.75 C222.982,112.75 226.83,109.446 226.83,104.51 C226.83,101.176 225.146,98.411 222.206,97.046 C221.345,96.638 220.43,96.378 219.517,96.236 C218.944,96.147 218.503,96.12 218.14,96.12 C217.078,96.12 216.39,95.575 216.39,94.73 C216.39,93.643 217.029,93.07 218.14,93.07 C219.219,93.07 219.801,93.525 219.831,94.384 C219.83,95.198 220.608,95.83 221.41,95.83 L225.16,95.83 C226.084,95.83 227.044,95.05 226.676,93.945 L225.49,94.34 L226.74,94.322 C226.671,89.607 222.989,86.25 218.14,86.25 z M187.27,88.75 C186.745,88.75 186.32,88.325 186.32,87.77 L186.32,98.69 C186.32,99.866 187.797,100.391 188.54,99.479 L197.57,88.379 L196.6,87.59 L197.484,88.474 C197.254,88.704 197.116,88.75 196.87,88.75 L201.76,88.75 C201.086,88.75 200.472,87.741 201.146,87.066 L201.059,87.163 L191.519,98.923 C191.14,99.39 191.148,100.061 191.537,100.519 L201.167,111.859 C200.628,111.145 201.198,110.25 201.85,110.25 L196.69,110.25 C196.936,110.25 197.074,110.296 197.304,110.526 L196.42,111.41 L197.392,110.624 L190.402,101.984 C189.927,101.397 189.045,101.362 188.525,101.908 C188.258,102.188 187.104,103.482 185.294,105.525 C185.284,105.536 185.284,105.536 185.275,105.547 C184.566,106.347 183.809,107.204 183.052,108.06 C182.787,108.36 182.623,108.546 182.32,108.889 C182.093,109.146 182.093,109.146 182.043,109.203 L184.23,110.03 L184.23,87.77 C184.23,88.371 183.797,88.75 183.31,88.75 L187.27,88.75 z M187.27,86.25 L183.31,86.25 C182.485,86.25 181.73,86.91 181.73,87.77 L181.73,110.03 C181.73,111.182 183.155,111.721 183.917,110.857 C183.968,110.8 183.968,110.8 184.194,110.543 C184.497,110.201 184.66,110.015 184.925,109.716 C185.681,108.86 186.439,108.004 187.146,107.205 C187.156,107.194 187.156,107.194 187.165,107.183 C188.926,105.195 190.101,103.877 190.335,103.632 L189.43,102.77 L188.458,103.556 L195.448,112.196 L195.536,112.294 C195.826,112.584 196.324,112.75 196.69,112.75 L201.85,112.75 C203.119,112.75 203.963,111.424 203.12,110.3 L193.443,98.901 L193.461,100.497 L203.001,88.737 L202.03,87.95 L202.914,88.834 C204.006,87.742 203.098,86.25 201.76,86.25 L196.87,86.25 C196.504,86.25 196.006,86.416 195.716,86.706 L195.63,86.801 L186.6,97.901 L188.82,98.69 L188.82,87.77 C188.82,86.945 188.125,86.25 187.27,86.25 z M181.72,88.75 C181.238,88.75 180.8,88.341 180.8,87.77 L180.8,97.19 L182.05,95.94 L177.46,95.94 L178.71,97.19 L178.71,91.88 C178.71,91.215 178.189,90.666 177.525,90.632 C171.188,90.304 167.12,93.383 167.12,99.5 C167.12,103.307 168.619,105.87 171.25,107.229 C173.077,108.173 175.131,108.437 177.512,108.339 L182.05,108.34 L180.8,107.09 L180.8,111.23 C180.8,110.659 181.238,110.25 181.72,110.25 L177.82,110.25 C169.806,110.25 165,107.271 165,99.5 C165,91.491 169.571,88.75 177.82,88.75 L181.72,88.75 z M181.72,86.25 L177.82,86.25 C173.834,86.25 170.584,86.847 167.937,88.434 C164.429,90.538 162.5,94.183 162.5,99.5 C162.5,108.969 168.601,112.75 177.82,112.75 L181.72,112.75 C182.581,112.75 183.3,112.079 183.3,111.23 L183.3,107.09 C183.3,106.4 182.74,105.84 182.05,105.84 L177.46,105.84 C172.519,106.043 169.62,104.545 169.62,99.5 C169.62,94.956 172.378,92.869 177.395,93.128 L176.21,91.88 L176.21,97.19 C176.21,97.88 176.77,98.44 177.46,98.44 L182.05,98.44 C182.74,98.44 183.3,97.88 183.3,97.19 L183.3,87.77 C183.3,86.921 182.581,86.25 181.72,86.25 z M159.26,87.5 L159.26,107.39 C159.26,108.08 159.82,108.64 160.51,108.64 L162.91,108.64 C162.457,108.64 161.99,108.235 161.99,107.66 L161.99,111.23 C161.99,110.659 162.428,110.25 162.91,110.25 L153.46,110.25 C153.947,110.25 154.38,110.629 154.38,111.23 L154.38,107.66 C154.38,108.265 153.919,108.64 153.46,108.64 L155.92,108.64 C156.61,108.64 157.17,108.08 157.17,107.39 L157.17,87.5 L155.92,88.75 L160.51,88.75 L159.26,87.5 z M161.76,87.5 C161.76,86.81 161.2,86.25 160.51,86.25 L155.92,86.25 C155.23,86.25 154.67,86.81 154.67,87.5 L154.67,107.39 L155.92,106.14 L153.46,106.14 C152.639,106.14 151.88,106.757 151.88,107.66 L151.88,111.23 C151.88,112.09 152.635,112.75 153.46,112.75 L162.91,112.75 C163.771,112.75 164.49,112.079 164.49,111.23 L164.49,107.66 C164.49,106.769 163.765,106.14 162.91,106.14 L160.51,106.14 L161.76,107.39 L161.76,87.5 z M137.23,88.75 C136.705,88.75 136.28,88.325 136.28,87.77 L136.28,98.69 C136.28,99.866 137.757,100.391 138.5,99.479 L147.53,88.379 L146.56,87.59 L147.444,88.474 C147.214,88.704 147.076,88.75 146.83,88.75 L151.72,88.75 C151.046,88.75 150.432,87.741 151.106,87.066 L151.019,87.163 L141.479,98.923 C141.1,99.39 141.108,100.061 141.497,100.519 L151.127,111.859 C150.588,111.145 151.158,110.25 151.81,110.25 L146.65,110.25 C146.896,110.25 147.034,110.296 147.264,110.526 L146.38,111.41 L147.352,110.624 L140.362,101.984 C139.887,101.397 139.005,101.362 138.485,101.908 C138.218,102.188 137.064,103.482 135.254,105.525 C135.244,105.536 135.244,105.536 135.235,105.547 C134.526,106.347 133.769,107.204 133.012,108.06 C132.747,108.36 132.583,108.546 132.28,108.889 C132.053,109.146 132.053,109.146 132.003,109.203 L134.19,110.03 L134.19,87.77 C134.19,88.371 133.757,88.75 133.27,88.75 L137.23,88.75 z M137.23,86.25 L133.27,86.25 C132.445,86.25 131.69,86.91 131.69,87.77 L131.69,110.03 C131.69,111.182 133.115,111.721 133.877,110.857 C133.928,110.8 133.928,110.8 134.154,110.543 C134.457,110.201 134.62,110.015 134.885,109.716 C135.641,108.86 136.398,108.004 137.106,107.205 C137.116,107.194 137.116,107.194 137.125,107.183 C138.886,105.195 140.061,103.877 140.295,103.632 L139.39,102.77 L138.418,103.556 L145.408,112.196 L145.496,112.294 C145.786,112.584 146.284,112.75 146.65,112.75 L151.81,112.75 C153.079,112.75 153.923,111.424 153.08,110.3 L143.403,98.901 L143.421,100.497 L152.961,88.737 L151.99,87.95 L152.874,88.834 C153.966,87.742 153.058,86.25 151.72,86.25 L146.83,86.25 C146.464,86.25 145.966,86.416 145.676,86.706 L145.59,86.801 L136.56,97.901 L138.78,98.69 L138.78,87.77 C138.78,86.945 138.085,86.25 137.23,86.25 z M124.18,88.75 C123.698,88.75 123.26,88.341 123.26,87.77 L123.26,111.23 C123.26,110.659 123.698,110.25 124.18,110.25 L120.25,110.25 C120.737,110.25 121.17,110.629 121.17,111.23 L121.17,107 C121.17,106.31 120.61,105.75 119.92,105.75 L110.83,105.75 C110.14,105.75 109.58,106.31 109.58,107 L109.58,111.23 C109.58,110.659 110.018,110.25 110.5,110.25 L106.57,110.25 C107.057,110.25 107.49,110.629 107.49,111.23 L107.49,102.5 L106.24,103.75 L110.83,103.75 L110.83,102.5 L109.58,102.5 L109.58,102.53 C109.58,103.22 110.14,103.78 110.83,103.78 L119.92,103.78 C120.61,103.78 121.17,103.22 121.17,102.53 L121.17,87.77 C121.17,88.371 120.737,88.75 120.25,88.75 L124.18,88.75 z M124.18,86.25 L120.25,86.25 C119.425,86.25 118.67,86.91 118.67,87.77 L118.67,102.53 L119.92,101.28 L110.83,101.28 L110.83,102.53 L112.08,102.53 L112.08,102.5 C112.08,101.81 111.52,101.25 110.83,101.25 L106.24,101.25 C105.55,101.25 104.99,101.81 104.99,102.5 L104.99,111.23 C104.99,112.09 105.745,112.75 106.57,112.75 L110.5,112.75 C111.361,112.75 112.08,112.079 112.08,111.23 L112.08,107 L110.83,108.25 L119.92,108.25 L118.67,107 L118.67,111.23 C118.67,112.09 119.425,112.75 120.25,112.75 L124.18,112.75 C125.041,112.75 125.76,112.079 125.76,111.23 L125.76,87.77 C125.76,86.921 125.041,86.25 124.18,86.25 z M104.98,88.75 C104.498,88.75 104.06,88.341 104.06,87.77 L104.06,97.19 L105.31,95.94 L100.72,95.94 L101.97,97.19 L101.97,91.88 C101.97,91.215 101.449,90.666 100.785,90.632 C94.448,90.304 90.38,93.383 90.38,99.5 C90.38,103.307 91.879,105.87 94.51,107.229 C96.337,108.173 98.391,108.437 100.771,108.339 L105.31,108.34 L104.06,107.09 L104.06,111.23 C104.06,110.659 104.498,110.25 104.98,110.25 L101.08,110.25 C93.066,110.25 88.26,107.271 88.26,99.5 C88.26,91.491 92.831,88.75 101.08,88.75 L104.98,88.75 z M104.98,86.25 L101.08,86.25 C97.094,86.25 93.844,86.847 91.197,88.434 C87.689,90.538 85.76,94.183 85.76,99.5 C85.76,108.969 91.861,112.75 101.08,112.75 L104.98,112.75 C105.841,112.75 106.56,112.079 106.56,111.23 L106.56,107.09 C106.56,106.4 106,105.84 105.31,105.84 L100.72,105.84 C95.779,106.043 92.88,104.545 92.88,99.5 C92.88,94.956 95.638,92.869 100.655,93.128 L99.47,91.88 L99.47,97.19 C99.47,97.88 100.03,98.44 100.72,98.44 L105.31,98.44 C106,98.44 106.56,97.88 106.56,97.19 L106.56,87.77 C106.56,86.921 105.841,86.25 104.98,86.25 z M80.12,96.2 L80.12,111.23 C80.12,110.613 80.561,110.25 81.01,110.25 L77.14,110.25 C77.622,110.25 78.06,110.659 78.06,111.23 L78.06,96.2 L76.81,97.45 L81.37,97.45 L80.12,96.2 z M82.62,96.2 C82.62,95.51 82.06,94.95 81.37,94.95 L76.81,94.95 C76.12,94.95 75.56,95.51 75.56,96.2 L75.56,111.23 C75.56,112.079 76.279,112.75 77.14,112.75 L81.01,112.75 C81.847,112.75 82.62,112.113 82.62,111.23 L82.62,96.2 z M67.37,87.5 L67.37,107.39 C67.37,108.08 67.93,108.64 68.62,108.64 L71.02,108.64 C70.567,108.64 70.1,108.235 70.1,107.66 L70.1,111.23 C70.1,110.659 70.538,110.25 71.02,110.25 L61.57,110.25 C62.057,110.25 62.49,110.629 62.49,111.23 L62.49,107.66 C62.49,108.265 62.029,108.64 61.57,108.64 L64.03,108.64 C64.72,108.64 65.28,108.08 65.28,107.39 L65.28,87.5 L64.03,88.75 L68.62,88.75 L67.37,87.5 z M69.87,87.5 C69.87,86.81 69.31,86.25 68.62,86.25 L64.03,86.25 C63.34,86.25 62.78,86.81 62.78,87.5 L62.78,107.39 L64.03,106.14 L61.57,106.14 C60.749,106.14 59.99,106.757 59.99,107.66 L59.99,111.23 C59.99,112.09 60.745,112.75 61.57,112.75 L71.02,112.75 C71.881,112.75 72.6,112.079 72.6,111.23 L72.6,107.66 C72.6,106.769 71.875,106.14 71.02,106.14 L68.62,106.14 L69.87,107.39 L69.87,87.5 z M21.97,88.75 C25.494,88.75 28.022,91.055 28.07,94.358 C28.072,94.487 28.094,94.614 28.134,94.735 C27.833,93.832 28.451,93.33 28.99,93.33 L25.24,93.33 C25.717,93.33 26.16,93.69 26.16,94.34 C26.077,91.963 24.295,90.57 21.97,90.57 C19.535,90.57 17.72,92.198 17.72,94.73 C17.72,97.101 19.638,98.62 21.97,98.62 C22.791,98.62 23.873,98.788 24.975,99.31 C27.021,100.26 28.16,102.13 28.16,104.51 C28.16,107.973 25.508,110.25 21.97,110.25 L21.94,110.25 L21.94,111.5 L23.19,111.5 L23.19,107.18 L21.94,107.18 L21.94,108.43 C21.97,108.43 21.97,108.43 21.97,108.43 C24.279,108.43 26.22,106.78 26.22,104.51 C26.22,102.179 24.202,100.448 22.026,100.351 C21.116,100.35 20.064,100.186 18.928,99.657 C16.852,98.707 15.75,97.006 15.75,94.73 C15.75,91.216 18.498,88.75 21.97,88.75 z M21.97,86.25 C17.174,86.25 13.25,89.771 13.25,94.73 C13.25,97.989 14.926,100.575 17.88,101.926 C18.754,102.334 19.665,102.593 20.566,102.734 C21.141,102.824 21.577,102.85 21.97,102.85 C22.85,102.89 23.72,103.637 23.72,104.51 C23.72,105.301 22.98,105.93 21.97,105.93 C21.97,105.93 21.97,105.93 21.94,105.93 C21.25,105.93 20.69,106.49 20.69,107.18 L20.69,111.5 C20.69,112.19 21.25,112.75 21.94,112.75 L21.97,112.75 C26.812,112.75 30.66,109.446 30.66,104.51 C30.66,101.176 28.976,98.411 26.036,97.046 C25.175,96.638 24.26,96.378 23.347,96.236 C22.774,96.147 22.333,96.12 21.97,96.12 C20.908,96.12 20.22,95.575 20.22,94.73 C20.22,93.643 20.859,93.07 21.97,93.07 C23.049,93.07 23.631,93.525 23.661,94.384 C23.66,95.198 24.438,95.83 25.24,95.83 L28.99,95.83 C29.914,95.83 30.874,95.05 30.506,93.945 L29.32,94.34 L30.57,94.322 C30.501,89.607 26.819,86.25 21.97,86.25 z M46.99,88.75 C46.66,88.75 46.335,88.564 46.172,88.239 L47.29,87.68 L46.121,88.124 L50.861,100.604 C51.271,101.683 52.8,101.677 53.202,100.595 L56.262,92.345 L55.09,93.16 L59.77,93.16 L58.603,91.461 L51.133,110.871 C51.445,110.04 52.585,110.04 52.9,110.881 L46.118,93.085 C45.709,92.012 44.191,92.012 43.782,93.085 L37.002,110.875 C37.315,110.04 38.455,110.04 38.77,110.881 L31.327,91.463 L30.16,93.16 L34.84,93.16 L33.667,92.341 L36.697,100.591 C37.095,101.675 38.625,101.685 39.038,100.606 L43.808,88.126 L43.853,87.983 C43.726,88.491 43.305,88.75 42.91,88.75 L46.99,88.75 z M46.99,86.25 L42.91,86.25 C42.253,86.25 41.61,86.645 41.427,87.377 L42.64,87.68 L41.472,87.234 L36.702,99.714 L39.043,99.729 L36.013,91.479 C35.833,90.987 35.364,90.66 34.84,90.66 L30.16,90.66 C29.283,90.66 28.679,91.539 28.993,92.357 L36.433,111.767 C36.925,113.08 38.845,113.08 39.34,111.759 L46.118,93.975 L43.782,93.975 L50.562,111.765 C51.055,113.08 52.975,113.08 53.47,111.759 L60.937,92.359 C61.252,91.54 60.647,90.66 59.77,90.66 L55.09,90.66 C54.567,90.66 54.1,90.985 53.918,91.475 L50.858,99.725 L53.199,99.716 L48.459,87.236 L48.408,87.121 C48.131,86.568 47.575,86.25 46.99,86.25 z M110.5,88.75 C110.018,88.75 109.58,88.341 109.58,87.77 L109.58,97.91 L110.83,96.66 L106.24,96.66 L107.49,97.91 L107.49,87.77 C107.49,88.371 107.057,88.75 106.57,88.75 L110.5,88.75 z M110.5,86.25 L106.57,86.25 C105.745,86.25 104.99,86.91 104.99,87.77 L104.99,97.91 C104.99,98.6 105.55,99.16 106.24,99.16 L110.83,99.16 C111.52,99.16 112.08,98.6 112.08,97.91 L112.08,87.77 C112.08,86.921 111.361,86.25 110.5,86.25 z M240.43,88.75 C239.948,88.75 239.51,88.341 239.51,87.77 L239.51,91.34 C239.51,90.765 239.977,90.36 240.43,90.36 L226.66,90.36 C227.119,90.36 227.58,90.735 227.58,91.34 L227.58,87.77 C227.58,88.371 227.147,88.75 226.66,88.75 L240.43,88.75 z M240.43,86.25 L226.66,86.25 C225.835,86.25 225.08,86.91 225.08,87.77 L225.08,91.34 C225.08,92.243 225.839,92.86 226.66,92.86 L240.43,92.86 C241.285,92.86 242.01,92.231 242.01,91.34 L242.01,87.77 C242.01,86.921 241.291,86.25 240.43,86.25 z M85.96,88.75 C85.478,88.75 85.04,88.341 85.04,87.77 L85.04,91.34 C85.04,90.765 85.507,90.36 85.96,90.36 L72.19,90.36 C72.649,90.36 73.11,90.735 73.11,91.34 L73.11,87.77 C73.11,88.371 72.677,88.75 72.19,88.75 L85.96,88.75 z M85.96,86.25 L72.19,86.25 C71.365,86.25 70.61,86.91 70.61,87.77 L70.61,91.34 C70.61,92.243 71.369,92.86 72.19,92.86 L85.96,92.86 C86.815,92.86 87.54,92.231 87.54,91.34 L87.54,87.77 C87.54,86.921 86.821,86.25 85.96,86.25 z" fill="rgba(0,0,0,0.75)" clip-path="url(#Clip_5)" filter="url(#Shadow_6)"/>
      </g>
    </g>
    <path d="M-0,-0 L1024,-0 L1024,720 L-0,720 L-0,-0 z" fill="url(#Gradient_1)" display="none"/>
    <path d="M225.099,333.646 C190.958,317.474 157.417,317.474 154.422,317.474 C123.875,317.474 94.526,299.505 94.526,264.766 C94.526,226.432 121.479,206.667 154.422,206.667 C185.568,206.667 211.922,222.839 213.12,256.979 C213.12,258.776 216.115,261.771 219.708,261.771 L294.578,261.771 C298.771,261.771 301.766,258.776 301.167,256.979 C299.969,175.521 236.479,120.417 154.422,120.417 C77.755,120.417 5.281,174.922 5.281,264.766 C5.281,320.469 33.432,362.995 83.146,385.755 C117.885,401.927 150.229,401.927 154.422,401.927 C181.375,403.125 214.318,424.687 214.318,460.026 C214.318,491.771 186.167,513.333 154.422,513.333 C154.422,513.333 154.422,513.333 153.823,513.333 L153.823,599.583 C154.422,599.583 154.422,599.583 154.422,599.583 C231.089,599.583 302.964,549.87 302.964,460.026 C302.964,403.724 275.411,357.005 225.099,333.646 z" fill="#FFFFFF"/>
    <path d="M728.209,590.599 L535.943,364.193 L726.412,129.401 C730.604,125.208 727.61,120.417 721.021,120.417 L623.391,120.417 C622.193,120.417 618.599,121.615 618,122.214 L437.714,343.828 L437.714,125.807 C437.714,123.411 435.318,120.417 431.724,120.417 L352.662,120.417 C349.068,120.417 346.073,123.411 346.073,125.807 L346.073,570.234 C346.073,570.234 462.87,437.865 474.849,425.286 L614.407,597.786 C615.006,598.385 618.599,599.583 619.797,599.583 L722.818,599.583 C728.808,599.583 731.802,595.391 728.209,590.599 z" fill="#FFFFFF"/>
    <path d="M940.854,333.646 C906.713,317.474 873.172,317.474 870.177,317.474 C839.63,317.474 810.281,299.505 810.281,264.766 C810.281,226.432 837.234,206.667 870.177,206.667 C901.323,206.667 927.677,222.839 928.875,256.979 C928.875,258.776 931.87,261.771 935.463,261.771 L1010.333,261.771 C1014.526,261.771 1017.521,258.776 1016.922,256.979 C1015.724,175.521 952.234,120.417 870.177,120.417 C793.51,120.417 721.036,174.922 721.036,264.766 C721.036,320.469 749.187,362.995 798.901,385.755 C833.641,401.927 865.984,401.927 870.177,401.927 C897.13,403.125 930.073,424.687 930.073,460.026 C930.073,491.771 901.922,513.333 870.177,513.333 C870.177,513.333 870.177,513.333 869.578,513.333 L869.578,599.583 C870.177,599.583 870.177,599.583 870.177,599.583 C946.844,599.583 1018.719,549.87 1018.719,460.026 C1018.719,403.724 991.167,357.005 940.854,333.646 z" fill="#FFFFFF"/>
    <text transform="matrix(1, 0, 0, 1, 437.223, 101.333)" display="none">
      <tspan x="-30.611" y="10.167" font-family="Blanka-Regular" font-size="30" fill="#FFFFFF">SKS</tspan>
    </text>
  </g>
  <g id="Layer_1_Copy_Copy" display="none">
    <path d="M0,131.5 L369.5,131.5 L369.5,195 L0,195 L0,131.5 z" fill="#FFFFFF"/>
    <g>
      <text transform="matrix(1, 0, 0, 1, 260, 183.5)">
        <tspan x="-245.5" y="-11.5" font-family="Exan-Regular" font-size="30" fill="#FFFFFF">SWITCH KICK STUDIOS</tspan>
      </text>
      <path d="M12.12,145 L331.94,145 L331.94,178 L12.12,178 z M23.56,151 Q22.21,151 20.905,151.135 Q19.6,151.27 18.91,151.51 Q18.1,151.81 17.47,152.32 Q16.84,152.89 16.525,153.865 Q16.21,154.84 16.12,156.43 L16.12,157 Q16.21,158.59 16.525,159.565 Q16.84,160.54 17.47,161.11 Q18.13,161.71 18.91,161.95 Q19.54,162.16 21.31,162.31 Q22.24,162.43 23.56,162.43 Q25.42,162.43 26.53,162.67 Q27.64,162.91 28.105,163.165 Q28.57,163.42 28.57,163.48 Q28.99,164.14 29.11,165.7 L29.11,166.81 Q28.96,168.49 28.57,169.06 Q28.45,169.24 27.955,169.48 Q27.46,169.72 26.5,169.9 Q26.23,169.96 25.525,170.05 Q24.82,170.14 24.22,170.14 L23.56,170.14 Q21.94,170.14 20.83,169.93 Q19.72,169.72 19.165,169.465 Q18.61,169.21 18.49,169.03 Q18.1,168.28 18.01,166.78 L18.01,165.97 L16.12,165.97 L16.12,166.57 L16.15,166.75 Q16.24,168.25 16.555,169.18 Q16.87,170.11 17.47,170.68 Q18.07,171.25 18.91,171.49 Q19.6,171.73 20.905,171.865 Q22.21,172 23.56,172 Q24.31,172 24.73,171.97 L24.82,171.97 Q25.18,171.97 25.84,171.91 Q26.35,171.88 27.25,171.73 Q27.55,171.67 28.21,171.52 L28.99,171.19 Q29.41,170.92 29.5,170.8 L29.62,170.71 L29.68,170.62 Q30.28,170.02 30.58,169.09 Q30.88,168.16 30.94,166.6 L30.94,165.97 Q30.88,164.41 30.58,163.48 Q30.28,162.55 29.68,161.98 L29.44,161.74 Q28.96,161.29 28.21,161.05 Q27.46,160.84 26.14,160.705 Q24.82,160.57 23.56,160.57 Q21.25,160.57 19.975,160.195 Q18.7,159.82 18.49,159.49 Q18.1,158.68 18.01,157.24 L18.01,156.28 Q18.1,154.69 18.49,154 Q18.7,153.64 19.96,153.265 Q21.22,152.89 23.56,152.89 Q25.42,152.89 26.53,153.13 Q27.64,153.37 28.105,153.64 Q28.57,153.91 28.57,153.97 Q28.96,154.48 29.11,156.19 L29.11,156.76 L30.94,156.76 L30.94,156.37 Q30.88,154.78 30.565,153.82 Q30.25,152.86 29.59,152.29 Q29.08,151.84 28.21,151.51 Q27.49,151.27 26.185,151.135 Q24.88,151 23.56,151 z M36.13,151 L34.3,151 L34.3,172 L35.98,172 L36.67,170.98 L41.5,162.64 L46.36,171.01 L47.02,172 L48.7,172 L48.7,151 L46.9,151 L46.9,168.28 L42.4,160.48 L40.6,160.48 L36.13,168.28 L36.13,151 z M55.93,151 L54.07,151 L54.07,172 L55.93,172 L55.93,151 z M75.97,151 L61.03,151 L61.03,153.04 L67.45,153.04 L67.45,172 L69.46,172 L69.46,153.04 L75.97,153.04 L75.97,151 z M92.89,151 L88.18,151 Q84.61,151.03 82.975,151.465 Q81.34,151.9 80.71,153.145 Q80.08,154.39 80.08,157.15 L80.08,165.88 Q80.08,168.64 80.77,169.855 Q81.46,171.07 82.81,171.52 L83.47,171.76 L84.04,171.88 L85.42,172 L92.89,172 L92.89,170.08 L85.42,170.08 Q83.68,169.99 82.99,169.6 Q82.6,169.39 82.3,168.655 Q82,167.92 82,165.88 L82,157.15 Q82,153.91 82.96,153.43 Q83.65,153.07 85.09,152.98 L85.51,152.95 L92.89,152.95 L92.89,151 z M99.82,151 L97.99,151 L97.99,172 L99.82,172 L99.82,163 L109.15,163 L109.18,172 L111.01,172 L111.01,151 L109.15,151 L109.15,160.99 L99.82,160.99 L99.82,151 z M134.92,151 L133,151 L133,172 L134.92,172 L134.92,162.85 L141.16,162.85 Q142.81,162.88 143.95,163.15 Q145.09,163.42 145.345,163.66 Q145.6,163.9 145.6,163.9 Q145.93,164.5 146.08,166.15 L146.08,172 L147.97,172 L147.97,166.39 Q147.88,164.8 147.58,163.84 Q147.28,162.88 146.71,162.31 L146.44,162.1 L146.11,161.89 L146.44,161.68 L146.71,161.44 Q147.28,160.87 147.58,159.925 Q147.88,158.98 147.97,157.42 L147.97,151 L146.08,151 L146.08,157.63 Q145.93,159.31 145.6,159.85 Q145.6,159.91 145.18,160.165 Q144.76,160.42 143.77,160.66 Q142.78,160.9 141.16,160.93 L134.92,160.93 L134.92,151 z M154.93,151 L153.07,151 L153.07,172 L154.93,172 L154.93,151 z M173.89,151 L169.18,151 Q165.61,151.03 163.975,151.465 Q162.34,151.9 161.71,153.145 Q161.08,154.39 161.08,157.15 L161.08,165.88 Q161.08,168.64 161.77,169.855 Q162.46,171.07 163.81,171.52 L164.47,171.76 L165.04,171.88 L166.42,172 L173.89,172 L173.89,170.08 L166.42,170.08 Q164.68,169.99 163.99,169.6 Q163.6,169.39 163.3,168.655 Q163,167.92 163,165.88 L163,157.15 Q163,153.91 163.96,153.43 Q164.65,153.07 166.09,152.98 L166.51,152.95 L173.89,152.95 L173.89,151 z M179.92,151 L178,151 L178,172 L179.92,172 L179.92,162.85 L186.16,162.85 Q187.81,162.88 188.95,163.15 Q190.09,163.42 190.345,163.66 Q190.6,163.9 190.6,163.9 Q190.93,164.5 191.08,166.15 L191.08,172 L192.97,172 L192.97,166.39 Q192.88,164.8 192.58,163.84 Q192.28,162.88 191.71,162.31 L191.44,162.1 L191.11,161.89 L191.44,161.68 L191.71,161.44 Q192.28,160.87 192.58,159.925 Q192.88,158.98 192.97,157.42 L192.97,151 L191.08,151 L191.08,157.63 Q190.93,159.31 190.6,159.85 Q190.6,159.91 190.18,160.165 Q189.76,160.42 188.77,160.66 Q187.78,160.9 186.16,160.93 L179.92,160.93 L179.92,151 z M221.56,151 Q220.21,151 218.905,151.135 Q217.6,151.27 216.91,151.51 Q216.1,151.81 215.47,152.32 Q214.84,152.89 214.525,153.865 Q214.21,154.84 214.12,156.43 L214.12,157 Q214.21,158.59 214.525,159.565 Q214.84,160.54 215.47,161.11 Q216.13,161.71 216.91,161.95 Q217.54,162.16 219.31,162.31 Q220.24,162.43 221.56,162.43 Q223.42,162.43 224.53,162.67 Q225.64,162.91 226.105,163.165 Q226.57,163.42 226.57,163.48 Q226.99,164.14 227.11,165.7 L227.11,166.81 Q226.96,168.49 226.57,169.06 Q226.45,169.24 225.955,169.48 Q225.46,169.72 224.5,169.9 Q224.23,169.96 223.525,170.05 Q222.82,170.14 222.22,170.14 L221.56,170.14 Q219.94,170.14 218.83,169.93 Q217.72,169.72 217.165,169.465 Q216.61,169.21 216.49,169.03 Q216.1,168.28 216.01,166.78 L216.01,165.97 L214.12,165.97 L214.12,166.57 L214.15,166.75 Q214.24,168.25 214.555,169.18 Q214.87,170.11 215.47,170.68 Q216.07,171.25 216.91,171.49 Q217.6,171.73 218.905,171.865 Q220.21,172 221.56,172 Q222.31,172 222.73,171.97 L222.82,171.97 Q223.18,171.97 223.84,171.91 Q224.35,171.88 225.25,171.73 Q225.55,171.67 226.21,171.52 L226.99,171.19 Q227.41,170.92 227.5,170.8 L227.62,170.71 L227.68,170.62 Q228.28,170.02 228.58,169.09 Q228.88,168.16 228.94,166.6 L228.94,165.97 Q228.88,164.41 228.58,163.48 Q228.28,162.55 227.68,161.98 L227.44,161.74 Q226.96,161.29 226.21,161.05 Q225.46,160.84 224.14,160.705 Q222.82,160.57 221.56,160.57 Q219.25,160.57 217.975,160.195 Q216.7,159.82 216.49,159.49 Q216.1,158.68 216.01,157.24 L216.01,156.28 Q216.1,154.69 216.49,154 Q216.7,153.64 217.96,153.265 Q219.22,152.89 221.56,152.89 Q223.42,152.89 224.53,153.13 Q225.64,153.37 226.105,153.64 Q226.57,153.91 226.57,153.97 Q226.96,154.48 227.11,156.19 L227.11,156.76 L228.94,156.76 L228.94,156.37 Q228.88,154.78 228.565,153.82 Q228.25,152.86 227.59,152.29 Q227.08,151.84 226.21,151.51 Q225.49,151.27 224.185,151.135 Q222.88,151 221.56,151 z M246.97,151 L232.03,151 L232.03,153.04 L238.45,153.04 L238.45,172 L240.46,172 L240.46,153.04 L246.97,153.04 L246.97,151 z M251.92,151 L250.03,151 L250.03,166.54 Q250.12,168.16 250.435,169.135 Q250.75,170.11 251.41,170.68 Q251.95,171.22 252.82,171.49 Q253.54,171.73 254.86,171.865 Q256.18,172 257.5,172 Q258.82,172 260.155,171.88 Q261.49,171.76 262.18,171.52 Q263.05,171.19 263.59,170.71 Q264.25,170.14 264.58,169.165 Q264.91,168.19 264.97,166.57 L264.97,151 L263.08,151 L263.08,166.78 Q262.96,168.43 262.6,169.03 Q262.6,169.09 262.135,169.36 Q261.67,169.63 260.53,169.87 Q259.39,170.11 257.5,170.11 Q255.16,170.11 253.9,169.735 Q252.64,169.36 252.43,169 Q252.04,168.37 251.92,166.75 L251.92,151 z M270.37,152.89 L277.54,152.92 Q279.1,153.04 279.67,153.4 Q280.66,153.85 280.66,157.12 L280.66,165.85 Q280.66,167.89 280.345,168.61 Q280.03,169.33 279.64,169.57 Q278.95,169.96 277.24,170.05 L270.37,170.05 L270.37,152.89 z M274.75,151 L268.45,151 L268.45,172 L277.24,172 L278.62,171.88 L279.19,171.73 L279.82,171.52 Q281.17,171.1 281.86,169.855 Q282.55,168.61 282.55,165.85 L282.55,157.12 Q282.55,154.27 281.83,152.995 Q281.11,151.72 279.58,151.375 Q278.05,151.03 274.75,151 z M289.93,151 L288.07,151 L288.07,172 L289.93,172 L289.93,151 z M302.53,152.86 Q304.42,152.86 305.53,153.1 Q306.64,153.34 307.105,153.61 Q307.57,153.88 307.57,153.94 Q307.93,154.51 308.08,156.16 L308.08,166.84 Q307.93,168.46 307.6,169.06 Q307.69,169.06 307.165,169.36 Q306.64,169.66 305.53,169.9 Q304.42,170.14 302.53,170.14 Q300.88,170.14 299.785,169.93 Q298.69,169.72 298.135,169.465 Q297.58,169.21 297.49,169.03 Q297.13,168.46 296.98,166.78 L296.98,156.25 Q297.1,154.6 297.49,153.97 Q297.58,153.76 298.135,153.505 Q298.69,153.25 299.785,153.055 Q300.88,152.86 302.53,152.86 z M302.53,151 Q301.21,151 299.875,151.12 Q298.54,151.24 297.88,151.48 Q297.01,151.81 296.44,152.32 Q295.81,152.89 295.495,153.865 Q295.18,154.84 295.09,156.43 L295.09,166.57 Q295.18,168.16 295.495,169.135 Q295.81,170.11 296.44,170.68 Q297.01,171.22 297.88,171.49 Q298.54,171.73 299.875,171.865 Q301.21,172 302.53,172 Q303.85,172 305.17,171.88 Q306.49,171.76 307.21,171.52 Q308.08,171.19 308.59,170.71 Q309.25,170.14 309.565,169.18 Q309.88,168.22 309.94,166.6 L309.94,156.37 Q309.88,154.75 309.565,153.805 Q309.25,152.86 308.59,152.29 Q308.08,151.81 307.21,151.48 Q306.49,151.24 305.17,151.12 Q303.85,151 302.53,151 z M320.56,151 Q319.21,151 317.905,151.135 Q316.6,151.27 315.91,151.51 Q315.1,151.81 314.47,152.32 Q313.84,152.89 313.525,153.865 Q313.21,154.84 313.12,156.43 L313.12,157 Q313.21,158.59 313.525,159.565 Q313.84,160.54 314.47,161.11 Q315.13,161.71 315.91,161.95 Q316.54,162.16 318.31,162.31 Q319.24,162.43 320.56,162.43 Q322.42,162.43 323.53,162.67 Q324.64,162.91 325.105,163.165 Q325.57,163.42 325.57,163.48 Q325.99,164.14 326.11,165.7 L326.11,166.81 Q325.96,168.49 325.57,169.06 Q325.45,169.24 324.955,169.48 Q324.46,169.72 323.5,169.9 Q323.23,169.96 322.525,170.05 Q321.82,170.14 321.22,170.14 L320.56,170.14 Q318.94,170.14 317.83,169.93 Q316.72,169.72 316.165,169.465 Q315.61,169.21 315.49,169.03 Q315.1,168.28 315.01,166.78 L315.01,165.97 L313.12,165.97 L313.12,166.57 L313.15,166.75 Q313.24,168.25 313.555,169.18 Q313.87,170.11 314.47,170.68 Q315.07,171.25 315.91,171.49 Q316.6,171.73 317.905,171.865 Q319.21,172 320.56,172 Q321.31,172 321.73,171.97 L321.82,171.97 Q322.18,171.97 322.84,171.91 Q323.35,171.88 324.25,171.73 Q324.55,171.67 325.21,171.52 L325.99,171.19 Q326.41,170.92 326.5,170.8 L326.62,170.71 L326.68,170.62 Q327.28,170.02 327.58,169.09 Q327.88,168.16 327.94,166.6 L327.94,165.97 Q327.88,164.41 327.58,163.48 Q327.28,162.55 326.68,161.98 L326.44,161.74 Q325.96,161.29 325.21,161.05 Q324.46,160.84 323.14,160.705 Q321.82,160.57 320.56,160.57 Q318.25,160.57 316.975,160.195 Q315.7,159.82 315.49,159.49 Q315.1,158.68 315.01,157.24 L315.01,156.28 Q315.1,154.69 315.49,154 Q315.7,153.64 316.96,153.265 Q318.22,152.89 320.56,152.89 Q322.42,152.89 323.53,153.13 Q324.64,153.37 325.105,153.64 Q325.57,153.91 325.57,153.97 Q325.96,154.48 326.11,156.19 L326.11,156.76 L327.94,156.76 L327.94,156.37 Q327.88,154.78 327.565,153.82 Q327.25,152.86 326.59,152.29 Q326.08,151.84 325.21,151.51 Q324.49,151.27 323.185,151.135 Q321.88,151 320.56,151 z" clip-path="url(#Clip_7)" filter="url(#InnerShadow_8)" fill="rgba(0,0,0,0.75)"/>
    </g>
    <path d="M398.75,142 L768.25,142 L768.25,205.5 L398.75,205.5 L398.75,142 z" fill="#FFFFFF"/>
    <g>
      <text transform="matrix(1, 0, 0, 1, 658.75, 194)">
        <tspan x="-245.5" y="-11.5" font-family="Exan-Regular" font-size="30" fill="#FFFFFF">SKS</tspan>
      </text>
      <path d="M410.87,155.5 L469.69,155.5 L469.69,188.5 L410.87,188.5 z M422.31,161.5 Q420.96,161.5 419.655,161.635 Q418.35,161.77 417.66,162.01 Q416.85,162.31 416.22,162.82 Q415.59,163.39 415.275,164.365 Q414.96,165.34 414.87,166.93 L414.87,167.5 Q414.96,169.09 415.275,170.065 Q415.59,171.04 416.22,171.61 Q416.88,172.21 417.66,172.45 Q418.29,172.66 420.06,172.81 Q420.99,172.93 422.31,172.93 Q424.17,172.93 425.28,173.17 Q426.39,173.41 426.855,173.665 Q427.32,173.92 427.32,173.98 Q427.74,174.64 427.86,176.2 L427.86,177.31 Q427.71,178.99 427.32,179.56 Q427.2,179.74 426.705,179.98 Q426.21,180.22 425.25,180.4 Q424.98,180.46 424.275,180.55 Q423.57,180.64 422.97,180.64 L422.31,180.64 Q420.69,180.64 419.58,180.43 Q418.47,180.22 417.915,179.965 Q417.36,179.71 417.24,179.53 Q416.85,178.78 416.76,177.28 L416.76,176.47 L414.87,176.47 L414.87,177.07 L414.9,177.25 Q414.99,178.75 415.305,179.68 Q415.62,180.61 416.22,181.18 Q416.82,181.75 417.66,181.99 Q418.35,182.23 419.655,182.365 Q420.96,182.5 422.31,182.5 Q423.06,182.5 423.48,182.47 L423.57,182.47 Q423.93,182.47 424.59,182.41 Q425.1,182.38 426,182.23 Q426.3,182.17 426.96,182.02 L427.74,181.69 Q428.16,181.42 428.25,181.3 L428.37,181.21 L428.43,181.12 Q429.03,180.52 429.33,179.59 Q429.63,178.66 429.69,177.1 L429.69,176.47 Q429.63,174.91 429.33,173.98 Q429.03,173.05 428.43,172.48 L428.19,172.24 Q427.71,171.79 426.96,171.55 Q426.21,171.34 424.89,171.205 Q423.57,171.07 422.31,171.07 Q420,171.07 418.725,170.695 Q417.45,170.32 417.24,169.99 Q416.85,169.18 416.76,167.74 L416.76,166.78 Q416.85,165.19 417.24,164.5 Q417.45,164.14 418.71,163.765 Q419.97,163.39 422.31,163.39 Q424.17,163.39 425.28,163.63 Q426.39,163.87 426.855,164.14 Q427.32,164.41 427.32,164.47 Q427.71,164.98 427.86,166.69 L427.86,167.26 L429.69,167.26 L429.69,166.87 Q429.63,165.28 429.315,164.32 Q429,163.36 428.34,162.79 Q427.83,162.34 426.96,162.01 Q426.24,161.77 424.935,161.635 Q423.63,161.5 422.31,161.5 z M434.67,161.5 L432.75,161.5 L432.75,182.5 L434.67,182.5 L434.67,173.35 L440.91,173.35 Q442.56,173.38 443.7,173.65 Q444.84,173.92 445.095,174.16 Q445.35,174.4 445.35,174.4 Q445.68,175 445.83,176.65 L445.83,182.5 L447.72,182.5 L447.72,176.89 Q447.63,175.3 447.33,174.34 Q447.03,173.38 446.46,172.81 L446.19,172.6 L445.86,172.39 L446.19,172.18 L446.46,171.94 Q447.03,171.37 447.33,170.425 Q447.63,169.48 447.72,167.92 L447.72,161.5 L445.83,161.5 L445.83,168.13 Q445.68,169.81 445.35,170.35 Q445.35,170.41 444.93,170.665 Q444.51,170.92 443.52,171.16 Q442.53,171.4 440.91,171.43 L434.67,171.43 L434.67,161.5 z M458.31,161.5 Q456.96,161.5 455.655,161.635 Q454.35,161.77 453.66,162.01 Q452.85,162.31 452.22,162.82 Q451.59,163.39 451.275,164.365 Q450.96,165.34 450.87,166.93 L450.87,167.5 Q450.96,169.09 451.275,170.065 Q451.59,171.04 452.22,171.61 Q452.88,172.21 453.66,172.45 Q454.29,172.66 456.06,172.81 Q456.99,172.93 458.31,172.93 Q460.17,172.93 461.28,173.17 Q462.39,173.41 462.855,173.665 Q463.32,173.92 463.32,173.98 Q463.74,174.64 463.86,176.2 L463.86,177.31 Q463.71,178.99 463.32,179.56 Q463.2,179.74 462.705,179.98 Q462.21,180.22 461.25,180.4 Q460.98,180.46 460.275,180.55 Q459.57,180.64 458.97,180.64 L458.31,180.64 Q456.69,180.64 455.58,180.43 Q454.47,180.22 453.915,179.965 Q453.36,179.71 453.24,179.53 Q452.85,178.78 452.76,177.28 L452.76,176.47 L450.87,176.47 L450.87,177.07 L450.9,177.25 Q450.99,178.75 451.305,179.68 Q451.62,180.61 452.22,181.18 Q452.82,181.75 453.66,181.99 Q454.35,182.23 455.655,182.365 Q456.96,182.5 458.31,182.5 Q459.06,182.5 459.48,182.47 L459.57,182.47 Q459.93,182.47 460.59,182.41 Q461.1,182.38 462,182.23 Q462.3,182.17 462.96,182.02 L463.74,181.69 Q464.16,181.42 464.25,181.3 L464.37,181.21 L464.43,181.12 Q465.03,180.52 465.33,179.59 Q465.63,178.66 465.69,177.1 L465.69,176.47 Q465.63,174.91 465.33,173.98 Q465.03,173.05 464.43,172.48 L464.19,172.24 Q463.71,171.79 462.96,171.55 Q462.21,171.34 460.89,171.205 Q459.57,171.07 458.31,171.07 Q456,171.07 454.725,170.695 Q453.45,170.32 453.24,169.99 Q452.85,169.18 452.76,167.74 L452.76,166.78 Q452.85,165.19 453.24,164.5 Q453.45,164.14 454.71,163.765 Q455.97,163.39 458.31,163.39 Q460.17,163.39 461.28,163.63 Q462.39,163.87 462.855,164.14 Q463.32,164.41 463.32,164.47 Q463.71,164.98 463.86,166.69 L463.86,167.26 L465.69,167.26 L465.69,166.87 Q465.63,165.28 465.315,164.32 Q465,163.36 464.34,162.79 Q463.83,162.34 462.96,162.01 Q462.24,161.77 460.935,161.635 Q459.63,161.5 458.31,161.5 z" clip-path="url(#Clip_9)" filter="url(#InnerShadow_10)" fill="rgba(0,0,0,0.75)"/>
    </g>
  </g>
  <g id="Layer_7" display="none">
    <path d="M0,258.5 L369.5,258.5 L369.5,322 L0,322 L0,258.5 z" fill="#FFFFFF"/>
    <text transform="matrix(1, 0, 0, 1, 260, 310.5)">
      <tspan x="-245.5" y="-11.5" font-family="HalogenbyPixelSurplus-Regular" font-size="30" fill="#BA9898">SWITCH KICK STUDIOS</tspan>
    </text>
    <path d="M328,258.5 L697.5,258.5 L697.5,322 L328,322 L328,258.5 z" fill="#FFFFFF"/>
    <text transform="matrix(1, 0, 0, 1, 588, 310.5)">
      <tspan x="-245.5" y="-11.5" font-family="HalogenbyPixelSurplus-Regular" font-size="30" fill="#BA9898">SKS</tspan>
    </text>
  </g>
</svg>
