<?xml version="1.0" encoding="UTF-8"?>
<!DOCTYPE svg PUBLIC "-//W3C//DTD SVG 1.1//EN" "http://www.w3.org/Graphics/SVG/1.1/DTD/svg11.dtd">
<svg version="1.1" xmlns="http://www.w3.org/2000/svg" xmlns:xlink="http://www.w3.org/1999/xlink" x="0" y="0" width="1104" height="720" viewBox="0, 0, 1104, 720">
  <g id="Layer_1_Copy" transform="translate(40, 0)">
    <path d="M0,720 L-40,720 L-40,0 L1064,0 L1064,720 L1024,720 L1024,720 L0,720 L0,720 z M870.177,120.416 L870.177,120.417 C793.51,120.417 721.036,174.922 721.036,264.766 C721.036,320.469 749.187,362.995 798.901,385.755 C833.641,401.927 865.984,401.927 870.177,401.927 C897.13,403.125 930.073,424.687 930.073,460.026 C930.073,491.771 901.922,513.333 870.177,513.333 C870.177,513.333 870.177,513.333 869.578,513.333 L869.578,599.583 L870.177,599.583 C946.844,599.583 1018.719,549.87 1018.719,460.026 C1018.719,403.724 991.167,357.005 940.854,333.646 C906.714,317.474 873.172,317.474 870.177,317.474 C839.63,317.474 810.281,299.505 810.281,264.766 C810.281,226.432 837.234,206.667 870.177,206.667 C901.323,206.667 927.677,222.839 928.875,256.979 C928.875,258.776 931.87,261.771 935.463,261.771 L1010.333,261.771 C1014.526,261.771 1017.521,258.776 1016.922,256.979 C1015.724,175.521 952.234,120.417 870.177,120.417 z M154.422,120.416 L154.422,120.417 C77.755,120.417 5.281,174.922 5.281,264.766 C5.281,320.469 33.432,362.995 83.146,385.755 C117.885,401.927 150.229,401.927 154.422,401.927 C181.375,403.125 214.318,424.687 214.318,460.026 C214.318,491.771 186.167,513.333 154.422,513.333 C154.422,513.333 154.422,513.333 153.823,513.333 L153.823,599.583 L154.422,599.583 C231.089,599.583 302.964,549.87 302.964,460.026 C302.964,403.724 275.411,357.005 225.099,333.646 C190.958,317.474 157.417,317.474 154.422,317.474 C123.875,317.474 94.526,299.505 94.526,264.766 C94.526,226.432 121.479,206.667 154.422,206.667 C185.568,206.667 211.922,222.839 213.12,256.979 C213.12,258.776 216.115,261.771 219.708,261.771 L294.578,261.771 C298.771,261.771 301.766,258.776 301.167,256.979 C299.969,175.521 236.479,120.417 154.422,120.417 z M721.021,120.416 L721.021,120.416 L623.391,120.417 C622.193,120.417 618.599,121.615 618,122.213 L437.714,343.828 L437.714,125.807 C437.714,123.411 435.318,120.417 431.724,120.417 L352.662,120.417 C349.068,120.417 346.073,123.411 346.073,125.807 L346.073,570.234 C346.073,570.234 462.87,437.865 474.849,425.286 L614.407,597.786 C615.006,598.385 618.599,599.583 619.797,599.583 L722.818,599.583 C728.808,599.583 731.802,595.391 728.209,590.599 L535.943,364.193 L726.412,129.401 C730.605,125.208 727.61,120.417 721.021,120.417 z" fill="#FFFFFF"/>
  </g>
</svg>
